%TF.GenerationSoftware,KiCad,Pcbnew,9.0.3-9.0.3-0~ubuntu24.04.1*%
%TF.CreationDate,2025-07-31T20:10:47-07:00*%
%TF.ProjectId,board,626f6172-642e-46b6-9963-61645f706362,rev?*%
%TF.SameCoordinates,Original*%
%TF.FileFunction,Copper,L1,Top*%
%TF.FilePolarity,Positive*%
%FSLAX46Y46*%
G04 Gerber Fmt 4.6, Leading zero omitted, Abs format (unit mm)*
G04 Created by KiCad (PCBNEW 9.0.3-9.0.3-0~ubuntu24.04.1) date 2025-07-31 20:10:47*
%MOMM*%
%LPD*%
G01*
G04 APERTURE LIST*
G04 Aperture macros list*
%AMRoundRect*
0 Rectangle with rounded corners*
0 $1 Rounding radius*
0 $2 $3 $4 $5 $6 $7 $8 $9 X,Y pos of 4 corners*
0 Add a 4 corners polygon primitive as box body*
4,1,4,$2,$3,$4,$5,$6,$7,$8,$9,$2,$3,0*
0 Add four circle primitives for the rounded corners*
1,1,$1+$1,$2,$3*
1,1,$1+$1,$4,$5*
1,1,$1+$1,$6,$7*
1,1,$1+$1,$8,$9*
0 Add four rect primitives between the rounded corners*
20,1,$1+$1,$2,$3,$4,$5,0*
20,1,$1+$1,$4,$5,$6,$7,0*
20,1,$1+$1,$6,$7,$8,$9,0*
20,1,$1+$1,$8,$9,$2,$3,0*%
G04 Aperture macros list end*
%TA.AperFunction,SMDPad,CuDef*%
%ADD10RoundRect,0.250000X-0.475000X0.250000X-0.475000X-0.250000X0.475000X-0.250000X0.475000X0.250000X0*%
%TD*%
%TA.AperFunction,SMDPad,CuDef*%
%ADD11RoundRect,0.200000X-0.275000X0.200000X-0.275000X-0.200000X0.275000X-0.200000X0.275000X0.200000X0*%
%TD*%
%TA.AperFunction,SMDPad,CuDef*%
%ADD12RoundRect,0.250000X-0.850000X-0.350000X0.850000X-0.350000X0.850000X0.350000X-0.850000X0.350000X0*%
%TD*%
%TA.AperFunction,SMDPad,CuDef*%
%ADD13RoundRect,0.249997X-2.950003X-2.650003X2.950003X-2.650003X2.950003X2.650003X-2.950003X2.650003X0*%
%TD*%
%TA.AperFunction,SMDPad,CuDef*%
%ADD14RoundRect,0.225000X-0.225000X-0.250000X0.225000X-0.250000X0.225000X0.250000X-0.225000X0.250000X0*%
%TD*%
%TA.AperFunction,SMDPad,CuDef*%
%ADD15RoundRect,0.225000X0.225000X0.250000X-0.225000X0.250000X-0.225000X-0.250000X0.225000X-0.250000X0*%
%TD*%
%TA.AperFunction,SMDPad,CuDef*%
%ADD16RoundRect,0.200000X0.275000X-0.200000X0.275000X0.200000X-0.275000X0.200000X-0.275000X-0.200000X0*%
%TD*%
%TA.AperFunction,SMDPad,CuDef*%
%ADD17R,2.400000X0.740000*%
%TD*%
%TA.AperFunction,ComponentPad*%
%ADD18R,1.350000X1.350000*%
%TD*%
%TA.AperFunction,ComponentPad*%
%ADD19C,1.350000*%
%TD*%
%TA.AperFunction,SMDPad,CuDef*%
%ADD20RoundRect,0.250000X0.250000X0.475000X-0.250000X0.475000X-0.250000X-0.475000X0.250000X-0.475000X0*%
%TD*%
%TA.AperFunction,ComponentPad*%
%ADD21RoundRect,0.250000X-0.600000X-0.725000X0.600000X-0.725000X0.600000X0.725000X-0.600000X0.725000X0*%
%TD*%
%TA.AperFunction,ComponentPad*%
%ADD22O,1.700000X1.950000*%
%TD*%
%TA.AperFunction,ComponentPad*%
%ADD23C,3.600000*%
%TD*%
%TA.AperFunction,ConnectorPad*%
%ADD24C,6.400000*%
%TD*%
%TA.AperFunction,SMDPad,CuDef*%
%ADD25R,0.900000X1.000000*%
%TD*%
%TA.AperFunction,SMDPad,CuDef*%
%ADD26RoundRect,0.200000X-0.200000X-0.275000X0.200000X-0.275000X0.200000X0.275000X-0.200000X0.275000X0*%
%TD*%
%TA.AperFunction,SMDPad,CuDef*%
%ADD27RoundRect,0.249999X-0.850001X1.025001X-0.850001X-1.025001X0.850001X-1.025001X0.850001X1.025001X0*%
%TD*%
%TA.AperFunction,ComponentPad*%
%ADD28R,1.700000X1.700000*%
%TD*%
%TA.AperFunction,ComponentPad*%
%ADD29C,1.700000*%
%TD*%
%TA.AperFunction,SMDPad,CuDef*%
%ADD30RoundRect,0.250000X0.450000X-0.262500X0.450000X0.262500X-0.450000X0.262500X-0.450000X-0.262500X0*%
%TD*%
%TA.AperFunction,SMDPad,CuDef*%
%ADD31RoundRect,0.225000X0.250000X-0.225000X0.250000X0.225000X-0.250000X0.225000X-0.250000X-0.225000X0*%
%TD*%
%TA.AperFunction,SMDPad,CuDef*%
%ADD32RoundRect,0.200000X0.200000X0.275000X-0.200000X0.275000X-0.200000X-0.275000X0.200000X-0.275000X0*%
%TD*%
%TA.AperFunction,SMDPad,CuDef*%
%ADD33RoundRect,0.375000X0.375000X-0.625000X0.375000X0.625000X-0.375000X0.625000X-0.375000X-0.625000X0*%
%TD*%
%TA.AperFunction,SMDPad,CuDef*%
%ADD34RoundRect,0.500000X1.400000X-0.500000X1.400000X0.500000X-1.400000X0.500000X-1.400000X-0.500000X0*%
%TD*%
%TA.AperFunction,SMDPad,CuDef*%
%ADD35RoundRect,0.225000X-0.375000X0.225000X-0.375000X-0.225000X0.375000X-0.225000X0.375000X0.225000X0*%
%TD*%
%TA.AperFunction,ComponentPad*%
%ADD36RoundRect,0.250000X-0.625000X0.350000X-0.625000X-0.350000X0.625000X-0.350000X0.625000X0.350000X0*%
%TD*%
%TA.AperFunction,ComponentPad*%
%ADD37O,1.750000X1.200000*%
%TD*%
%TA.AperFunction,SMDPad,CuDef*%
%ADD38RoundRect,0.075000X0.725000X0.075000X-0.725000X0.075000X-0.725000X-0.075000X0.725000X-0.075000X0*%
%TD*%
%TA.AperFunction,SMDPad,CuDef*%
%ADD39RoundRect,0.075000X0.075000X0.725000X-0.075000X0.725000X-0.075000X-0.725000X0.075000X-0.725000X0*%
%TD*%
%TA.AperFunction,SMDPad,CuDef*%
%ADD40RoundRect,0.150000X0.512500X0.150000X-0.512500X0.150000X-0.512500X-0.150000X0.512500X-0.150000X0*%
%TD*%
%TA.AperFunction,SMDPad,CuDef*%
%ADD41RoundRect,0.225000X0.335876X0.017678X0.017678X0.335876X-0.335876X-0.017678X-0.017678X-0.335876X0*%
%TD*%
%TA.AperFunction,SMDPad,CuDef*%
%ADD42RoundRect,0.250000X-0.250000X-0.475000X0.250000X-0.475000X0.250000X0.475000X-0.250000X0.475000X0*%
%TD*%
%TA.AperFunction,SMDPad,CuDef*%
%ADD43RoundRect,0.150000X0.150000X-0.512500X0.150000X0.512500X-0.150000X0.512500X-0.150000X-0.512500X0*%
%TD*%
%TA.AperFunction,ComponentPad*%
%ADD44RoundRect,0.250000X1.050000X-1.050000X1.050000X1.050000X-1.050000X1.050000X-1.050000X-1.050000X0*%
%TD*%
%TA.AperFunction,ComponentPad*%
%ADD45C,2.600000*%
%TD*%
%TA.AperFunction,SMDPad,CuDef*%
%ADD46RoundRect,0.225000X-0.250000X0.225000X-0.250000X-0.225000X0.250000X-0.225000X0.250000X0.225000X0*%
%TD*%
%TA.AperFunction,SMDPad,CuDef*%
%ADD47RoundRect,0.250000X1.000000X0.650000X-1.000000X0.650000X-1.000000X-0.650000X1.000000X-0.650000X0*%
%TD*%
%TA.AperFunction,ComponentPad*%
%ADD48RoundRect,0.250000X0.550000X0.550000X-0.550000X0.550000X-0.550000X-0.550000X0.550000X-0.550000X0*%
%TD*%
%TA.AperFunction,ComponentPad*%
%ADD49C,1.600000*%
%TD*%
%TA.AperFunction,SMDPad,CuDef*%
%ADD50RoundRect,0.225000X0.375000X-0.225000X0.375000X0.225000X-0.375000X0.225000X-0.375000X-0.225000X0*%
%TD*%
%TA.AperFunction,SMDPad,CuDef*%
%ADD51RoundRect,0.250000X-0.262500X-0.450000X0.262500X-0.450000X0.262500X0.450000X-0.262500X0.450000X0*%
%TD*%
%TA.AperFunction,ComponentPad*%
%ADD52RoundRect,0.250000X0.600000X0.725000X-0.600000X0.725000X-0.600000X-0.725000X0.600000X-0.725000X0*%
%TD*%
%TA.AperFunction,ComponentPad*%
%ADD53O,3.800000X5.500000*%
%TD*%
%TA.AperFunction,ComponentPad*%
%ADD54O,3.800000X5.300000*%
%TD*%
%TA.AperFunction,SMDPad,CuDef*%
%ADD55RoundRect,0.225000X-0.017678X0.335876X-0.335876X0.017678X0.017678X-0.335876X0.335876X-0.017678X0*%
%TD*%
%TA.AperFunction,SMDPad,CuDef*%
%ADD56R,0.700000X1.200000*%
%TD*%
%TA.AperFunction,SMDPad,CuDef*%
%ADD57R,1.000000X0.800000*%
%TD*%
%TA.AperFunction,SMDPad,CuDef*%
%ADD58R,1.000000X1.200000*%
%TD*%
%TA.AperFunction,SMDPad,CuDef*%
%ADD59R,1.000000X2.800000*%
%TD*%
%TA.AperFunction,SMDPad,CuDef*%
%ADD60R,1.300000X1.900000*%
%TD*%
%TA.AperFunction,SMDPad,CuDef*%
%ADD61RoundRect,0.225000X0.017678X-0.335876X0.335876X-0.017678X-0.017678X0.335876X-0.335876X0.017678X0*%
%TD*%
%TA.AperFunction,SMDPad,CuDef*%
%ADD62R,0.600000X1.450000*%
%TD*%
%TA.AperFunction,SMDPad,CuDef*%
%ADD63R,0.300000X1.450000*%
%TD*%
%TA.AperFunction,HeatsinkPad*%
%ADD64O,1.000000X2.100000*%
%TD*%
%TA.AperFunction,HeatsinkPad*%
%ADD65O,1.000000X1.600000*%
%TD*%
%TA.AperFunction,SMDPad,CuDef*%
%ADD66RoundRect,0.250000X0.475000X-0.250000X0.475000X0.250000X-0.475000X0.250000X-0.475000X-0.250000X0*%
%TD*%
%TA.AperFunction,SMDPad,CuDef*%
%ADD67RoundRect,0.225000X-0.225000X-0.375000X0.225000X-0.375000X0.225000X0.375000X-0.225000X0.375000X0*%
%TD*%
%TA.AperFunction,ComponentPad*%
%ADD68RoundRect,0.250000X0.600000X0.600000X-0.600000X0.600000X-0.600000X-0.600000X0.600000X-0.600000X0*%
%TD*%
%TA.AperFunction,SMDPad,CuDef*%
%ADD69RoundRect,0.250000X0.350000X-0.450000X0.350000X0.450000X-0.350000X0.450000X-0.350000X-0.450000X0*%
%TD*%
%TA.AperFunction,SMDPad,CuDef*%
%ADD70RoundRect,0.150000X0.587500X0.150000X-0.587500X0.150000X-0.587500X-0.150000X0.587500X-0.150000X0*%
%TD*%
%TA.AperFunction,SMDPad,CuDef*%
%ADD71RoundRect,0.225000X-0.335876X-0.017678X-0.017678X-0.335876X0.335876X0.017678X0.017678X0.335876X0*%
%TD*%
%TA.AperFunction,ComponentPad*%
%ADD72RoundRect,0.250000X-0.600000X0.600000X-0.600000X-0.600000X0.600000X-0.600000X0.600000X0.600000X0*%
%TD*%
%TA.AperFunction,ViaPad*%
%ADD73C,0.600000*%
%TD*%
%TA.AperFunction,ViaPad*%
%ADD74C,0.800000*%
%TD*%
%TA.AperFunction,Conductor*%
%ADD75C,0.250000*%
%TD*%
%TA.AperFunction,Conductor*%
%ADD76C,0.200000*%
%TD*%
%TA.AperFunction,Conductor*%
%ADD77C,1.500000*%
%TD*%
%TA.AperFunction,Conductor*%
%ADD78C,1.000000*%
%TD*%
%TA.AperFunction,Conductor*%
%ADD79C,1.300000*%
%TD*%
%TA.AperFunction,Conductor*%
%ADD80C,0.800000*%
%TD*%
G04 APERTURE END LIST*
D10*
%TO.P,C51,1*%
%TO.N,5V_PSU*%
X205850000Y-85000000D03*
%TO.P,C51,2*%
%TO.N,GND*%
X205850000Y-86900000D03*
%TD*%
D11*
%TO.P,R33,1*%
%TO.N,FAN1*%
X219700000Y-64312500D03*
%TO.P,R33,2*%
%TO.N,GND*%
X219700000Y-65962500D03*
%TD*%
D12*
%TO.P,Q7,1,G*%
%TO.N,Net-(Q7-G)*%
X207800000Y-102092500D03*
%TO.P,Q7,2,D*%
%TO.N,Net-(D15-A)*%
X207800000Y-104372500D03*
D13*
X214100000Y-104372500D03*
D12*
%TO.P,Q7,3,S*%
%TO.N,GND*%
X207800000Y-106652500D03*
%TD*%
D14*
%TO.P,C45,1*%
%TO.N,GND*%
X189275000Y-87900000D03*
%TO.P,C45,2*%
%TO.N,OSC_IN*%
X190825000Y-87900000D03*
%TD*%
D15*
%TO.P,C15,1*%
%TO.N,+3.3V*%
X170825000Y-94200000D03*
%TO.P,C15,2*%
%TO.N,GND*%
X169275000Y-94200000D03*
%TD*%
D16*
%TO.P,R10,1*%
%TO.N,Net-(Q1-G)*%
X209150000Y-92225000D03*
%TO.P,R10,2*%
%TO.N,GND*%
X209150000Y-90575000D03*
%TD*%
D17*
%TO.P,J2,1,VTref*%
%TO.N,+3.3V*%
X188975001Y-109914999D03*
%TO.P,J2,2,SWDIO/TMS*%
%TO.N,SWDIO*%
X185075001Y-109914999D03*
%TO.P,J2,3,GND*%
%TO.N,GND*%
X188975001Y-108644999D03*
%TO.P,J2,4,SWCLK/TCK*%
%TO.N,SWCLK*%
X185075001Y-108644999D03*
%TO.P,J2,5,GND*%
%TO.N,GND*%
X188975001Y-107374999D03*
%TO.P,J2,6,SWO/TDO*%
%TO.N,SWO*%
X185075001Y-107374999D03*
%TO.P,J2,7,KEY*%
%TO.N,unconnected-(J2-KEY-Pad7)*%
X188975001Y-106104999D03*
%TO.P,J2,8,NC/TDI*%
%TO.N,unconnected-(J2-NC{slash}TDI-Pad8)*%
X185075001Y-106104999D03*
%TO.P,J2,9,GNDDetect*%
%TO.N,GND*%
X188975001Y-104834999D03*
%TO.P,J2,10,~{RESET}*%
%TO.N,NRST*%
X185075001Y-104834999D03*
%TD*%
D18*
%TO.P,J19,1,Pin_1*%
%TO.N,SPI_MISO*%
X175027651Y-58321250D03*
D19*
%TO.P,J19,2,Pin_2*%
%TO.N,DRIVEY_CS*%
X177027651Y-58321250D03*
%TO.P,J19,3,Pin_3*%
%TO.N,SPI_SCK*%
X179027651Y-58321250D03*
%TO.P,J19,4,Pin_4*%
%TO.N,SPI_MOSI*%
X181027651Y-58321250D03*
%TD*%
D16*
%TO.P,R26,1*%
%TO.N,+3.3V*%
X220050000Y-43308750D03*
%TO.P,R26,2*%
%TO.N,DRIVEE_EN*%
X220050000Y-41658750D03*
%TD*%
D18*
%TO.P,J12,1,Pin_1*%
%TO.N,DRIVEY_SLP*%
X175052651Y-55966250D03*
D19*
%TO.P,J12,2,Pin_2*%
%TO.N,DRIVEY_MISO*%
X175052651Y-53966250D03*
%TO.P,J12,3,Pin_3*%
%TO.N,+3.3V*%
X177052651Y-55966250D03*
%TO.P,J12,4,Pin_4*%
%TO.N,DRIVEY_CS*%
X177052651Y-53966250D03*
%TO.P,J12,5,Pin_5*%
%TO.N,+3.3V*%
X179052651Y-55966250D03*
%TO.P,J12,6,Pin_6*%
%TO.N,DRIVEY_SCK*%
X179052651Y-53966250D03*
%TO.P,J12,7,Pin_7*%
%TO.N,+3.3V*%
X181052651Y-55966250D03*
%TO.P,J12,8,Pin_8*%
%TO.N,DRIVEY_MOSI*%
X181052651Y-53966250D03*
%TD*%
D20*
%TO.P,C19,1*%
%TO.N,+5V*%
X200300000Y-99250000D03*
%TO.P,C19,2*%
%TO.N,GND*%
X198400000Y-99250000D03*
%TD*%
D21*
%TO.P,J4,1,Pin_1*%
%TO.N,Net-(J4-Pin_1)*%
X166050000Y-26850000D03*
D22*
%TO.P,J4,2,Pin_2*%
%TO.N,Net-(J4-Pin_2)*%
X168550000Y-26850000D03*
%TO.P,J4,3,Pin_3*%
%TO.N,Net-(J4-Pin_3)*%
X171050000Y-26850000D03*
%TO.P,J4,4,Pin_4*%
%TO.N,Net-(J4-Pin_4)*%
X173550000Y-26850000D03*
%TD*%
D14*
%TO.P,C27,1*%
%TO.N,VIN*%
X167425000Y-34878750D03*
%TO.P,C27,2*%
%TO.N,GND*%
X168975000Y-34878750D03*
%TD*%
%TO.P,C7,1*%
%TO.N,+3.3V*%
X192975000Y-84925000D03*
%TO.P,C7,2*%
%TO.N,GND*%
X194525000Y-84925000D03*
%TD*%
D23*
%TO.P,H3,1,1*%
%TO.N,GND*%
X158450000Y-28050000D03*
D24*
X158450000Y-28050000D03*
%TD*%
D25*
%TO.P,SW2,1,1*%
%TO.N,NRST*%
X189275000Y-102225000D03*
X185175000Y-102225000D03*
%TO.P,SW2,2,2*%
%TO.N,GND*%
X189275000Y-100625000D03*
X185175000Y-100625000D03*
%TD*%
D26*
%TO.P,R49,1*%
%TO.N,VIN*%
X216725000Y-92500000D03*
%TO.P,R49,2*%
%TO.N,Net-(D14-A)*%
X218375000Y-92500000D03*
%TD*%
D11*
%TO.P,R2,1*%
%TO.N,+3.3V*%
X191275000Y-100600000D03*
%TO.P,R2,2*%
%TO.N,NRST*%
X191275000Y-102250000D03*
%TD*%
D27*
%TO.P,L3,1,1*%
%TO.N,Net-(U8-SW)*%
X200750000Y-80775000D03*
%TO.P,L3,2,2*%
%TO.N,5V_PSU*%
X200750000Y-85825000D03*
%TD*%
D23*
%TO.P,H4,1,1*%
%TO.N,GND*%
X158450000Y-108700000D03*
D24*
X158450000Y-108700000D03*
%TD*%
D28*
%TO.P,J11,1,Pin_1*%
%TO.N,DRIVEX_DIAG*%
X155450000Y-34328750D03*
D29*
%TO.P,J11,2,Pin_2*%
%TO.N,X_STOP*%
X157990000Y-34328750D03*
%TD*%
D30*
%TO.P,D10,1,K*%
%TO.N,Net-(D10-K)*%
X226250000Y-58112500D03*
%TO.P,D10,2,A*%
%TO.N,Net-(D10-A)*%
X226250000Y-56287500D03*
%TD*%
D16*
%TO.P,R25,1*%
%TO.N,+3.3V*%
X201250000Y-61725000D03*
%TO.P,R25,2*%
%TO.N,Z_STOP*%
X201250000Y-60075000D03*
%TD*%
D31*
%TO.P,C43,1*%
%TO.N,GND*%
X164500000Y-78450000D03*
%TO.P,C43,2*%
%TO.N,+5V*%
X164500000Y-76900000D03*
%TD*%
D26*
%TO.P,R40,1*%
%TO.N,FAN3*%
X221550000Y-49825000D03*
%TO.P,R40,2*%
%TO.N,Net-(Q4-G)*%
X223200000Y-49825000D03*
%TD*%
D14*
%TO.P,C40,1*%
%TO.N,VIN*%
X216225000Y-34818750D03*
%TO.P,C40,2*%
%TO.N,GND*%
X217775000Y-34818750D03*
%TD*%
D32*
%TO.P,R51,1*%
%TO.N,HEAT1*%
X223475000Y-99050000D03*
%TO.P,R51,2*%
%TO.N,Net-(Q5-G)*%
X221825000Y-99050000D03*
%TD*%
D33*
%TO.P,U2,1,GND*%
%TO.N,GND*%
X197450000Y-96800000D03*
%TO.P,U2,2,VO*%
%TO.N,+3.3V*%
X199750000Y-96800000D03*
D34*
X199750000Y-90500000D03*
D33*
%TO.P,U2,3,VI*%
%TO.N,+5V*%
X202050000Y-96800000D03*
%TD*%
D30*
%TO.P,D7,1,K*%
%TO.N,Net-(D7-K)*%
X226300000Y-65612500D03*
%TO.P,D7,2,A*%
%TO.N,Net-(D7-A)*%
X226300000Y-63787500D03*
%TD*%
D29*
%TO.P,U5,1,GND*%
%TO.N,GND*%
X184452651Y-55726250D03*
%TO.P,U5,2,VIO*%
%TO.N,+3.3V*%
X184452651Y-53186250D03*
%TO.P,U5,3,M1B*%
%TO.N,Net-(J18-Pin_3)*%
X184452651Y-50646250D03*
%TO.P,U5,4,M1A*%
%TO.N,Net-(J18-Pin_1)*%
X184452651Y-48106250D03*
%TO.P,U5,5,M2A*%
%TO.N,Net-(J18-Pin_2)*%
X184452651Y-45566250D03*
%TO.P,U5,6,M2B*%
%TO.N,Net-(J18-Pin_4)*%
X184452651Y-43026250D03*
%TO.P,U5,7,GND*%
%TO.N,GND*%
X184452651Y-40486250D03*
D28*
%TO.P,U5,8,VM*%
%TO.N,VIN*%
X184452651Y-37946250D03*
D29*
%TO.P,U5,9,DIR*%
%TO.N,DRIVEY_DIR*%
X171752651Y-55726250D03*
%TO.P,U5,10,STEP*%
%TO.N,DRIVEY_STEP*%
X171752651Y-53186250D03*
%TO.P,U5,11,PDN*%
%TO.N,DRIVEY_MISO*%
X171752651Y-50646250D03*
%TO.P,U5,12,UART*%
%TO.N,DRIVEY_SLP*%
X171752651Y-48106250D03*
%TO.P,U5,13,SPRD*%
%TO.N,DRIVEY_CS*%
X171752651Y-45566250D03*
%TO.P,U5,14,MS2*%
%TO.N,DRIVEY_SCK*%
X171752651Y-43026250D03*
%TO.P,U5,15,MS1*%
%TO.N,DRIVEY_MOSI*%
X171752651Y-40486250D03*
D28*
%TO.P,U5,16,~{EN}*%
%TO.N,DRIVEY_EN*%
X171752651Y-37946250D03*
D29*
%TO.P,U5,17,INDEX*%
%TO.N,unconnected-(U5-INDEX-Pad17)*%
X174292651Y-37946250D03*
%TO.P,U5,18,DIAG*%
%TO.N,DRIVEY_DIAG*%
X176832651Y-37946250D03*
%TD*%
D16*
%TO.P,R34,1*%
%TO.N,VIN*%
X228500000Y-65725000D03*
%TO.P,R34,2*%
%TO.N,Net-(D7-A)*%
X228500000Y-64075000D03*
%TD*%
D35*
%TO.P,D1,1,K*%
%TO.N,5V_USB*%
X202900000Y-99760000D03*
%TO.P,D1,2,A*%
%TO.N,Net-(D1-A)*%
X202900000Y-103060000D03*
%TD*%
D30*
%TO.P,R20,1*%
%TO.N,+3.3V*%
X187252651Y-62218750D03*
%TO.P,R20,2*%
%TO.N,DRIVEY_DIAG*%
X187252651Y-60393750D03*
%TD*%
D36*
%TO.P,J13,1,Pin_1*%
%TO.N,Net-(J13-Pin_1)*%
X233000000Y-36250000D03*
D37*
%TO.P,J13,2,Pin_2*%
%TO.N,GND*%
X233000000Y-38250000D03*
%TD*%
D38*
%TO.P,U1,1,PE2*%
%TO.N,DRIVEZ_STEP*%
X186175000Y-89950000D03*
%TO.P,U1,2,PE3*%
%TO.N,DRIVEZ_DIR*%
X186175000Y-89450000D03*
%TO.P,U1,3,PE4*%
%TO.N,Z_STOP*%
X186175000Y-88950000D03*
%TO.P,U1,4,PE5*%
%TO.N,X_STOP*%
X186175000Y-88450000D03*
%TO.P,U1,5,PE6*%
%TO.N,Y_STOP*%
X186175000Y-87950000D03*
%TO.P,U1,6,VBAT*%
%TO.N,unconnected-(U1-VBAT-Pad6)*%
X186175000Y-87450000D03*
%TO.P,U1,7,PC13*%
%TO.N,FAN1*%
X186175000Y-86950000D03*
%TO.P,U1,8,PC14*%
%TO.N,FAN2*%
X186175000Y-86450000D03*
%TO.P,U1,9,PC15*%
%TO.N,FAN3*%
X186175000Y-85950000D03*
%TO.P,U1,10,VSS*%
%TO.N,GND*%
X186175000Y-85450000D03*
%TO.P,U1,11,VDD*%
%TO.N,+3.3V*%
X186175000Y-84950000D03*
%TO.P,U1,12,PH0*%
%TO.N,OSC_IN*%
X186175000Y-84450000D03*
%TO.P,U1,13,PH1*%
%TO.N,OSC_OUT*%
X186175000Y-83950000D03*
%TO.P,U1,14,NRST*%
%TO.N,NRST*%
X186175000Y-83450000D03*
%TO.P,U1,15,PC0*%
%TO.N,THERMO1*%
X186175000Y-82950000D03*
%TO.P,U1,16,PC1*%
%TO.N,THERMO2*%
X186175000Y-82450000D03*
%TO.P,U1,17,PC2_C*%
%TO.N,THERMO3*%
X186175000Y-81950000D03*
%TO.P,U1,18,PC3_C*%
%TO.N,DRIVEY_DIR*%
X186175000Y-81450000D03*
%TO.P,U1,19,VSSA*%
%TO.N,GND*%
X186175000Y-80950000D03*
%TO.P,U1,20,VREF+*%
%TO.N,+3.3V*%
X186175000Y-80450000D03*
%TO.P,U1,21,VDDA*%
X186175000Y-79950000D03*
%TO.P,U1,22,PA0*%
%TO.N,DRIVEX_DIR*%
X186175000Y-79450000D03*
%TO.P,U1,23,PA1*%
%TO.N,DRIVEX_STEP*%
X186175000Y-78950000D03*
%TO.P,U1,24,PA2*%
%TO.N,DRIVEX_CS*%
X186175000Y-78450000D03*
%TO.P,U1,25,PA3*%
%TO.N,DRIVEX_EN*%
X186175000Y-77950000D03*
D39*
%TO.P,U1,26,VSS*%
%TO.N,GND*%
X184500000Y-76275000D03*
%TO.P,U1,27,VDD*%
%TO.N,+3.3V*%
X184000000Y-76275000D03*
%TO.P,U1,28,PA4*%
%TO.N,SD_CS*%
X183500000Y-76275000D03*
%TO.P,U1,29,PA5*%
%TO.N,SD_SCK*%
X183000000Y-76275000D03*
%TO.P,U1,30,PA6*%
%TO.N,SD_MISO*%
X182500000Y-76275000D03*
%TO.P,U1,31,PA7*%
%TO.N,SD_MOSI*%
X182000000Y-76275000D03*
%TO.P,U1,32,PC4*%
%TO.N,DRIVEY_STEP*%
X181500000Y-76275000D03*
%TO.P,U1,33,PC5*%
%TO.N,DRIVEY_CS*%
X181000000Y-76275000D03*
%TO.P,U1,34,PB0*%
%TO.N,unconnected-(U1-PB0-Pad34)*%
X180500000Y-76275000D03*
%TO.P,U1,35,PB1*%
%TO.N,unconnected-(U1-PB1-Pad35)*%
X180000000Y-76275000D03*
%TO.P,U1,36,PB2*%
%TO.N,unconnected-(U1-PB2-Pad36)*%
X179500000Y-76275000D03*
%TO.P,U1,37,PE7*%
%TO.N,E_STOP*%
X179000000Y-76275000D03*
%TO.P,U1,38,PE8*%
%TO.N,DRIVEE_EN*%
X178500000Y-76275000D03*
%TO.P,U1,39,PE9*%
%TO.N,DRIVEE_CS*%
X178000000Y-76275000D03*
%TO.P,U1,40,PE10*%
%TO.N,DRIVEE_STEP*%
X177500000Y-76275000D03*
%TO.P,U1,41,PE11*%
%TO.N,DRIVEE_DIR*%
X177000000Y-76275000D03*
%TO.P,U1,42,PE12*%
%TO.N,SPI_SCK*%
X176500000Y-76275000D03*
%TO.P,U1,43,PE13*%
%TO.N,SPI_MISO*%
X176000000Y-76275000D03*
%TO.P,U1,44,PE14*%
%TO.N,SPI_MOSI*%
X175500000Y-76275000D03*
%TO.P,U1,45,PE15*%
%TO.N,unconnected-(U1-PE15-Pad45)*%
X175000000Y-76275000D03*
%TO.P,U1,46,PB10*%
%TO.N,unconnected-(U1-PB10-Pad46)*%
X174500000Y-76275000D03*
%TO.P,U1,47,PB11*%
%TO.N,unconnected-(U1-PB11-Pad47)*%
X174000000Y-76275000D03*
%TO.P,U1,48,VCAP*%
%TO.N,Net-(C1-Pad2)*%
X173500000Y-76275000D03*
%TO.P,U1,49,VSS*%
%TO.N,GND*%
X173000000Y-76275000D03*
%TO.P,U1,50,VDD*%
%TO.N,+3.3V*%
X172500000Y-76275000D03*
D38*
%TO.P,U1,51,PB12*%
%TO.N,unconnected-(U1-PB12-Pad51)*%
X170825000Y-77950000D03*
%TO.P,U1,52,PB13*%
%TO.N,unconnected-(U1-PB13-Pad52)*%
X170825000Y-78450000D03*
%TO.P,U1,53,PB14*%
%TO.N,HEAT_BED*%
X170825000Y-78950000D03*
%TO.P,U1,54,PB15*%
%TO.N,HEAT1*%
X170825000Y-79450000D03*
%TO.P,U1,55,PD8*%
%TO.N,LCD_BTN*%
X170825000Y-79950000D03*
%TO.P,U1,56,PD9*%
%TO.N,LCD_EN*%
X170825000Y-80450000D03*
%TO.P,U1,57,PD10*%
%TO.N,LCD_CS*%
X170825000Y-80950000D03*
%TO.P,U1,58,PD11*%
%TO.N,LCD_D4*%
X170825000Y-81450000D03*
%TO.P,U1,59,PD12*%
%TO.N,LCD_D5*%
X170825000Y-81950000D03*
%TO.P,U1,60,PD13*%
%TO.N,LCD_D6*%
X170825000Y-82450000D03*
%TO.P,U1,61,PD14*%
%TO.N,LCD_D7*%
X170825000Y-82950000D03*
%TO.P,U1,62,PD15*%
%TO.N,SD_DET*%
X170825000Y-83450000D03*
%TO.P,U1,63,PC6*%
%TO.N,DRIVEY_EN*%
X170825000Y-83950000D03*
%TO.P,U1,64,PC7*%
%TO.N,unconnected-(U1-PC7-Pad64)*%
X170825000Y-84450000D03*
%TO.P,U1,65,PC8*%
%TO.N,SDMMC1_D0*%
X170825000Y-84950000D03*
%TO.P,U1,66,PC9*%
%TO.N,SDMMC1_D1*%
X170825000Y-85450000D03*
%TO.P,U1,67,PA8*%
%TO.N,unconnected-(U1-PA8-Pad67)*%
X170825000Y-85950000D03*
%TO.P,U1,68,PA9*%
%TO.N,unconnected-(U1-PA9-Pad68)*%
X170825000Y-86450000D03*
%TO.P,U1,69,PA10*%
%TO.N,unconnected-(U1-PA10-Pad69)*%
X170825000Y-86950000D03*
%TO.P,U1,70,PA11*%
%TO.N,USB_DM*%
X170825000Y-87450000D03*
%TO.P,U1,71,PA12*%
%TO.N,USB_DP*%
X170825000Y-87950000D03*
%TO.P,U1,72,PA13*%
%TO.N,SWDIO*%
X170825000Y-88450000D03*
%TO.P,U1,73,VCAP*%
%TO.N,Net-(C2-Pad2)*%
X170825000Y-88950000D03*
%TO.P,U1,74,VSS*%
%TO.N,GND*%
X170825000Y-89450000D03*
%TO.P,U1,75,VDD*%
%TO.N,+3.3V*%
X170825000Y-89950000D03*
D39*
%TO.P,U1,76,PA14*%
%TO.N,SWCLK*%
X172500000Y-91625000D03*
%TO.P,U1,77,PA15*%
%TO.N,unconnected-(U1-PA15-Pad77)*%
X173000000Y-91625000D03*
%TO.P,U1,78,PC10*%
%TO.N,SDMMC1_D2*%
X173500000Y-91625000D03*
%TO.P,U1,79,PC11*%
%TO.N,SDMMC1_D3*%
X174000000Y-91625000D03*
%TO.P,U1,80,PC12*%
%TO.N,SDMMC1_CK*%
X174500000Y-91625000D03*
%TO.P,U1,81,PD0*%
%TO.N,unconnected-(U1-PD0-Pad81)*%
X175000000Y-91625000D03*
%TO.P,U1,82,PD1*%
%TO.N,unconnected-(U1-PD1-Pad82)*%
X175500000Y-91625000D03*
%TO.P,U1,83,PD2*%
%TO.N,SDMMC1_CMD*%
X176000000Y-91625000D03*
%TO.P,U1,84,PD3*%
%TO.N,LCD_ENCA*%
X176500000Y-91625000D03*
%TO.P,U1,85,PD4*%
%TO.N,LCD_ENCB*%
X177000000Y-91625000D03*
%TO.P,U1,86,PD5*%
%TO.N,TFT_TX*%
X177500000Y-91625000D03*
%TO.P,U1,87,PD6*%
%TO.N,TFT_RX*%
X178000000Y-91625000D03*
%TO.P,U1,88,PD7*%
%TO.N,LCD_BEEP*%
X178500000Y-91625000D03*
%TO.P,U1,89,PB3*%
%TO.N,SWO*%
X179000000Y-91625000D03*
%TO.P,U1,90,PB4*%
%TO.N,unconnected-(U1-PB4-Pad90)*%
X179500000Y-91625000D03*
%TO.P,U1,91,PB5*%
%TO.N,unconnected-(U1-PB5-Pad91)*%
X180000000Y-91625000D03*
%TO.P,U1,92,PB6*%
%TO.N,SERVO*%
X180500000Y-91625000D03*
%TO.P,U1,93,PB7*%
%TO.N,PROBE_TRIG*%
X181000000Y-91625000D03*
%TO.P,U1,94,BOOT0*%
%TO.N,BOOT*%
X181500000Y-91625000D03*
%TO.P,U1,95,PB8*%
%TO.N,unconnected-(U1-PB8-Pad95)*%
X182000000Y-91625000D03*
%TO.P,U1,96,PB9*%
%TO.N,unconnected-(U1-PB9-Pad96)*%
X182500000Y-91625000D03*
%TO.P,U1,97,PE0*%
%TO.N,DRIVEZ_EN*%
X183000000Y-91625000D03*
%TO.P,U1,98,PE1*%
%TO.N,DRIVEZ_CS*%
X183500000Y-91625000D03*
%TO.P,U1,99,VSS*%
%TO.N,GND*%
X184000000Y-91625000D03*
%TO.P,U1,100,VDD*%
%TO.N,+3.3V*%
X184500000Y-91625000D03*
%TD*%
D11*
%TO.P,R7,1*%
%TO.N,+3.3V*%
X164650000Y-92625000D03*
%TO.P,R7,2*%
%TO.N,SDMMC1_D1*%
X164650000Y-94275000D03*
%TD*%
D30*
%TO.P,R27,1*%
%TO.N,+3.3V*%
X220250000Y-39721250D03*
%TO.P,R27,2*%
%TO.N,DRIVEE_DIAG*%
X220250000Y-37896250D03*
%TD*%
D16*
%TO.P,R18,1*%
%TO.N,+3.3V*%
X169100000Y-62233750D03*
%TO.P,R18,2*%
%TO.N,X_STOP*%
X169100000Y-60583750D03*
%TD*%
D30*
%TO.P,R22,1*%
%TO.N,+3.3V*%
X171100000Y-62125000D03*
%TO.P,R22,2*%
%TO.N,DRIVEX_DIAG*%
X171100000Y-60300000D03*
%TD*%
D21*
%TO.P,J28,1,Pin_1*%
%TO.N,Net-(J28-Pin_1)*%
X206375000Y-26850000D03*
D22*
%TO.P,J28,2,Pin_2*%
%TO.N,Net-(J28-Pin_2)*%
X208875000Y-26850000D03*
%TO.P,J28,3,Pin_3*%
%TO.N,Net-(J28-Pin_3)*%
X211375000Y-26850000D03*
%TO.P,J28,4,Pin_4*%
%TO.N,Net-(J28-Pin_4)*%
X213875000Y-26850000D03*
%TD*%
D25*
%TO.P,SW1,1,1*%
%TO.N,BOOT*%
X185175000Y-96200000D03*
X189275000Y-96200000D03*
%TO.P,SW1,2,2*%
%TO.N,+3.3V*%
X185175000Y-97800000D03*
X189275000Y-97800000D03*
%TD*%
D32*
%TO.P,R3,1*%
%TO.N,+3.3V*%
X173875000Y-94200000D03*
%TO.P,R3,2*%
%TO.N,SDMMC1_D2*%
X172225000Y-94200000D03*
%TD*%
D23*
%TO.P,H2,1,1*%
%TO.N,GND*%
X220900000Y-108700000D03*
D24*
X220900000Y-108700000D03*
%TD*%
D32*
%TO.P,R47,1*%
%TO.N,Net-(J17-Pin_5)*%
X222200000Y-70325000D03*
%TO.P,R47,2*%
%TO.N,NRST*%
X220550000Y-70325000D03*
%TD*%
D28*
%TO.P,J30,1,Pin_1*%
%TO.N,DRIVEE_DIAG*%
X204325000Y-34268750D03*
D29*
%TO.P,J30,2,Pin_2*%
%TO.N,E_STOP*%
X206865000Y-34268750D03*
%TD*%
D40*
%TO.P,Q3,1,D*%
%TO.N,Net-(D10-K)*%
X223050000Y-61187500D03*
%TO.P,Q3,2,G*%
%TO.N,Net-(Q3-G)*%
X223050000Y-59287500D03*
%TO.P,Q3,3,S*%
%TO.N,GND*%
X220775000Y-60237500D03*
%TD*%
D41*
%TO.P,C6,1*%
%TO.N,+3.3V*%
X171098008Y-75198008D03*
%TO.P,C6,2*%
%TO.N,GND*%
X170001992Y-74101992D03*
%TD*%
D30*
%TO.P,R24,1*%
%TO.N,+3.3V*%
X203250000Y-61618750D03*
%TO.P,R24,2*%
%TO.N,DRIVEZ_DIAG*%
X203250000Y-59793750D03*
%TD*%
D14*
%TO.P,C32,1*%
%TO.N,VIN*%
X183677651Y-34906250D03*
%TO.P,C32,2*%
%TO.N,GND*%
X185227651Y-34906250D03*
%TD*%
D42*
%TO.P,C18,1*%
%TO.N,+3.3V*%
X204500000Y-90200000D03*
%TO.P,C18,2*%
%TO.N,GND*%
X206400000Y-90200000D03*
%TD*%
D43*
%TO.P,U8,1,FB*%
%TO.N,5V_PSU*%
X205550000Y-83225000D03*
%TO.P,U8,2,EN*%
%TO.N,VIN*%
X206500000Y-83225000D03*
%TO.P,U8,3,IN*%
X207450000Y-83225000D03*
%TO.P,U8,4,GND*%
%TO.N,GND*%
X207450000Y-80950000D03*
%TO.P,U8,5,SW*%
%TO.N,Net-(U8-SW)*%
X206500000Y-80950000D03*
%TO.P,U8,6,BST*%
%TO.N,Net-(U8-BST)*%
X205550000Y-80950000D03*
%TD*%
D44*
%TO.P,J36,1,Pin_1*%
%TO.N,VIN*%
X230100000Y-109685000D03*
D45*
%TO.P,J36,2,Pin_2*%
%TO.N,Net-(D15-A)*%
X230100000Y-104605000D03*
%TD*%
D46*
%TO.P,C46,1*%
%TO.N,Net-(J13-Pin_1)*%
X227950000Y-36375000D03*
%TO.P,C46,2*%
%TO.N,GND*%
X227950000Y-37925000D03*
%TD*%
D16*
%TO.P,R21,1*%
%TO.N,+3.3V*%
X185250000Y-62325000D03*
%TO.P,R21,2*%
%TO.N,Y_STOP*%
X185250000Y-60675000D03*
%TD*%
D32*
%TO.P,R4,1*%
%TO.N,+3.3V*%
X176875000Y-94200000D03*
%TO.P,R4,2*%
%TO.N,SDMMC1_D3*%
X175225000Y-94200000D03*
%TD*%
D47*
%TO.P,D2,1,K*%
%TO.N,VIN*%
X216477500Y-88655000D03*
%TO.P,D2,2,A*%
%TO.N,GND*%
X212477500Y-88655000D03*
%TD*%
D20*
%TO.P,C16,1*%
%TO.N,+3.3V*%
X162300000Y-96550000D03*
%TO.P,C16,2*%
%TO.N,GND*%
X160400000Y-96550000D03*
%TD*%
D16*
%TO.P,R16,1*%
%TO.N,+3.3V*%
X172800000Y-62225000D03*
%TO.P,R16,2*%
%TO.N,DRIVEX_EN*%
X172800000Y-60575000D03*
%TD*%
D48*
%TO.P,C39,1*%
%TO.N,VIN*%
X212202651Y-46175000D03*
D49*
%TO.P,C39,2*%
%TO.N,GND*%
X208702651Y-46175000D03*
%TD*%
D11*
%TO.P,R1,1*%
%TO.N,BOOT*%
X183175000Y-96225000D03*
%TO.P,R1,2*%
%TO.N,GND*%
X183175000Y-97875000D03*
%TD*%
D14*
%TO.P,C28,1*%
%TO.N,+5V*%
X227175000Y-70225000D03*
%TO.P,C28,2*%
%TO.N,GND*%
X228725000Y-70225000D03*
%TD*%
D11*
%TO.P,R39,1*%
%TO.N,FAN3*%
X219650000Y-49925000D03*
%TO.P,R39,2*%
%TO.N,GND*%
X219650000Y-51575000D03*
%TD*%
D36*
%TO.P,J14,1,Pin_1*%
%TO.N,Net-(J14-Pin_1)*%
X233000000Y-28850000D03*
D37*
%TO.P,J14,2,Pin_2*%
%TO.N,GND*%
X233000000Y-30850000D03*
%TD*%
D50*
%TO.P,D13,1,K*%
%TO.N,VIN*%
X223025000Y-97350000D03*
%TO.P,D13,2,A*%
%TO.N,Net-(D13-A)*%
X223025000Y-94050000D03*
%TD*%
D32*
%TO.P,R45,1*%
%TO.N,Net-(J14-Pin_1)*%
X228025000Y-32600000D03*
%TO.P,R45,2*%
%TO.N,THERMO3*%
X226375000Y-32600000D03*
%TD*%
D29*
%TO.P,U7,1,GND*%
%TO.N,GND*%
X217025000Y-55655000D03*
%TO.P,U7,2,VIO*%
%TO.N,+3.3V*%
X217025000Y-53115000D03*
%TO.P,U7,3,M1B*%
%TO.N,Net-(J28-Pin_3)*%
X217025000Y-50575000D03*
%TO.P,U7,4,M1A*%
%TO.N,Net-(J28-Pin_1)*%
X217025000Y-48035000D03*
%TO.P,U7,5,M2A*%
%TO.N,Net-(J28-Pin_2)*%
X217025000Y-45495000D03*
%TO.P,U7,6,M2B*%
%TO.N,Net-(J28-Pin_4)*%
X217025000Y-42955000D03*
%TO.P,U7,7,GND*%
%TO.N,GND*%
X217025000Y-40415000D03*
D28*
%TO.P,U7,8,VM*%
%TO.N,VIN*%
X217025000Y-37875000D03*
D29*
%TO.P,U7,9,DIR*%
%TO.N,DRIVEE_DIR*%
X204325000Y-55655000D03*
%TO.P,U7,10,STEP*%
%TO.N,DRIVEE_STEP*%
X204325000Y-53115000D03*
%TO.P,U7,11,PDN*%
%TO.N,DRIVEE_MISO*%
X204325000Y-50575000D03*
%TO.P,U7,12,UART*%
%TO.N,DRIVEE_SLP*%
X204325000Y-48035000D03*
%TO.P,U7,13,SPRD*%
%TO.N,DRIVEE_CS*%
X204325000Y-45495000D03*
%TO.P,U7,14,MS2*%
%TO.N,DRIVEE_SCK*%
X204325000Y-42955000D03*
%TO.P,U7,15,MS1*%
%TO.N,DRIVEE_MOSI*%
X204325000Y-40415000D03*
D28*
%TO.P,U7,16,~{EN}*%
%TO.N,DRIVEE_EN*%
X204325000Y-37875000D03*
D29*
%TO.P,U7,17,INDEX*%
%TO.N,unconnected-(U7-INDEX-Pad17)*%
X206865000Y-37875000D03*
%TO.P,U7,18,DIAG*%
%TO.N,DRIVEE_DIAG*%
X209405000Y-37875000D03*
%TD*%
D51*
%TO.P,D16,1,K*%
%TO.N,Net-(D15-A)*%
X214162500Y-109175000D03*
%TO.P,D16,2,A*%
%TO.N,Net-(D16-A)*%
X215987500Y-109175000D03*
%TD*%
D18*
%TO.P,J27,1,Pin_1*%
%TO.N,DRIVEE_SLP*%
X207650000Y-55908750D03*
D19*
%TO.P,J27,2,Pin_2*%
%TO.N,DRIVEE_MISO*%
X207650000Y-53908750D03*
%TO.P,J27,3,Pin_3*%
%TO.N,+3.3V*%
X209650000Y-55908750D03*
%TO.P,J27,4,Pin_4*%
%TO.N,DRIVEE_CS*%
X209650000Y-53908750D03*
%TO.P,J27,5,Pin_5*%
%TO.N,+3.3V*%
X211650000Y-55908750D03*
%TO.P,J27,6,Pin_6*%
%TO.N,DRIVEE_SCK*%
X211650000Y-53908750D03*
%TO.P,J27,7,Pin_7*%
%TO.N,+3.3V*%
X213650000Y-55908750D03*
%TO.P,J27,8,Pin_8*%
%TO.N,DRIVEE_MOSI*%
X213650000Y-53908750D03*
%TD*%
D18*
%TO.P,J22,1,Pin_1*%
%TO.N,DRIVEZ_SLP*%
X191350000Y-55906250D03*
D19*
%TO.P,J22,2,Pin_2*%
%TO.N,DRIVEZ_MISO*%
X191350000Y-53906250D03*
%TO.P,J22,3,Pin_3*%
%TO.N,+3.3V*%
X193350000Y-55906250D03*
%TO.P,J22,4,Pin_4*%
%TO.N,DRIVEZ_CS*%
X193350000Y-53906250D03*
%TO.P,J22,5,Pin_5*%
%TO.N,+3.3V*%
X195350000Y-55906250D03*
%TO.P,J22,6,Pin_6*%
%TO.N,DRIVEZ_SCK*%
X195350000Y-53906250D03*
%TO.P,J22,7,Pin_7*%
%TO.N,+3.3V*%
X197350000Y-55906250D03*
%TO.P,J22,8,Pin_8*%
%TO.N,DRIVEZ_MOSI*%
X197350000Y-53906250D03*
%TD*%
D28*
%TO.P,J20,1,Pin_1*%
%TO.N,DRIVEY_DIAG*%
X171727651Y-34356250D03*
D29*
%TO.P,J20,2,Pin_2*%
%TO.N,Y_STOP*%
X174267651Y-34356250D03*
%TD*%
D52*
%TO.P,J26,1,Pin_1*%
%TO.N,GND*%
X205125000Y-67025000D03*
D22*
%TO.P,J26,2,Pin_2*%
%TO.N,+5V*%
X202625000Y-67025000D03*
%TO.P,J26,3,Pin_3*%
%TO.N,Z_STOP*%
X200125000Y-67025000D03*
%TD*%
D16*
%TO.P,R30,1*%
%TO.N,+3.3V*%
X164500000Y-75325000D03*
%TO.P,R30,2*%
%TO.N,LCD_ENCB*%
X164500000Y-73675000D03*
%TD*%
D52*
%TO.P,J17,1,Pin_1*%
%TO.N,GND*%
X232250000Y-75275000D03*
D22*
%TO.P,J17,2,Pin_2*%
%TO.N,+5V*%
X229750000Y-75275000D03*
%TO.P,J17,3,Pin_3*%
%TO.N,TFT_TX*%
X227250000Y-75275000D03*
%TO.P,J17,4,Pin_4*%
%TO.N,TFT_RX*%
X224750000Y-75275000D03*
%TO.P,J17,5,Pin_5*%
%TO.N,Net-(J17-Pin_5)*%
X222250000Y-75275000D03*
%TD*%
D32*
%TO.P,R28,1*%
%TO.N,+3.3V*%
X209650000Y-61808750D03*
%TO.P,R28,2*%
%TO.N,E_STOP*%
X208000000Y-61808750D03*
%TD*%
D16*
%TO.P,R29,1*%
%TO.N,+3.3V*%
X166310000Y-75375000D03*
%TO.P,R29,2*%
%TO.N,LCD_ENCA*%
X166310000Y-73725000D03*
%TD*%
%TO.P,R35,1*%
%TO.N,VIN*%
X228450000Y-58250000D03*
%TO.P,R35,2*%
%TO.N,Net-(D10-A)*%
X228450000Y-56600000D03*
%TD*%
D15*
%TO.P,C49,1*%
%TO.N,+5V*%
X215205000Y-71350000D03*
%TO.P,C49,2*%
%TO.N,GND*%
X213655000Y-71350000D03*
%TD*%
D10*
%TO.P,C50,1*%
%TO.N,5V_PSU*%
X208050000Y-85000000D03*
%TO.P,C50,2*%
%TO.N,GND*%
X208050000Y-86900000D03*
%TD*%
D26*
%TO.P,R6,1*%
%TO.N,+3.3V*%
X166175000Y-94200000D03*
%TO.P,R6,2*%
%TO.N,SDMMC1_D0*%
X167825000Y-94200000D03*
%TD*%
D29*
%TO.P,U4,1,GND*%
%TO.N,GND*%
X168200000Y-55718750D03*
%TO.P,U4,2,VIO*%
%TO.N,+3.3V*%
X168200000Y-53178750D03*
%TO.P,U4,3,M1B*%
%TO.N,Net-(J4-Pin_3)*%
X168200000Y-50638750D03*
%TO.P,U4,4,M1A*%
%TO.N,Net-(J4-Pin_1)*%
X168200000Y-48098750D03*
%TO.P,U4,5,M2A*%
%TO.N,Net-(J4-Pin_2)*%
X168200000Y-45558750D03*
%TO.P,U4,6,M2B*%
%TO.N,Net-(J4-Pin_4)*%
X168200000Y-43018750D03*
%TO.P,U4,7,GND*%
%TO.N,GND*%
X168200000Y-40478750D03*
D28*
%TO.P,U4,8,VM*%
%TO.N,VIN*%
X168200000Y-37938750D03*
D29*
%TO.P,U4,9,DIR*%
%TO.N,DRIVEX_DIR*%
X155500000Y-55718750D03*
%TO.P,U4,10,STEP*%
%TO.N,DRIVEX_STEP*%
X155500000Y-53178750D03*
%TO.P,U4,11,PDN*%
%TO.N,DRIVEX_MISO*%
X155500000Y-50638750D03*
%TO.P,U4,12,UART*%
%TO.N,DRIVEX_SLP*%
X155500000Y-48098750D03*
%TO.P,U4,13,SPRD*%
%TO.N,DRIVEX_CS*%
X155500000Y-45558750D03*
%TO.P,U4,14,MS2*%
%TO.N,DRIVEX_SCK*%
X155500000Y-43018750D03*
%TO.P,U4,15,MS1*%
%TO.N,DRIVEX_MOSI*%
X155500000Y-40478750D03*
D28*
%TO.P,U4,16,~{EN}*%
%TO.N,DRIVEX_EN*%
X155500000Y-37938750D03*
D29*
%TO.P,U4,17,INDEX*%
%TO.N,unconnected-(U4-INDEX-Pad17)*%
X158040000Y-37938750D03*
%TO.P,U4,18,DIAG*%
%TO.N,DRIVEX_DIAG*%
X160580000Y-37938750D03*
%TD*%
D28*
%TO.P,J16,1,Pin_1*%
%TO.N,PROBE_TRIG*%
X204425000Y-74350000D03*
D29*
%TO.P,J16,2,Pin_2*%
%TO.N,GND*%
X206965000Y-74350000D03*
%TD*%
D52*
%TO.P,J7,1,Pin_1*%
%TO.N,GND*%
X183300000Y-67025000D03*
D22*
%TO.P,J7,2,Pin_2*%
%TO.N,+5V*%
X180800000Y-67025000D03*
%TO.P,J7,3,Pin_3*%
%TO.N,X_STOP*%
X178300000Y-67025000D03*
%TD*%
D16*
%TO.P,R48,1*%
%TO.N,Net-(J3-CC2)*%
X200500000Y-103085000D03*
%TO.P,R48,2*%
%TO.N,GND*%
X200500000Y-101435000D03*
%TD*%
D11*
%TO.P,R36,1*%
%TO.N,FAN2*%
X219612500Y-56862500D03*
%TO.P,R36,2*%
%TO.N,GND*%
X219612500Y-58512500D03*
%TD*%
D16*
%TO.P,R8,1*%
%TO.N,Net-(J3-CC1)*%
X198500000Y-103085000D03*
%TO.P,R8,2*%
%TO.N,GND*%
X198500000Y-101435000D03*
%TD*%
D53*
%TO.P,F1,1*%
%TO.N,Net-(J37-Pin_2)*%
X221525000Y-81175000D03*
D54*
%TO.P,F1,2*%
%TO.N,VIN*%
X221525000Y-89175000D03*
%TD*%
D55*
%TO.P,C8,1*%
%TO.N,+3.3V*%
X168798008Y-91301992D03*
%TO.P,C8,2*%
%TO.N,GND*%
X167701992Y-92398008D03*
%TD*%
D56*
%TO.P,J1,1,DAT2*%
%TO.N,SDMMC1_D2*%
X173645000Y-96125000D03*
%TO.P,J1,2,DAT3/CD*%
%TO.N,SDMMC1_D3*%
X172545000Y-96125000D03*
%TO.P,J1,3,CMD*%
%TO.N,SDMMC1_CMD*%
X171445000Y-96125000D03*
%TO.P,J1,4,VDD*%
%TO.N,+3.3V*%
X170345000Y-96125000D03*
%TO.P,J1,5,CLK*%
%TO.N,SDMMC1_CK*%
X169245000Y-96125000D03*
%TO.P,J1,6,VSS*%
%TO.N,GND*%
X168145000Y-96125000D03*
%TO.P,J1,7,DAT0*%
%TO.N,SDMMC1_D0*%
X167045000Y-96125000D03*
%TO.P,J1,8,DAT1*%
%TO.N,SDMMC1_D1*%
X165945000Y-96125000D03*
%TO.P,J1,9,SHIELD*%
%TO.N,GND*%
X164995000Y-96125000D03*
D57*
%TO.P,J1,10*%
%TO.N,N/C*%
X164045000Y-106625000D03*
D58*
%TO.P,J1,11*%
X164045000Y-100425000D03*
D59*
X164045000Y-110775000D03*
D58*
X175195000Y-96125000D03*
D60*
X177545000Y-111225000D03*
%TD*%
D15*
%TO.P,C29,1*%
%TO.N,+3.3V*%
X168575000Y-58228750D03*
%TO.P,C29,2*%
%TO.N,GND*%
X167025000Y-58228750D03*
%TD*%
D26*
%TO.P,R44,1*%
%TO.N,+3.3V*%
X226375000Y-27100000D03*
%TO.P,R44,2*%
%TO.N,Net-(J14-Pin_1)*%
X228025000Y-27100000D03*
%TD*%
%TO.P,R42,1*%
%TO.N,+3.3V*%
X224600000Y-36150000D03*
%TO.P,R42,2*%
%TO.N,Net-(J13-Pin_1)*%
X226250000Y-36150000D03*
%TD*%
D16*
%TO.P,R38,1*%
%TO.N,VIN*%
X228450000Y-50825000D03*
%TO.P,R38,2*%
%TO.N,Net-(D12-A)*%
X228450000Y-49175000D03*
%TD*%
D61*
%TO.P,C3,1*%
%TO.N,+3.3V*%
X185801992Y-74048008D03*
%TO.P,C3,2*%
%TO.N,GND*%
X186898008Y-72951992D03*
%TD*%
D36*
%TO.P,J33,1,Pin_1*%
%TO.N,VIN*%
X233000000Y-58450000D03*
D37*
%TO.P,J33,2,Pin_2*%
%TO.N,Net-(D10-K)*%
X233000000Y-60450000D03*
%TD*%
D26*
%TO.P,R37,1*%
%TO.N,FAN2*%
X221537500Y-57287500D03*
%TO.P,R37,2*%
%TO.N,Net-(Q3-G)*%
X223187500Y-57287500D03*
%TD*%
D18*
%TO.P,J29,1,Pin_1*%
%TO.N,SPI_MISO*%
X207650000Y-58302500D03*
D19*
%TO.P,J29,2,Pin_2*%
%TO.N,DRIVEE_CS*%
X209650000Y-58302500D03*
%TO.P,J29,3,Pin_3*%
%TO.N,SPI_SCK*%
X211650000Y-58302500D03*
%TO.P,J29,4,Pin_4*%
%TO.N,SPI_MOSI*%
X213650000Y-58302500D03*
%TD*%
D11*
%TO.P,R31,1*%
%TO.N,+3.3V*%
X166250000Y-77475000D03*
%TO.P,R31,2*%
%TO.N,LCD_BTN*%
X166250000Y-79125000D03*
%TD*%
D28*
%TO.P,J15,1,Pin_1*%
%TO.N,SERVO*%
X210550000Y-74350000D03*
D29*
%TO.P,J15,2,Pin_2*%
%TO.N,GND*%
X213090000Y-74350000D03*
%TO.P,J15,3,Pin_3*%
%TO.N,+5V*%
X215630000Y-74350000D03*
%TD*%
D40*
%TO.P,Q4,1,D*%
%TO.N,Net-(D11-A)*%
X223087500Y-53737500D03*
%TO.P,Q4,2,G*%
%TO.N,Net-(Q4-G)*%
X223087500Y-51837500D03*
%TO.P,Q4,3,S*%
%TO.N,GND*%
X220812500Y-52787500D03*
%TD*%
D32*
%TO.P,R46,1*%
%TO.N,+3.3V*%
X206065000Y-71350000D03*
%TO.P,R46,2*%
%TO.N,PROBE_TRIG*%
X204415000Y-71350000D03*
%TD*%
D14*
%TO.P,C36,1*%
%TO.N,VIN*%
X199975000Y-34806250D03*
%TO.P,C36,2*%
%TO.N,GND*%
X201525000Y-34806250D03*
%TD*%
D62*
%TO.P,J3,A1,GND*%
%TO.N,GND*%
X197550000Y-105465000D03*
%TO.P,J3,A4,VBUS*%
%TO.N,Net-(D1-A)*%
X198350000Y-105465000D03*
D63*
%TO.P,J3,A5,CC1*%
%TO.N,Net-(J3-CC1)*%
X199550000Y-105465000D03*
%TO.P,J3,A6,D+*%
%TO.N,USB_DP*%
X200550000Y-105465000D03*
%TO.P,J3,A7,D-*%
%TO.N,USB_DM*%
X201050000Y-105465000D03*
%TO.P,J3,A8*%
%TO.N,N/C*%
X202050000Y-105465000D03*
D62*
%TO.P,J3,A9,VBUS*%
%TO.N,Net-(D1-A)*%
X203250000Y-105465000D03*
%TO.P,J3,A12,GND*%
%TO.N,GND*%
X204050000Y-105465000D03*
%TO.P,J3,B1,GND*%
X204050000Y-105465000D03*
%TO.P,J3,B4,VBUS*%
%TO.N,Net-(D1-A)*%
X203250000Y-105465000D03*
D63*
%TO.P,J3,B5,CC2*%
%TO.N,Net-(J3-CC2)*%
X202550000Y-105465000D03*
%TO.P,J3,B6,D+*%
%TO.N,USB_DP*%
X201550000Y-105465000D03*
%TO.P,J3,B7,D-*%
%TO.N,USB_DM*%
X200050000Y-105465000D03*
%TO.P,J3,B8*%
%TO.N,N/C*%
X199050000Y-105465000D03*
D62*
%TO.P,J3,B9,VBUS*%
%TO.N,Net-(D1-A)*%
X198350000Y-105465000D03*
%TO.P,J3,B12,GND*%
%TO.N,GND*%
X197550000Y-105465000D03*
D64*
%TO.P,J3,S1,SHIELD*%
X196480000Y-106380000D03*
D65*
X196480000Y-110560000D03*
D64*
X205120000Y-106380000D03*
D65*
X205120000Y-110560000D03*
%TD*%
D50*
%TO.P,D15,1,K*%
%TO.N,VIN*%
X223175000Y-104550000D03*
%TO.P,D15,2,A*%
%TO.N,Net-(D15-A)*%
X223175000Y-101250000D03*
%TD*%
D31*
%TO.P,C10,1*%
%TO.N,NRST*%
X183175000Y-102200000D03*
%TO.P,C10,2*%
%TO.N,GND*%
X183175000Y-100650000D03*
%TD*%
D46*
%TO.P,C52,1*%
%TO.N,Net-(U8-SW)*%
X208800000Y-78075000D03*
%TO.P,C52,2*%
%TO.N,Net-(U8-BST)*%
X208800000Y-79625000D03*
%TD*%
D15*
%TO.P,C37,1*%
%TO.N,+3.3V*%
X201100000Y-58168750D03*
%TO.P,C37,2*%
%TO.N,GND*%
X199550000Y-58168750D03*
%TD*%
D44*
%TO.P,J37,1,Pin_1*%
%TO.N,GND*%
X230100000Y-87300000D03*
D45*
%TO.P,J37,2,Pin_2*%
%TO.N,Net-(J37-Pin_2)*%
X230100000Y-82220000D03*
%TD*%
D32*
%TO.P,R5,1*%
%TO.N,+3.3V*%
X179900000Y-94200000D03*
%TO.P,R5,2*%
%TO.N,SDMMC1_CMD*%
X178250000Y-94200000D03*
%TD*%
D15*
%TO.P,C33,1*%
%TO.N,+3.3V*%
X184852651Y-58243750D03*
%TO.P,C33,2*%
%TO.N,GND*%
X183302651Y-58243750D03*
%TD*%
D18*
%TO.P,J24,1,Pin_1*%
%TO.N,SPI_MISO*%
X191350000Y-58296250D03*
D19*
%TO.P,J24,2,Pin_2*%
%TO.N,DRIVEZ_CS*%
X193350000Y-58296250D03*
%TO.P,J24,3,Pin_3*%
%TO.N,SPI_SCK*%
X195350000Y-58296250D03*
%TO.P,J24,4,Pin_4*%
%TO.N,SPI_MOSI*%
X197350000Y-58296250D03*
%TD*%
D12*
%TO.P,Q5,1,G*%
%TO.N,Net-(Q5-G)*%
X209475000Y-94770000D03*
%TO.P,Q5,2,D*%
%TO.N,Net-(D13-A)*%
X209475000Y-97050000D03*
D13*
X215775000Y-97050000D03*
D12*
%TO.P,Q5,3,S*%
%TO.N,GND*%
X209475000Y-99330000D03*
%TD*%
D26*
%TO.P,R32,1*%
%TO.N,FAN1*%
X221625000Y-64737500D03*
%TO.P,R32,2*%
%TO.N,Net-(Q2-G)*%
X223275000Y-64737500D03*
%TD*%
%TO.P,R52,1*%
%TO.N,VIN*%
X214450000Y-111375000D03*
%TO.P,R52,2*%
%TO.N,Net-(D16-A)*%
X216100000Y-111375000D03*
%TD*%
D36*
%TO.P,J6,1,Pin_1*%
%TO.N,Net-(J6-Pin_1)*%
X233000000Y-43650000D03*
D37*
%TO.P,J6,2,Pin_2*%
%TO.N,GND*%
X233000000Y-45650000D03*
%TD*%
D18*
%TO.P,J8,1,Pin_1*%
%TO.N,DRIVEX_SLP*%
X158800000Y-55978750D03*
D19*
%TO.P,J8,2,Pin_2*%
%TO.N,DRIVEX_MISO*%
X158800000Y-53978750D03*
%TO.P,J8,3,Pin_3*%
%TO.N,+3.3V*%
X160800000Y-55978750D03*
%TO.P,J8,4,Pin_4*%
%TO.N,DRIVEX_CS*%
X160800000Y-53978750D03*
%TO.P,J8,5,Pin_5*%
%TO.N,+3.3V*%
X162800000Y-55978750D03*
%TO.P,J8,6,Pin_6*%
%TO.N,DRIVEX_SCK*%
X162800000Y-53978750D03*
%TO.P,J8,7,Pin_7*%
%TO.N,+3.3V*%
X164800000Y-55978750D03*
%TO.P,J8,8,Pin_8*%
%TO.N,DRIVEX_MOSI*%
X164800000Y-53978750D03*
%TD*%
D52*
%TO.P,J31,1,Pin_1*%
%TO.N,GND*%
X216025000Y-67025000D03*
D22*
%TO.P,J31,2,Pin_2*%
%TO.N,+5V*%
X213525000Y-67025000D03*
%TO.P,J31,3,Pin_3*%
%TO.N,E_STOP*%
X211025000Y-67025000D03*
%TD*%
D66*
%TO.P,C12,1*%
%TO.N,VIN*%
X209700000Y-83025000D03*
%TO.P,C12,2*%
%TO.N,GND*%
X209700000Y-81125000D03*
%TD*%
D67*
%TO.P,D9,1,K*%
%TO.N,VIN*%
X225400000Y-60587500D03*
%TO.P,D9,2,A*%
%TO.N,Net-(D10-K)*%
X228700000Y-60587500D03*
%TD*%
D30*
%TO.P,D12,1,K*%
%TO.N,Net-(D11-A)*%
X226250000Y-50712500D03*
%TO.P,D12,2,A*%
%TO.N,Net-(D12-A)*%
X226250000Y-48887500D03*
%TD*%
D14*
%TO.P,C30,1*%
%TO.N,X_STOP*%
X161025000Y-62006250D03*
%TO.P,C30,2*%
%TO.N,GND*%
X162575000Y-62006250D03*
%TD*%
D32*
%TO.P,R43,1*%
%TO.N,Net-(J13-Pin_1)*%
X226250000Y-38300000D03*
%TO.P,R43,2*%
%TO.N,THERMO2*%
X224600000Y-38300000D03*
%TD*%
D48*
%TO.P,C31,1*%
%TO.N,VIN*%
X179677651Y-46306250D03*
D49*
%TO.P,C31,2*%
%TO.N,GND*%
X176177651Y-46306250D03*
%TD*%
D44*
%TO.P,J35,1,Pin_1*%
%TO.N,VIN*%
X230100000Y-98485000D03*
D45*
%TO.P,J35,2,Pin_2*%
%TO.N,Net-(D13-A)*%
X230100000Y-93405000D03*
%TD*%
D46*
%TO.P,C25,1*%
%TO.N,Net-(J6-Pin_1)*%
X227950000Y-43875000D03*
%TO.P,C25,2*%
%TO.N,GND*%
X227950000Y-45425000D03*
%TD*%
D29*
%TO.P,U6,1,GND*%
%TO.N,GND*%
X200735000Y-55657500D03*
%TO.P,U6,2,VIO*%
%TO.N,+3.3V*%
X200735000Y-53117500D03*
%TO.P,U6,3,M1B*%
%TO.N,Net-(J23-Pin_3)*%
X200735000Y-50577500D03*
%TO.P,U6,4,M1A*%
%TO.N,Net-(J23-Pin_1)*%
X200735000Y-48037500D03*
%TO.P,U6,5,M2A*%
%TO.N,Net-(J23-Pin_2)*%
X200735000Y-45497500D03*
%TO.P,U6,6,M2B*%
%TO.N,Net-(J23-Pin_4)*%
X200735000Y-42957500D03*
%TO.P,U6,7,GND*%
%TO.N,GND*%
X200735000Y-40417500D03*
D28*
%TO.P,U6,8,VM*%
%TO.N,VIN*%
X200735000Y-37877500D03*
D29*
%TO.P,U6,9,DIR*%
%TO.N,DRIVEZ_DIR*%
X188035000Y-55657500D03*
%TO.P,U6,10,STEP*%
%TO.N,DRIVEZ_STEP*%
X188035000Y-53117500D03*
%TO.P,U6,11,PDN*%
%TO.N,DRIVEZ_MISO*%
X188035000Y-50577500D03*
%TO.P,U6,12,UART*%
%TO.N,DRIVEZ_SLP*%
X188035000Y-48037500D03*
%TO.P,U6,13,SPRD*%
%TO.N,DRIVEZ_CS*%
X188035000Y-45497500D03*
%TO.P,U6,14,MS2*%
%TO.N,DRIVEZ_SCK*%
X188035000Y-42957500D03*
%TO.P,U6,15,MS1*%
%TO.N,DRIVEZ_MOSI*%
X188035000Y-40417500D03*
D28*
%TO.P,U6,16,~{EN}*%
%TO.N,DRIVEZ_EN*%
X188035000Y-37877500D03*
D29*
%TO.P,U6,17,INDEX*%
%TO.N,unconnected-(U6-INDEX-Pad17)*%
X190575000Y-37877500D03*
%TO.P,U6,18,DIAG*%
%TO.N,DRIVEZ_DIAG*%
X193115000Y-37877500D03*
%TD*%
D36*
%TO.P,J34,1,Pin_1*%
%TO.N,VIN*%
X233000000Y-51050000D03*
D37*
%TO.P,J34,2,Pin_2*%
%TO.N,Net-(D11-A)*%
X233000000Y-53050000D03*
%TD*%
D67*
%TO.P,D8,1,K*%
%TO.N,VIN*%
X225375000Y-68037500D03*
%TO.P,D8,2,A*%
%TO.N,Net-(D7-K)*%
X228675000Y-68037500D03*
%TD*%
D32*
%TO.P,R41,1*%
%TO.N,Net-(J6-Pin_1)*%
X226150000Y-43700000D03*
%TO.P,R41,2*%
%TO.N,THERMO1*%
X224500000Y-43700000D03*
%TD*%
D68*
%TO.P,J9,1,Pin_1*%
%TO.N,LCD_BEEP*%
X159927500Y-88805000D03*
D29*
%TO.P,J9,2,Pin_2*%
%TO.N,LCD_BTN*%
X157387500Y-88805000D03*
%TO.P,J9,3,Pin_3*%
%TO.N,LCD_EN*%
X159927500Y-86265000D03*
%TO.P,J9,4,Pin_4*%
%TO.N,LCD_CS*%
X157387500Y-86265000D03*
%TO.P,J9,5,Pin_5*%
%TO.N,LCD_D4*%
X159927500Y-83725000D03*
%TO.P,J9,6,Pin_6*%
%TO.N,LCD_D5*%
X157387500Y-83725000D03*
%TO.P,J9,7,Pin_7*%
%TO.N,LCD_D6*%
X159927500Y-81185000D03*
%TO.P,J9,8,Pin_8*%
%TO.N,LCD_D7*%
X157387500Y-81185000D03*
%TO.P,J9,9,Pin_9*%
%TO.N,GND*%
X159927500Y-78645000D03*
%TO.P,J9,10,Pin_10*%
%TO.N,+5V*%
X157387500Y-78645000D03*
%TD*%
D48*
%TO.P,C17,1*%
%TO.N,VIN*%
X215809879Y-83005000D03*
D49*
%TO.P,C17,2*%
%TO.N,GND*%
X213309879Y-83005000D03*
%TD*%
D14*
%TO.P,C38,1*%
%TO.N,Z_STOP*%
X195775000Y-62050000D03*
%TO.P,C38,2*%
%TO.N,GND*%
X197325000Y-62050000D03*
%TD*%
D11*
%TO.P,R50,1*%
%TO.N,HEAT1*%
X220325000Y-98175000D03*
%TO.P,R50,2*%
%TO.N,GND*%
X220325000Y-99825000D03*
%TD*%
D42*
%TO.P,C2,1*%
%TO.N,GND*%
X166100000Y-88925000D03*
%TO.P,C2,2*%
%TO.N,Net-(C2-Pad2)*%
X168000000Y-88925000D03*
%TD*%
D32*
%TO.P,R9,1*%
%TO.N,5V_USB*%
X207350000Y-97000000D03*
%TO.P,R9,2*%
%TO.N,Net-(Q1-G)*%
X205700000Y-97000000D03*
%TD*%
D16*
%TO.P,R17,1*%
%TO.N,+3.3V*%
X188952651Y-62331250D03*
%TO.P,R17,2*%
%TO.N,DRIVEY_EN*%
X188952651Y-60681250D03*
%TD*%
D18*
%TO.P,J5,1,Pin_1*%
%TO.N,SPI_MISO*%
X158800000Y-58356250D03*
D19*
%TO.P,J5,2,Pin_2*%
%TO.N,DRIVEX_CS*%
X160800000Y-58356250D03*
%TO.P,J5,3,Pin_3*%
%TO.N,SPI_SCK*%
X162800000Y-58356250D03*
%TO.P,J5,4,Pin_4*%
%TO.N,SPI_MOSI*%
X164800000Y-58356250D03*
%TD*%
D26*
%TO.P,R53,1*%
%TO.N,HEAT_BED*%
X210625000Y-110850000D03*
%TO.P,R53,2*%
%TO.N,GND*%
X212275000Y-110850000D03*
%TD*%
%TO.P,R54,1*%
%TO.N,HEAT_BED*%
X210625000Y-108950000D03*
%TO.P,R54,2*%
%TO.N,Net-(Q7-G)*%
X212275000Y-108950000D03*
%TD*%
D42*
%TO.P,C1,1*%
%TO.N,GND*%
X172750001Y-74100000D03*
%TO.P,C1,2*%
%TO.N,Net-(C1-Pad2)*%
X174649999Y-74100000D03*
%TD*%
%TO.P,C4,1*%
%TO.N,+3.3V*%
X192500000Y-79075000D03*
%TO.P,C4,2*%
%TO.N,GND*%
X194400000Y-79075000D03*
%TD*%
D21*
%TO.P,J18,1,Pin_1*%
%TO.N,Net-(J18-Pin_1)*%
X179500000Y-26850000D03*
D22*
%TO.P,J18,2,Pin_2*%
%TO.N,Net-(J18-Pin_2)*%
X182000000Y-26850000D03*
%TO.P,J18,3,Pin_3*%
%TO.N,Net-(J18-Pin_3)*%
X184500000Y-26850000D03*
%TO.P,J18,4,Pin_4*%
%TO.N,Net-(J18-Pin_4)*%
X187000000Y-26850000D03*
%TD*%
D14*
%TO.P,C42,1*%
%TO.N,E_STOP*%
X211500000Y-61808750D03*
%TO.P,C42,2*%
%TO.N,GND*%
X213050000Y-61808750D03*
%TD*%
%TO.P,C34,1*%
%TO.N,Y_STOP*%
X177277651Y-62106250D03*
%TO.P,C34,2*%
%TO.N,GND*%
X178827651Y-62106250D03*
%TD*%
D46*
%TO.P,C14,1*%
%TO.N,GND*%
X192575001Y-107789999D03*
%TO.P,C14,2*%
%TO.N,+3.3V*%
X192575001Y-109339999D03*
%TD*%
D23*
%TO.P,H1,1,1*%
%TO.N,GND*%
X220900000Y-28050000D03*
D24*
X220900000Y-28050000D03*
%TD*%
D69*
%TO.P,Y2,1,1*%
%TO.N,OSC_IN*%
X190850000Y-85975000D03*
%TO.P,Y2,2,2*%
%TO.N,GND*%
X190850000Y-83775000D03*
%TO.P,Y2,3,3*%
%TO.N,OSC_OUT*%
X189150000Y-83775000D03*
%TO.P,Y2,4,4*%
%TO.N,GND*%
X189150000Y-85975000D03*
%TD*%
D36*
%TO.P,J32,1,Pin_1*%
%TO.N,VIN*%
X233000000Y-65900000D03*
D37*
%TO.P,J32,2,Pin_2*%
%TO.N,Net-(D7-K)*%
X233000000Y-67900000D03*
%TD*%
D16*
%TO.P,R23,1*%
%TO.N,+3.3V*%
X204950000Y-61731250D03*
%TO.P,R23,2*%
%TO.N,DRIVEZ_EN*%
X204950000Y-60081250D03*
%TD*%
D28*
%TO.P,J25,1,Pin_1*%
%TO.N,DRIVEZ_DIAG*%
X188025000Y-34306250D03*
D29*
%TO.P,J25,2,Pin_2*%
%TO.N,Z_STOP*%
X190565000Y-34306250D03*
%TD*%
D48*
%TO.P,C35,1*%
%TO.N,VIN*%
X195902651Y-46706250D03*
D49*
%TO.P,C35,2*%
%TO.N,GND*%
X192402651Y-46706250D03*
%TD*%
D21*
%TO.P,J23,1,Pin_1*%
%TO.N,Net-(J23-Pin_1)*%
X192950000Y-26850000D03*
D22*
%TO.P,J23,2,Pin_2*%
%TO.N,Net-(J23-Pin_2)*%
X195450000Y-26850000D03*
%TO.P,J23,3,Pin_3*%
%TO.N,Net-(J23-Pin_3)*%
X197950000Y-26850000D03*
%TO.P,J23,4,Pin_4*%
%TO.N,Net-(J23-Pin_4)*%
X200450000Y-26850000D03*
%TD*%
D70*
%TO.P,Q1,1,G*%
%TO.N,Net-(Q1-G)*%
X206900000Y-94500000D03*
%TO.P,Q1,2,S*%
%TO.N,5V_PSU*%
X206900000Y-92600000D03*
%TO.P,Q1,3,D*%
%TO.N,+5V*%
X205025000Y-93550000D03*
%TD*%
D71*
%TO.P,C9,1*%
%TO.N,+3.3V*%
X187101992Y-92501992D03*
%TO.P,C9,2*%
%TO.N,GND*%
X188198008Y-93598008D03*
%TD*%
D30*
%TO.P,D14,1,K*%
%TO.N,Net-(D13-A)*%
X220550000Y-94662500D03*
%TO.P,D14,2,A*%
%TO.N,Net-(D14-A)*%
X220550000Y-92837500D03*
%TD*%
D67*
%TO.P,D11,1,K*%
%TO.N,VIN*%
X225350000Y-53137500D03*
%TO.P,D11,2,A*%
%TO.N,Net-(D11-A)*%
X228650000Y-53137500D03*
%TD*%
D15*
%TO.P,C41,1*%
%TO.N,+3.3V*%
X217450000Y-58181250D03*
%TO.P,C41,2*%
%TO.N,GND*%
X215900000Y-58181250D03*
%TD*%
D46*
%TO.P,C47,1*%
%TO.N,Net-(J14-Pin_1)*%
X227950000Y-29075000D03*
%TO.P,C47,2*%
%TO.N,GND*%
X227950000Y-30625000D03*
%TD*%
D48*
%TO.P,C26,1*%
%TO.N,VIN*%
X163402651Y-46428750D03*
D49*
%TO.P,C26,2*%
%TO.N,GND*%
X159902651Y-46428750D03*
%TD*%
D26*
%TO.P,R19,1*%
%TO.N,+3.3V*%
X224500000Y-45650000D03*
%TO.P,R19,2*%
%TO.N,Net-(J6-Pin_1)*%
X226150000Y-45650000D03*
%TD*%
D72*
%TO.P,J10,1,Pin_1*%
%TO.N,SD_MISO*%
X169405000Y-66800000D03*
D29*
%TO.P,J10,2,Pin_2*%
%TO.N,SD_SCK*%
X169405000Y-69340000D03*
%TO.P,J10,3,Pin_3*%
%TO.N,LCD_ENCA*%
X166865000Y-66800000D03*
%TO.P,J10,4,Pin_4*%
%TO.N,SD_CS*%
X166865000Y-69340000D03*
%TO.P,J10,5,Pin_5*%
%TO.N,LCD_ENCB*%
X164325000Y-66800000D03*
%TO.P,J10,6,Pin_6*%
%TO.N,SD_MOSI*%
X164325000Y-69340000D03*
%TO.P,J10,7,Pin_7*%
%TO.N,SD_DET*%
X161785000Y-66800000D03*
%TO.P,J10,8,Pin_8*%
%TO.N,NRST*%
X161785000Y-69340000D03*
%TO.P,J10,9,Pin_9*%
%TO.N,GND*%
X159245000Y-66800000D03*
%TO.P,J10,10,Pin_10*%
%TO.N,unconnected-(J10-Pin_10-Pad10)*%
X159245000Y-69340000D03*
%TD*%
D40*
%TO.P,Q2,1,D*%
%TO.N,Net-(D7-K)*%
X223137500Y-68650000D03*
%TO.P,Q2,2,G*%
%TO.N,Net-(Q2-G)*%
X223137500Y-66750000D03*
%TO.P,Q2,3,S*%
%TO.N,GND*%
X220862500Y-67700000D03*
%TD*%
D46*
%TO.P,C44,1*%
%TO.N,5V_USB*%
X205300000Y-99785000D03*
%TO.P,C44,2*%
%TO.N,GND*%
X205300000Y-101335000D03*
%TD*%
D52*
%TO.P,J21,1,Pin_1*%
%TO.N,GND*%
X194200000Y-67025000D03*
D22*
%TO.P,J21,2,Pin_2*%
%TO.N,+5V*%
X191700000Y-67025000D03*
%TO.P,J21,3,Pin_3*%
%TO.N,Y_STOP*%
X189200000Y-67025000D03*
%TD*%
D15*
%TO.P,C11,1*%
%TO.N,GND*%
X190875000Y-81950000D03*
%TO.P,C11,2*%
%TO.N,OSC_OUT*%
X189325000Y-81950000D03*
%TD*%
D14*
%TO.P,C5,1*%
%TO.N,+3.3V*%
X188975000Y-79125000D03*
%TO.P,C5,2*%
%TO.N,GND*%
X190525000Y-79125000D03*
%TD*%
D73*
%TO.N,GND*%
X172750000Y-74099999D03*
X220812500Y-52787500D03*
X207450000Y-80950000D03*
X219700000Y-65962500D03*
X178827651Y-62106250D03*
X219650000Y-51575000D03*
X190525000Y-79125000D03*
X198400000Y-99250000D03*
X220862500Y-67700000D03*
X217775000Y-34818750D03*
X188975001Y-108644999D03*
X194400000Y-79075000D03*
X183300000Y-80850000D03*
X228725000Y-70225000D03*
X206400000Y-90200000D03*
X197550000Y-105465000D03*
X166100000Y-88925000D03*
X186898008Y-72951992D03*
X190850000Y-83775000D03*
X168975000Y-34878750D03*
X189275000Y-87900000D03*
X201525000Y-34806250D03*
X194525000Y-84925000D03*
D74*
X212275000Y-110850000D03*
D73*
X167025000Y-58228750D03*
X227950000Y-37925000D03*
D74*
X209475000Y-99330000D03*
D73*
X167701992Y-92398008D03*
X189275000Y-100625000D03*
D74*
X197450000Y-96800000D03*
D73*
X209700000Y-81125000D03*
X183175000Y-100650000D03*
D74*
X207800000Y-106652500D03*
D73*
X197325000Y-62050000D03*
X185227651Y-34906250D03*
X220775000Y-60237500D03*
X190875000Y-81950000D03*
X192575001Y-107789999D03*
X188975001Y-107374999D03*
X208050000Y-86900000D03*
X169275000Y-94200000D03*
D74*
X212477500Y-88655000D03*
D73*
X188198008Y-93598008D03*
X219612500Y-58512500D03*
X205850000Y-86900000D03*
X213050000Y-61808750D03*
X205300000Y-101335000D03*
X198500000Y-101435000D03*
X209150000Y-90575000D03*
X227950000Y-30625000D03*
X164500000Y-78325000D03*
X199550000Y-58168750D03*
X183302651Y-58243750D03*
X188975001Y-104834999D03*
X164995000Y-96125000D03*
X170001992Y-74101992D03*
X220325000Y-99825000D03*
X200500000Y-101435000D03*
X227950000Y-45425000D03*
X213655000Y-71350000D03*
X183175000Y-97875000D03*
X189150000Y-85975000D03*
X215900000Y-58181250D03*
X160400000Y-96550000D03*
X168145000Y-96125000D03*
X162575000Y-62006250D03*
X204050000Y-105465000D03*
X185175000Y-100625000D03*
D74*
%TO.N,+3.3V*%
X199750000Y-96800000D03*
D73*
X187101992Y-92501992D03*
X203250000Y-61618750D03*
X185801992Y-74048008D03*
X204500000Y-90200000D03*
X164500000Y-75325000D03*
X166250000Y-77475000D03*
X206065000Y-71350000D03*
X169100000Y-62233750D03*
X176875000Y-94200000D03*
X201250000Y-61725000D03*
X192500000Y-79075000D03*
X164650000Y-92625000D03*
X188952651Y-62331250D03*
X172800000Y-62225000D03*
X188975001Y-109914999D03*
X220050000Y-43308750D03*
X185175000Y-97800000D03*
X187982815Y-85167185D03*
D74*
X199750000Y-90500000D03*
D73*
X179900000Y-94200000D03*
X201100000Y-58168750D03*
X168575000Y-58228750D03*
X192975000Y-84925000D03*
X224500000Y-45650000D03*
X220250000Y-39721250D03*
X226375000Y-27100000D03*
X192575001Y-109339999D03*
X191275000Y-100600000D03*
X170345000Y-96125000D03*
X171098008Y-75198008D03*
X204950000Y-61731250D03*
X189275000Y-97800000D03*
X217450000Y-58181250D03*
X168798008Y-91301992D03*
X171100000Y-62125000D03*
X224600000Y-36150000D03*
X173875000Y-94200000D03*
X187252651Y-62218750D03*
X166310000Y-75375000D03*
X162300000Y-96550000D03*
X185250000Y-62325000D03*
X166175000Y-94200000D03*
X184852651Y-58243750D03*
X209650000Y-61808750D03*
X188975000Y-79125000D03*
X170825000Y-94200000D03*
%TO.N,NRST*%
X198651000Y-78500000D03*
X169250000Y-79300000D03*
X193350000Y-80600000D03*
X220550000Y-70325000D03*
X175900000Y-86550000D03*
X180850000Y-85050000D03*
D74*
%TO.N,VIN*%
X209700000Y-83025000D03*
D73*
X228450000Y-50825000D03*
D74*
X225350000Y-68037500D03*
D73*
X223025000Y-97350000D03*
X228450000Y-58250000D03*
X223150000Y-104550000D03*
D74*
X216477500Y-88655000D03*
X225400000Y-60587500D03*
D73*
X214450000Y-111375000D03*
D74*
X225300000Y-53137500D03*
D73*
X228500000Y-65725000D03*
%TO.N,+5V*%
X205025000Y-93550000D03*
D74*
X200300000Y-99250000D03*
D73*
X164500000Y-76900000D03*
D74*
X215202500Y-71347500D03*
X202050000Y-96800000D03*
D73*
X227175000Y-70225000D03*
D74*
%TO.N,5V_PSU*%
X206900000Y-92600000D03*
D73*
%TO.N,X_STOP*%
X177947472Y-70104000D03*
X183928181Y-83123290D03*
X169083125Y-60566875D03*
%TO.N,Y_STOP*%
X182000000Y-55050000D03*
X187950000Y-63600000D03*
X177277651Y-62106250D03*
X180550000Y-63900000D03*
X184800003Y-82050000D03*
%TO.N,Z_STOP*%
X195775000Y-62050000D03*
X183404891Y-86500000D03*
X195800000Y-65236250D03*
X197552275Y-59453708D03*
%TO.N,E_STOP*%
X211500000Y-61808750D03*
D74*
%TO.N,5V_USB*%
X207350000Y-97000000D03*
X202900000Y-99760000D03*
X205300000Y-99785000D03*
D73*
%TO.N,SWDIO*%
X185075001Y-109914999D03*
X169200000Y-88325000D03*
%TO.N,SWCLK*%
X171550000Y-92500000D03*
X185075001Y-108644999D03*
%TO.N,SPI_SCK*%
X176600000Y-67550000D03*
%TO.N,DRIVEX_CS*%
X187754379Y-70820719D03*
X180877464Y-60474006D03*
%TO.N,SPI_MISO*%
X188100000Y-57750000D03*
X195700000Y-60500000D03*
X197100000Y-60185504D03*
X180237054Y-59247228D03*
X202950000Y-58600000D03*
%TO.N,SPI_MOSI*%
X199600000Y-62300000D03*
X175700000Y-66250000D03*
%TO.N,LCD_BEEP*%
X175650000Y-87400000D03*
%TO.N,LCD_ENCA*%
X176500000Y-88200000D03*
%TO.N,LCD_ENCB*%
X177100000Y-88850000D03*
X167050000Y-71100000D03*
%TO.N,SD_CS*%
X182300000Y-72199000D03*
%TO.N,SD_SCK*%
X181540401Y-72600000D03*
%TO.N,SD_MOSI*%
X180400000Y-73467066D03*
%TO.N,SD_MISO*%
X179609797Y-73269302D03*
%TO.N,SD_DET*%
X172350000Y-83350000D03*
%TO.N,DRIVEY_CS*%
X179550000Y-74875647D03*
%TO.N,TFT_TX*%
X192596315Y-97446315D03*
X180181036Y-89400000D03*
%TO.N,TFT_RX*%
X178100000Y-90000000D03*
X193200000Y-96400570D03*
%TO.N,DRIVEZ_CS*%
X181603891Y-86150000D03*
%TO.N,USB_DP*%
X172550000Y-88100003D03*
X201574193Y-104360723D03*
%TO.N,USB_DM*%
X200974193Y-106608113D03*
X172550000Y-87300000D03*
%TO.N,DRIVEX_EN*%
X187050000Y-71200000D03*
X180028935Y-60474005D03*
%TO.N,DRIVEY_EN*%
X188952651Y-60681250D03*
X183900000Y-82250000D03*
%TO.N,DRIVEZ_EN*%
X181603891Y-85336061D03*
X198349000Y-59526050D03*
%TO.N,HEAT1*%
X179649753Y-83100000D03*
X195958264Y-98591736D03*
%TO.N,HEAT_BED*%
X180250000Y-82500000D03*
X210625000Y-108950000D03*
%TO.N,DRIVEZ_STEP*%
X182203891Y-84600000D03*
%TO.N,DRIVEY_STEP*%
X179549999Y-74067066D03*
%TO.N,DRIVEY_DIR*%
X174925546Y-81450000D03*
%TO.N,DRIVEZ_DIR*%
X183404891Y-84000000D03*
%TD*%
D75*
%TO.N,Net-(C1-Pad2)*%
X174649999Y-74100000D02*
X173500000Y-75249999D01*
X173500000Y-75249999D02*
X173500000Y-76275000D01*
%TO.N,GND*%
X167701992Y-91265224D02*
X167701992Y-92398008D01*
D76*
X188875000Y-86250000D02*
X189150000Y-85975000D01*
X186175000Y-85450000D02*
X187417100Y-85450000D01*
X187417100Y-85450000D02*
X188217100Y-86250000D01*
X184000000Y-91625000D02*
X184000000Y-92458824D01*
X188217100Y-86250000D02*
X188875000Y-86250000D01*
X186898008Y-74049422D02*
X186898008Y-72951992D01*
X183400000Y-80950000D02*
X183300000Y-80850000D01*
X184000000Y-92458824D02*
X185139184Y-93598008D01*
D75*
X172750000Y-74099999D02*
X173000000Y-74349999D01*
D76*
X186175000Y-80950000D02*
X183400000Y-80950000D01*
X184672430Y-76275000D02*
X186898008Y-74049422D01*
X185139184Y-93598008D02*
X188198008Y-93598008D01*
D75*
X173000000Y-74349999D02*
X173000000Y-76275000D01*
D76*
X184500000Y-76275000D02*
X184672430Y-76275000D01*
D75*
X172750001Y-74100000D02*
X172750000Y-74099999D01*
X169517216Y-89450000D02*
X167701992Y-91265224D01*
X170001992Y-74101992D02*
X172748009Y-74101992D01*
X172748009Y-74101992D02*
X172750001Y-74100000D01*
X170825000Y-89450000D02*
X169517216Y-89450000D01*
D76*
%TO.N,Net-(C2-Pad2)*%
X170800000Y-88925000D02*
X170825000Y-88950000D01*
X168000000Y-88925000D02*
X170800000Y-88925000D01*
D75*
%TO.N,+3.3V*%
X170825000Y-89950000D02*
X169473008Y-91301992D01*
D76*
X187765630Y-84950000D02*
X187982815Y-85167185D01*
X185376992Y-92501992D02*
X187101992Y-92501992D01*
X186175000Y-84950000D02*
X187765630Y-84950000D01*
X187200000Y-79950000D02*
X187725000Y-79425000D01*
X184000000Y-76275000D02*
X184000000Y-75441176D01*
D75*
X171423008Y-75198008D02*
X172500000Y-76275000D01*
D76*
X186175000Y-79950000D02*
X187200000Y-79950000D01*
X184500000Y-91625000D02*
X185376992Y-92501992D01*
X184000000Y-75441176D02*
X185393168Y-74048008D01*
X186175000Y-80450000D02*
X186700000Y-80450000D01*
D75*
X169473008Y-91301992D02*
X168798008Y-91301992D01*
D76*
X187725000Y-79425000D02*
X188025000Y-79125000D01*
X185393168Y-74048008D02*
X185801992Y-74048008D01*
X188025000Y-79125000D02*
X188975000Y-79125000D01*
X186700000Y-80450000D02*
X187725000Y-79425000D01*
D75*
X171098008Y-75198008D02*
X171423008Y-75198008D01*
%TO.N,NRST*%
X179350000Y-86550000D02*
X180850000Y-85050000D01*
X175900000Y-86550000D02*
X179350000Y-86550000D01*
X166123418Y-76124000D02*
X164074582Y-76124000D01*
D76*
X194202000Y-89899300D02*
X198651000Y-85450300D01*
X192598000Y-81152000D02*
X193150000Y-80600000D01*
D75*
X169250000Y-79250582D02*
X166123418Y-76124000D01*
D76*
X188574000Y-81378000D02*
X188800000Y-81152000D01*
D75*
X169250000Y-79300000D02*
X169250000Y-79250582D01*
D76*
X185175000Y-102225000D02*
X187997000Y-99403000D01*
X185175000Y-102225000D02*
X189275000Y-102225000D01*
X184025000Y-102225000D02*
X185175000Y-102225000D01*
X189300000Y-102250000D02*
X189275000Y-102225000D01*
X198651000Y-85450300D02*
X198651000Y-78500000D01*
X183200000Y-102225000D02*
X183175000Y-102200000D01*
D75*
X164074582Y-76124000D02*
X161785000Y-73834418D01*
D76*
X193150000Y-80600000D02*
X193350000Y-80600000D01*
X187234200Y-83450000D02*
X188574000Y-82110200D01*
D75*
X161785000Y-73834418D02*
X161785000Y-69340000D01*
D76*
X185075001Y-102324999D02*
X185175000Y-102225000D01*
X183175000Y-102200000D02*
X184000000Y-102200000D01*
X185075001Y-104834999D02*
X185075001Y-102324999D01*
X194202000Y-96815613D02*
X194202000Y-89899300D01*
X187997000Y-99403000D02*
X191614613Y-99403000D01*
X186175000Y-83450000D02*
X187234200Y-83450000D01*
X188574000Y-82110200D02*
X188574000Y-81378000D01*
X189275000Y-102225000D02*
X191250000Y-102225000D01*
X191614613Y-99403000D02*
X194202000Y-96815613D01*
X191250000Y-102225000D02*
X191275000Y-102250000D01*
X184000000Y-102200000D02*
X184025000Y-102225000D01*
X188800000Y-81152000D02*
X192598000Y-81152000D01*
%TO.N,OSC_IN*%
X190825000Y-87900000D02*
X190825000Y-86000000D01*
X188249000Y-84450000D02*
X186175000Y-84450000D01*
X188564840Y-84776000D02*
X188249000Y-84460160D01*
X188249000Y-84460160D02*
X188249000Y-84450000D01*
X190825000Y-86000000D02*
X190850000Y-85975000D01*
X189651000Y-84776000D02*
X188564840Y-84776000D01*
X190850000Y-85975000D02*
X189651000Y-84776000D01*
%TO.N,OSC_OUT*%
X189325000Y-83600000D02*
X189150000Y-83775000D01*
X189325000Y-81950000D02*
X189325000Y-83600000D01*
X188975000Y-83950000D02*
X186175000Y-83950000D01*
X189150000Y-83775000D02*
X188975000Y-83950000D01*
D75*
%TO.N,Net-(U8-BST)*%
X206088500Y-81938500D02*
X205550000Y-81400000D01*
X207911500Y-81938500D02*
X206088500Y-81938500D01*
X208649000Y-81201000D02*
X207911500Y-81938500D01*
X208649000Y-79776000D02*
X208649000Y-81201000D01*
X205550000Y-81400000D02*
X205550000Y-80950000D01*
X208800000Y-79625000D02*
X208649000Y-79776000D01*
D77*
%TO.N,Net-(U8-SW)*%
X200750000Y-80775000D02*
X202188500Y-79336500D01*
X206160206Y-79336500D02*
X206500000Y-79676294D01*
D75*
X207421706Y-78075000D02*
X206160206Y-79336500D01*
D77*
X202188500Y-79336500D02*
X206160206Y-79336500D01*
D75*
X208800000Y-78075000D02*
X207421706Y-78075000D01*
%TO.N,VIN*%
X216725000Y-88902500D02*
X216477500Y-88655000D01*
X167425000Y-37163750D02*
X168200000Y-37938750D01*
D78*
X207450000Y-83225000D02*
X206700000Y-83225000D01*
D75*
X199975000Y-34806250D02*
X199975000Y-37117500D01*
X216725000Y-92500000D02*
X216725000Y-88902500D01*
X216225000Y-37075000D02*
X217025000Y-37875000D01*
X183677651Y-34906250D02*
X183677651Y-37171250D01*
X216225000Y-34818750D02*
X216225000Y-37075000D01*
D78*
X209500000Y-83225000D02*
X209700000Y-83025000D01*
X207450000Y-83225000D02*
X209500000Y-83225000D01*
D75*
X199975000Y-37117500D02*
X200735000Y-37877500D01*
X183677651Y-37171250D02*
X184452651Y-37946250D01*
X167425000Y-34878750D02*
X167425000Y-37163750D01*
D79*
%TO.N,5V_PSU*%
X206900000Y-92600000D02*
X207751000Y-91749000D01*
X208438976Y-85000000D02*
X208050000Y-85000000D01*
D76*
X205850000Y-85000000D02*
X201575000Y-85000000D01*
X201575000Y-85000000D02*
X200750000Y-85825000D01*
X207225000Y-85825000D02*
X200750000Y-85825000D01*
X208050000Y-85000000D02*
X207225000Y-85825000D01*
D79*
X209626000Y-86187024D02*
X208438976Y-85000000D01*
D77*
X202649000Y-85825000D02*
X205249000Y-83225000D01*
D79*
X207751000Y-89487976D02*
X209626000Y-87612976D01*
X207751000Y-91749000D02*
X207751000Y-89487976D01*
D77*
X200750000Y-85825000D02*
X202649000Y-85825000D01*
D79*
X209626000Y-87612976D02*
X209626000Y-86187024D01*
D75*
%TO.N,Net-(J6-Pin_1)*%
X227950000Y-43875000D02*
X226325000Y-43875000D01*
X228175000Y-43650000D02*
X227950000Y-43875000D01*
X226150000Y-43700000D02*
X226150000Y-45650000D01*
X226325000Y-43875000D02*
X226150000Y-43700000D01*
X233000000Y-43650000D02*
X228175000Y-43650000D01*
D76*
%TO.N,X_STOP*%
X169083125Y-60566875D02*
X169100000Y-60583750D01*
X159104750Y-56954750D02*
X159350000Y-57200000D01*
X159824000Y-56906750D02*
X159824000Y-53622477D01*
X167824000Y-57802640D02*
X167824000Y-59307750D01*
X159824000Y-60805250D02*
X159297000Y-60805250D01*
X185274076Y-88450000D02*
X186175000Y-88450000D01*
X184004891Y-83200000D02*
X184004891Y-87180815D01*
X154349000Y-46035510D02*
X155213490Y-46900000D01*
X157990000Y-34328750D02*
X156368750Y-35950000D01*
X154850000Y-35950000D02*
X154349000Y-36451000D01*
X167824000Y-59307750D02*
X169083125Y-60566875D01*
X159350000Y-57200000D02*
X159530750Y-57200000D01*
X183928181Y-83123290D02*
X184004891Y-83200000D01*
X157450000Y-58958250D02*
X157450000Y-57900000D01*
X157450000Y-57900000D02*
X158395250Y-56954750D01*
X156368750Y-35950000D02*
X154850000Y-35950000D01*
X159824000Y-57726000D02*
X160169750Y-57380250D01*
X177947472Y-69752528D02*
X178300000Y-69400000D01*
X154349000Y-36451000D02*
X154349000Y-46035510D01*
X161025000Y-62006250D02*
X159824000Y-60805250D01*
X157498000Y-48468990D02*
X157498000Y-51296477D01*
X155213490Y-46900000D02*
X155929010Y-46900000D01*
X184004891Y-87180815D02*
X185274076Y-88450000D01*
X159824000Y-60805250D02*
X159824000Y-57726000D01*
X157498000Y-51296477D02*
X159824000Y-53622477D01*
X159530750Y-57200000D02*
X159824000Y-56906750D01*
X155929010Y-46900000D02*
X157498000Y-48468990D01*
X167401610Y-57380250D02*
X167824000Y-57802640D01*
X178300000Y-69400000D02*
X178300000Y-67025000D01*
X159297000Y-60805250D02*
X157450000Y-58958250D01*
X177947472Y-70104000D02*
X177947472Y-69752528D01*
X158395250Y-56954750D02*
X159104750Y-56954750D01*
X160169750Y-57380250D02*
X167401610Y-57380250D01*
D75*
%TO.N,Y_STOP*%
X184275000Y-60675000D02*
X185250000Y-60675000D01*
D76*
X182000000Y-55468459D02*
X182000000Y-55050000D01*
X187950000Y-63600000D02*
X187135241Y-63600000D01*
X184053651Y-57522110D02*
X182000000Y-55468459D01*
X185341176Y-87950000D02*
X186175000Y-87950000D01*
X186250000Y-62714759D02*
X186250000Y-61675000D01*
D75*
X181050000Y-63900000D02*
X184275000Y-60675000D01*
D76*
X186250000Y-61675000D02*
X185250000Y-60675000D01*
X187135241Y-63600000D02*
X186250000Y-62714759D01*
X184800003Y-82050000D02*
X184800003Y-83301411D01*
X184053651Y-59478651D02*
X184053651Y-57522110D01*
X185250000Y-60675000D02*
X184053651Y-59478651D01*
X184800000Y-87408824D02*
X185341176Y-87950000D01*
X184800000Y-83301414D02*
X184800000Y-87408824D01*
D75*
X180550000Y-63900000D02*
X181050000Y-63900000D01*
D76*
X184800003Y-83301411D02*
X184800000Y-83301414D01*
%TO.N,Z_STOP*%
X188618900Y-39028500D02*
X193599000Y-44008600D01*
X186884000Y-39028500D02*
X188618900Y-39028500D01*
X186884000Y-36726500D02*
X186884000Y-39028500D01*
X199050000Y-53217100D02*
X199050000Y-57443640D01*
X198336250Y-65236250D02*
X195800000Y-65236250D01*
X199050000Y-57443640D02*
X198799000Y-57694640D01*
X193599000Y-44008600D02*
X193599000Y-47766100D01*
X197552275Y-59474248D02*
X197552275Y-59702275D01*
X188144750Y-36726500D02*
X186884000Y-36726500D01*
X185206976Y-88950000D02*
X186175000Y-88950000D01*
X201025000Y-60300000D02*
X201250000Y-60075000D01*
X183404891Y-87147915D02*
X185206976Y-88950000D01*
X197552275Y-59702275D02*
X198150000Y-60300000D01*
X193599000Y-47766100D02*
X199050000Y-53217100D01*
X198799000Y-57694640D02*
X198799000Y-58227523D01*
X200125000Y-67025000D02*
X198336250Y-65236250D01*
X183404891Y-86500000D02*
X183404891Y-87147915D01*
X198150000Y-60300000D02*
X201025000Y-60300000D01*
X198799000Y-58227523D02*
X197552275Y-59474248D01*
X190565000Y-34306250D02*
X188144750Y-36726500D01*
%TO.N,E_STOP*%
X190500000Y-67477760D02*
X190500000Y-65300000D01*
X211500000Y-61808750D02*
X210724000Y-61032750D01*
X178950000Y-72218400D02*
X179614400Y-71554000D01*
X211025000Y-67025000D02*
X211025000Y-62283750D01*
X191163750Y-64636250D02*
X205526664Y-64636250D01*
X210724000Y-61032750D02*
X208776000Y-61032750D01*
X189477760Y-68500000D02*
X190500000Y-67477760D01*
X208776000Y-61032750D02*
X208000000Y-61808750D01*
X178950000Y-75391176D02*
X178950000Y-72218400D01*
X190500000Y-65300000D02*
X191163750Y-64636250D01*
X179000000Y-76275000D02*
X179000000Y-75441176D01*
X179000000Y-75441176D02*
X178950000Y-75391176D01*
X211025000Y-62283750D02*
X211500000Y-61808750D01*
X186250000Y-68500000D02*
X189477760Y-68500000D01*
X179614400Y-71554000D02*
X183196000Y-71554000D01*
X183196000Y-71554000D02*
X186250000Y-68500000D01*
X205526664Y-64636250D02*
X208000000Y-62162914D01*
X208000000Y-62162914D02*
X208000000Y-61808750D01*
X208100000Y-61908750D02*
X208000000Y-61808750D01*
D75*
%TO.N,Net-(J13-Pin_1)*%
X233000000Y-36250000D02*
X228075000Y-36250000D01*
X226475000Y-36375000D02*
X226250000Y-36150000D01*
X227950000Y-36375000D02*
X226475000Y-36375000D01*
X226250000Y-36150000D02*
X226250000Y-38300000D01*
X228075000Y-36250000D02*
X227950000Y-36375000D01*
%TO.N,Net-(J14-Pin_1)*%
X227149000Y-29876000D02*
X227149000Y-31724000D01*
X227149000Y-31724000D02*
X228025000Y-32600000D01*
X233000000Y-28850000D02*
X228175000Y-28850000D01*
X228175000Y-28850000D02*
X227950000Y-29075000D01*
X227950000Y-29075000D02*
X227149000Y-29876000D01*
X227950000Y-29075000D02*
X227950000Y-27175000D01*
X227950000Y-27175000D02*
X228025000Y-27100000D01*
D76*
%TO.N,Net-(D1-A)*%
X198750000Y-108050000D02*
X202600000Y-108050000D01*
X203250000Y-106390000D02*
X203250000Y-105465000D01*
X202900000Y-103060000D02*
X203250000Y-103410000D01*
X202750000Y-106890000D02*
X203250000Y-106390000D01*
X202750000Y-107900000D02*
X202750000Y-106890000D01*
X198350000Y-105465000D02*
X198586000Y-105701000D01*
X202600000Y-108050000D02*
X202750000Y-107900000D01*
X203250000Y-103410000D02*
X203250000Y-105465000D01*
X198586000Y-105701000D02*
X198586000Y-107886000D01*
X198586000Y-107886000D02*
X198750000Y-108050000D01*
D75*
%TO.N,Net-(D7-A)*%
X226300000Y-63787500D02*
X228212500Y-63787500D01*
X228212500Y-63787500D02*
X228500000Y-64075000D01*
D80*
%TO.N,Net-(D7-K)*%
X228675000Y-68037500D02*
X227149374Y-68037500D01*
D75*
X226300000Y-67188126D02*
X227149374Y-68037500D01*
D80*
X227149374Y-68037500D02*
X225948374Y-69238500D01*
X233000000Y-67900000D02*
X228812500Y-67900000D01*
X228812500Y-67900000D02*
X228675000Y-68037500D01*
X223726000Y-69238500D02*
X223137500Y-68650000D01*
D75*
X226300000Y-65612500D02*
X226300000Y-67188126D01*
D80*
X225948374Y-69238500D02*
X223726000Y-69238500D01*
%TO.N,Net-(D10-K)*%
X228700000Y-60587500D02*
X227499000Y-61788500D01*
D75*
X226250000Y-58112500D02*
X226250000Y-58137500D01*
D80*
X223651000Y-61788500D02*
X223050000Y-61187500D01*
X227499000Y-61788500D02*
X223651000Y-61788500D01*
D75*
X226250000Y-58137500D02*
X228700000Y-60587500D01*
D80*
X233000000Y-60450000D02*
X228837500Y-60450000D01*
X228837500Y-60450000D02*
X228700000Y-60587500D01*
D75*
%TO.N,Net-(D10-A)*%
X228137500Y-56287500D02*
X228450000Y-56600000D01*
X226250000Y-56287500D02*
X228137500Y-56287500D01*
%TO.N,Net-(D11-A)*%
X226250000Y-50737500D02*
X228650000Y-53137500D01*
D80*
X229125000Y-53050000D02*
X228737500Y-53050000D01*
X229125000Y-53050000D02*
X227836500Y-54338500D01*
D75*
X226250000Y-50712500D02*
X226250000Y-50737500D01*
D80*
X233000000Y-53050000D02*
X229125000Y-53050000D01*
X223688500Y-54338500D02*
X223087500Y-53737500D01*
X228737500Y-53050000D02*
X228650000Y-53137500D01*
X227836500Y-54338500D02*
X223688500Y-54338500D01*
D75*
%TO.N,Net-(D12-A)*%
X226537500Y-49175000D02*
X226250000Y-48887500D01*
X228450000Y-49175000D02*
X226537500Y-49175000D01*
%TO.N,Net-(D13-A)*%
X220550000Y-94662500D02*
X221237500Y-93975000D01*
X222950000Y-93975000D02*
X223025000Y-94050000D01*
X218280000Y-99050000D02*
X218225000Y-99105000D01*
X221237500Y-93975000D02*
X222950000Y-93975000D01*
%TO.N,Net-(D14-A)*%
X218712500Y-92837500D02*
X218375000Y-92500000D01*
X220550000Y-92837500D02*
X218712500Y-92837500D01*
D76*
%TO.N,Net-(D15-A)*%
X214162500Y-109175000D02*
X214162500Y-104435000D01*
X214162500Y-104435000D02*
X214100000Y-104372500D01*
%TO.N,Net-(D16-A)*%
X216100000Y-111375000D02*
X216100000Y-109287500D01*
X216100000Y-109287500D02*
X215987500Y-109175000D01*
%TO.N,SDMMC1_CMD*%
X178250000Y-94772000D02*
X175521000Y-97501000D01*
X176000000Y-92458824D02*
X176267176Y-92726000D01*
X176267176Y-92726000D02*
X176776000Y-92726000D01*
X175521000Y-97501000D02*
X172369000Y-97501000D01*
X171445000Y-96577000D02*
X171445000Y-96125000D01*
X178250000Y-94200000D02*
X178250000Y-94772000D01*
X176776000Y-92726000D02*
X178250000Y-94200000D01*
X176000000Y-91625000D02*
X176000000Y-92458824D01*
X172369000Y-97501000D02*
X171445000Y-96577000D01*
%TO.N,SDMMC1_D3*%
X174000000Y-91625000D02*
X174000000Y-92975000D01*
X174394000Y-95031000D02*
X174394000Y-96928000D01*
X172545000Y-96445000D02*
X172545000Y-96125000D01*
X174222000Y-97100000D02*
X173200000Y-97100000D01*
X175225000Y-94200000D02*
X174394000Y-95031000D01*
X174000000Y-92975000D02*
X175225000Y-94200000D01*
X174394000Y-96928000D02*
X174222000Y-97100000D01*
X173200000Y-97100000D02*
X172545000Y-96445000D01*
%TO.N,SDMMC1_D2*%
X172225000Y-94200000D02*
X173645000Y-95620000D01*
X173500000Y-92925000D02*
X172225000Y-94200000D01*
X173645000Y-95620000D02*
X173645000Y-96125000D01*
X173500000Y-91625000D02*
X173500000Y-92925000D01*
%TO.N,SWDIO*%
X169325000Y-88450000D02*
X169200000Y-88325000D01*
X170825000Y-88450000D02*
X169325000Y-88450000D01*
%TO.N,SWCLK*%
X172425000Y-91625000D02*
X171550000Y-92500000D01*
X172500000Y-91625000D02*
X172425000Y-91625000D01*
%TO.N,SWO*%
X179000000Y-91625000D02*
X179000000Y-102129998D01*
X184245001Y-107374999D02*
X185075001Y-107374999D01*
X179000000Y-102129998D02*
X184245001Y-107374999D01*
%TO.N,SPI_SCK*%
X182551651Y-58717860D02*
X182551651Y-57669314D01*
X182551651Y-57669314D02*
X181824587Y-56942250D01*
X179027651Y-57272349D02*
X179027651Y-58321250D01*
X181824587Y-56942250D02*
X179357750Y-56942250D01*
X179357750Y-56942250D02*
X179027651Y-57272349D01*
X182650000Y-58816209D02*
X182551651Y-58717860D01*
X176500000Y-76275000D02*
X176500000Y-67072240D01*
X182650000Y-60922240D02*
X182650000Y-58816209D01*
X176500000Y-67072240D02*
X182650000Y-60922240D01*
%TO.N,DRIVEX_CS*%
X157899000Y-51077750D02*
X160800000Y-53978750D01*
X165783250Y-63339500D02*
X160800000Y-58356250D01*
X173441664Y-63339500D02*
X165783250Y-63339500D01*
X175450914Y-61330250D02*
X173441664Y-63339500D01*
X157899000Y-47957750D02*
X157899000Y-51077750D01*
X155500000Y-45558750D02*
X157899000Y-47957750D01*
X188400000Y-71466340D02*
X188400000Y-77058824D01*
X180021220Y-61330250D02*
X175450914Y-61330250D01*
X187008824Y-78450000D02*
X186175000Y-78450000D01*
X180877464Y-60474006D02*
X180021220Y-61330250D01*
X187754379Y-70820719D02*
X188400000Y-71466340D01*
X188400000Y-77058824D02*
X187008824Y-78450000D01*
D75*
%TO.N,SPI_MISO*%
X193553750Y-60500000D02*
X195700000Y-60500000D01*
X197477000Y-60801000D02*
X201748418Y-60801000D01*
D76*
X180003651Y-58725523D02*
X179431924Y-59297250D01*
D75*
X180003651Y-59013825D02*
X180003651Y-58725523D01*
D76*
X176003651Y-59297250D02*
X175027651Y-58321250D01*
X182100000Y-60905140D02*
X182100000Y-58013326D01*
D75*
X188646250Y-58296250D02*
X188100000Y-57750000D01*
X201748418Y-60801000D02*
X202096325Y-60453093D01*
D76*
X181431924Y-57345250D02*
X180623378Y-57345250D01*
X180003651Y-57964977D02*
X180003651Y-58725523D01*
X179431924Y-59297250D02*
X176003651Y-59297250D01*
D75*
X197100000Y-60424000D02*
X197477000Y-60801000D01*
X202754509Y-58600000D02*
X202950000Y-58600000D01*
D76*
X180623378Y-57345250D02*
X180003651Y-57964977D01*
D75*
X180237054Y-59247228D02*
X180003651Y-59013825D01*
X202096325Y-59258184D02*
X202754509Y-58600000D01*
X202096325Y-60453093D02*
X202096325Y-59258184D01*
D76*
X176000000Y-76275000D02*
X176000000Y-67005140D01*
D75*
X197100000Y-60185504D02*
X197100000Y-60424000D01*
X191350000Y-58296250D02*
X193553750Y-60500000D01*
D76*
X176000000Y-67005140D02*
X182100000Y-60905140D01*
X182100000Y-58013326D02*
X181431924Y-57345250D01*
D75*
X191350000Y-58296250D02*
X188646250Y-58296250D01*
D76*
%TO.N,SPI_MOSI*%
X197774110Y-61274000D02*
X197074000Y-61274000D01*
X198300110Y-61800000D02*
X197774110Y-61274000D01*
X181600000Y-60600000D02*
X181600000Y-58893599D01*
X196500000Y-60700000D02*
X196500000Y-59146250D01*
X197074000Y-61274000D02*
X196500000Y-60700000D01*
X181600000Y-58893599D02*
X181027651Y-58321250D01*
X175500000Y-66700000D02*
X181600000Y-60600000D01*
X199100000Y-61800000D02*
X198300110Y-61800000D01*
X175500000Y-76275000D02*
X175500000Y-66700000D01*
X196500000Y-59146250D02*
X197350000Y-58296250D01*
X199600000Y-62300000D02*
X199100000Y-61800000D01*
%TO.N,DRIVEX_SCK*%
X158300000Y-45818750D02*
X158300000Y-49478750D01*
X158300000Y-49478750D02*
X162800000Y-53978750D01*
X155500000Y-43018750D02*
X158300000Y-45818750D01*
%TO.N,DRIVEX_MISO*%
X158800000Y-53938750D02*
X158800000Y-53978750D01*
X155500000Y-50638750D02*
X158800000Y-53938750D01*
%TO.N,DRIVEX_MOSI*%
X158775000Y-47953750D02*
X164800000Y-53978750D01*
X155500000Y-40478750D02*
X158775000Y-43753750D01*
X158775000Y-43753750D02*
X158775000Y-47953750D01*
%TO.N,DRIVEX_SLP*%
X154349000Y-51115510D02*
X155023240Y-51789750D01*
X156039273Y-51789750D02*
X157824000Y-53574477D01*
X154349000Y-49249750D02*
X154349000Y-51115510D01*
X157824000Y-53574477D02*
X157824000Y-55002750D01*
X157824000Y-55002750D02*
X158800000Y-55978750D01*
X155023240Y-51789750D02*
X156039273Y-51789750D01*
X155500000Y-48098750D02*
X154349000Y-49249750D01*
%TO.N,LCD_D7*%
X168150000Y-82950000D02*
X170825000Y-82950000D01*
X158538500Y-82336000D02*
X163824936Y-82336000D01*
X164136936Y-82024000D02*
X167224000Y-82024000D01*
X157387500Y-81185000D02*
X158538500Y-82336000D01*
X163824936Y-82336000D02*
X164136936Y-82024000D01*
X167224000Y-82024000D02*
X168150000Y-82950000D01*
%TO.N,LCD_D6*%
X160677500Y-81935000D02*
X159927500Y-81185000D01*
X170825000Y-82450000D02*
X168217100Y-82450000D01*
X167390100Y-81623000D02*
X163970836Y-81623000D01*
X163658836Y-81935000D02*
X160677500Y-81935000D01*
X163970836Y-81623000D02*
X163658836Y-81935000D01*
X168217100Y-82450000D02*
X167390100Y-81623000D01*
%TO.N,LCD_EN*%
X170825000Y-80450000D02*
X168485500Y-80450000D01*
X168485500Y-80450000D02*
X168054500Y-80019000D01*
X168054500Y-80019000D02*
X164063460Y-80019000D01*
X160736460Y-76692000D02*
X156578540Y-76692000D01*
X156578540Y-76692000D02*
X155033500Y-78237040D01*
X155033500Y-85538760D02*
X156910740Y-87416000D01*
X156910740Y-87416000D02*
X158776500Y-87416000D01*
X164063460Y-80019000D02*
X160736460Y-76692000D01*
X158776500Y-87416000D02*
X159927500Y-86265000D01*
X155033500Y-78237040D02*
X155033500Y-85538760D01*
%TO.N,LCD_BEEP*%
X175650000Y-87400000D02*
X179030979Y-87400000D01*
X180782036Y-89151057D02*
X180782036Y-89648943D01*
X178500000Y-90791176D02*
X178500000Y-91625000D01*
X179906979Y-90524000D02*
X178767176Y-90524000D01*
X178767176Y-90524000D02*
X178500000Y-90791176D01*
X179030979Y-87400000D02*
X180782036Y-89151057D01*
X180782036Y-89648943D02*
X179906979Y-90524000D01*
%TO.N,LCD_D5*%
X167556200Y-81222000D02*
X163804736Y-81222000D01*
X156236500Y-82574000D02*
X157387500Y-83725000D01*
X170825000Y-81950000D02*
X168284200Y-81950000D01*
X156236500Y-80708240D02*
X156236500Y-82574000D01*
X156910740Y-80034000D02*
X156236500Y-80708240D01*
X163492736Y-81534000D02*
X162784000Y-81534000D01*
X162784000Y-81534000D02*
X161284000Y-80034000D01*
X161284000Y-80034000D02*
X156910740Y-80034000D01*
X168284200Y-81950000D02*
X167556200Y-81222000D01*
X163804736Y-81222000D02*
X163492736Y-81534000D01*
%TO.N,LCD_D4*%
X155835500Y-78569240D02*
X156910740Y-77494000D01*
X158776500Y-84876000D02*
X156910740Y-84876000D01*
X163731260Y-80821000D02*
X167722300Y-80821000D01*
X155835500Y-83800760D02*
X155835500Y-78569240D01*
X160404260Y-77494000D02*
X163731260Y-80821000D01*
X159927500Y-83725000D02*
X158776500Y-84876000D01*
X156910740Y-84876000D02*
X155835500Y-83800760D01*
X168351300Y-81450000D02*
X170825000Y-81450000D01*
X156910740Y-77494000D02*
X160404260Y-77494000D01*
X167722300Y-80821000D02*
X168351300Y-81450000D01*
%TO.N,LCD_CS*%
X156744640Y-77093000D02*
X155434500Y-78403140D01*
X167888400Y-80420000D02*
X163897360Y-80420000D01*
X155434500Y-78403140D02*
X155434500Y-84312000D01*
X170825000Y-80950000D02*
X168418400Y-80950000D01*
X168418400Y-80950000D02*
X167888400Y-80420000D01*
X160570360Y-77093000D02*
X156744640Y-77093000D01*
X163897360Y-80420000D02*
X160570360Y-77093000D01*
X155434500Y-84312000D02*
X157387500Y-86265000D01*
%TO.N,LCD_BTN*%
X154632500Y-78070940D02*
X154632500Y-86050000D01*
X167727600Y-79125000D02*
X166250000Y-79125000D01*
X156412440Y-76291000D02*
X154632500Y-78070940D01*
X165871850Y-79503150D02*
X164181350Y-79503150D01*
X166250000Y-79125000D02*
X165871850Y-79503150D01*
X168552600Y-79950000D02*
X167727600Y-79125000D01*
X154632500Y-86050000D02*
X157387500Y-88805000D01*
X164181350Y-79503150D02*
X160969200Y-76291000D01*
X170825000Y-79950000D02*
X168552600Y-79950000D01*
X160969200Y-76291000D02*
X156412440Y-76291000D01*
%TO.N,LCD_ENCA*%
X168016000Y-72019000D02*
X166310000Y-73725000D01*
X166865000Y-66800000D02*
X168016000Y-67951000D01*
X176500000Y-88200000D02*
X176500000Y-91625000D01*
X168016000Y-67951000D02*
X168016000Y-72019000D01*
%TO.N,LCD_ENCB*%
X177100000Y-88850000D02*
X177000000Y-88950000D01*
X177000000Y-88950000D02*
X177000000Y-91625000D01*
D75*
X164500000Y-73675000D02*
X164500000Y-73650000D01*
D76*
X164325000Y-66800000D02*
X165476000Y-67951000D01*
X165476000Y-69578760D02*
X166997240Y-71100000D01*
D75*
X164500000Y-73650000D02*
X167050000Y-71100000D01*
D76*
X165476000Y-67951000D02*
X165476000Y-69578760D01*
X166997240Y-71100000D02*
X167050000Y-71100000D01*
%TO.N,SD_CS*%
X183500000Y-73399000D02*
X182300000Y-72199000D01*
X183500000Y-76275000D02*
X183500000Y-73399000D01*
%TO.N,SD_SCK*%
X183000000Y-76275000D02*
X183000000Y-74059599D01*
X183000000Y-74059599D02*
X181540401Y-72600000D01*
%TO.N,SD_MOSI*%
X182000000Y-74567066D02*
X180900000Y-73467066D01*
X180900000Y-73467066D02*
X180400000Y-73467066D01*
X182000000Y-76275000D02*
X182000000Y-74567066D01*
%TO.N,SD_MISO*%
X180013033Y-72866066D02*
X179609797Y-73269302D01*
X182500000Y-76275000D02*
X182500000Y-74493750D01*
X180872316Y-72866066D02*
X180013033Y-72866066D01*
X182500000Y-74493750D02*
X180872316Y-72866066D01*
%TO.N,SD_DET*%
X172350000Y-83350000D02*
X172250000Y-83450000D01*
X172250000Y-83450000D02*
X170825000Y-83450000D01*
D75*
%TO.N,DRIVEX_DIAG*%
X157753750Y-32025000D02*
X155450000Y-34328750D01*
D76*
X172076000Y-61276000D02*
X171100000Y-60300000D01*
X170200000Y-55801359D02*
X170200000Y-33075000D01*
D75*
X160580000Y-37938750D02*
X160580000Y-33455000D01*
D76*
X173576000Y-59177359D02*
X170200000Y-55801359D01*
X173576000Y-60988064D02*
X173288064Y-61276000D01*
D75*
X160580000Y-33455000D02*
X159150000Y-32025000D01*
X159150000Y-32025000D02*
X157753750Y-32025000D01*
D76*
X170200000Y-33075000D02*
X169150000Y-32025000D01*
X169150000Y-32025000D02*
X159150000Y-32025000D01*
X173288064Y-61276000D02*
X172076000Y-61276000D01*
X173576000Y-59177359D02*
X173576000Y-60988064D01*
%TO.N,DRIVEY_SLP*%
X174076651Y-53882490D02*
X174076651Y-54990250D01*
X170601651Y-51123010D02*
X171513891Y-52035250D01*
X172229411Y-52035250D02*
X174076651Y-53882490D01*
X171513891Y-52035250D02*
X172229411Y-52035250D01*
X170601651Y-49257250D02*
X170601651Y-51123010D01*
X174076651Y-54990250D02*
X175052651Y-55966250D01*
X171752651Y-48106250D02*
X170601651Y-49257250D01*
%TO.N,DRIVEY_MISO*%
X171752651Y-50646250D02*
X175052651Y-53946250D01*
X175052651Y-53946250D02*
X175052651Y-53966250D01*
%TO.N,DRIVEY_CS*%
X173316250Y-45566250D02*
X174199000Y-46449000D01*
X179825647Y-74600000D02*
X180900000Y-74600000D01*
X181000000Y-74700000D02*
X181000000Y-76275000D01*
X171752651Y-45566250D02*
X173316250Y-45566250D01*
X179550000Y-74875647D02*
X179825647Y-74600000D01*
X174199000Y-46449000D02*
X174199000Y-48291100D01*
X177052651Y-51144751D02*
X177052651Y-53966250D01*
X180900000Y-74600000D02*
X181000000Y-74700000D01*
X174199000Y-48291100D02*
X177052651Y-51144751D01*
%TO.N,DRIVEY_MOSI*%
X175076651Y-43810250D02*
X175076651Y-47990250D01*
X175076651Y-47990250D02*
X181052651Y-53966250D01*
X171752651Y-40486250D02*
X175076651Y-43810250D01*
%TO.N,DRIVEY_SCK*%
X174600000Y-45873599D02*
X174600000Y-48125000D01*
X179052651Y-52577651D02*
X179052651Y-53966250D01*
X171752651Y-43026250D02*
X174600000Y-45873599D01*
X174600000Y-48125000D02*
X179052651Y-52577651D01*
%TO.N,SERVO*%
X182545836Y-99002000D02*
X190192100Y-99002000D01*
X190192100Y-99002000D02*
X192600000Y-96594100D01*
X180648000Y-97104164D02*
X182545836Y-99002000D01*
X209399000Y-75501000D02*
X210550000Y-74350000D01*
X180500000Y-91625000D02*
X180500000Y-92458824D01*
X180500000Y-92458824D02*
X180648000Y-92606824D01*
X197102000Y-85298000D02*
X197102000Y-77715100D01*
X180648000Y-92606824D02*
X180648000Y-97104164D01*
X197102000Y-77715100D02*
X199316100Y-75501000D01*
X192600000Y-96594100D02*
X192600000Y-89800000D01*
X199316100Y-75501000D02*
X209399000Y-75501000D01*
X192600000Y-89800000D02*
X197102000Y-85298000D01*
%TO.N,PROBE_TRIG*%
X192200000Y-89550000D02*
X196701000Y-85049000D01*
X181049000Y-94666100D02*
X181300000Y-94917100D01*
X199900000Y-74350000D02*
X204425000Y-74350000D01*
D75*
X204425000Y-74350000D02*
X204425000Y-71360000D01*
D76*
X181000000Y-91625000D02*
X181049000Y-91674000D01*
X181300000Y-97189064D02*
X182711936Y-98601000D01*
X182711936Y-98601000D02*
X190026000Y-98601000D01*
X181049000Y-91674000D02*
X181049000Y-94666100D01*
X190026000Y-98601000D02*
X192200000Y-96427000D01*
X196701000Y-77549000D02*
X199900000Y-74350000D01*
X192200000Y-96427000D02*
X192200000Y-89550000D01*
X196701000Y-85049000D02*
X196701000Y-77549000D01*
D75*
X204425000Y-71360000D02*
X204415000Y-71350000D01*
D76*
X181300000Y-94917100D02*
X181300000Y-97189064D01*
%TO.N,TFT_TX*%
X177800000Y-89400000D02*
X177500000Y-89700000D01*
X209201000Y-76351000D02*
X199900000Y-76351000D01*
X180181036Y-89400000D02*
X177800000Y-89400000D01*
X227250000Y-75275000D02*
X225425000Y-77100000D01*
X198051000Y-85483200D02*
X193801000Y-89733200D01*
X177500000Y-89700000D02*
X177500000Y-91625000D01*
X199900000Y-76351000D02*
X198051000Y-78200000D01*
X193801000Y-89733200D02*
X193801000Y-96649513D01*
X225425000Y-77100000D02*
X209950000Y-77100000D01*
X193004198Y-97446315D02*
X192596315Y-97446315D01*
X193801000Y-96649513D02*
X193004198Y-97446315D01*
X198051000Y-78200000D02*
X198051000Y-85483200D01*
X209950000Y-77100000D02*
X209201000Y-76351000D01*
%TO.N,TFT_RX*%
X223475000Y-76550000D02*
X224750000Y-75275000D01*
X197650000Y-78000000D02*
X199700000Y-75950000D01*
X197650000Y-85317100D02*
X197650000Y-78000000D01*
X193001000Y-96201570D02*
X193001000Y-89966100D01*
X193001000Y-89966100D02*
X197650000Y-85317100D01*
X178100000Y-90000000D02*
X178000000Y-90100000D01*
X209613100Y-75950000D02*
X210213100Y-76550000D01*
X193200000Y-96400570D02*
X193001000Y-96201570D01*
X178000000Y-90100000D02*
X178000000Y-91625000D01*
X210213100Y-76550000D02*
X223475000Y-76550000D01*
X199700000Y-75950000D02*
X209613100Y-75950000D01*
%TO.N,Net-(J17-Pin_5)*%
X222250000Y-75275000D02*
X222250000Y-70375000D01*
X222250000Y-70375000D02*
X222200000Y-70325000D01*
%TO.N,DRIVEY_DIAG*%
X188241151Y-61382250D02*
X189440715Y-61382250D01*
D75*
X174233901Y-31850000D02*
X171727651Y-34356250D01*
D76*
X185175000Y-31850000D02*
X175050000Y-31850000D01*
X189728651Y-61094314D02*
X189728651Y-60228651D01*
X187252651Y-60393750D02*
X188241151Y-61382250D01*
D75*
X175050000Y-31850000D02*
X174233901Y-31850000D01*
D76*
X186483000Y-56983000D02*
X186483000Y-33192000D01*
X186483000Y-33192000D02*
X186500000Y-33175000D01*
X186500000Y-33175000D02*
X185175000Y-31850000D01*
D75*
X176832651Y-33632651D02*
X175050000Y-31850000D01*
X176832651Y-37946250D02*
X176832651Y-33632651D01*
D76*
X189728651Y-60228651D02*
X186483000Y-56983000D01*
X189440715Y-61382250D02*
X189728651Y-61094314D01*
%TO.N,DRIVEZ_SLP*%
X186884000Y-49188500D02*
X186884000Y-51292260D01*
X188511760Y-51966500D02*
X190374000Y-53828740D01*
X188035000Y-48037500D02*
X186884000Y-49188500D01*
X190374000Y-54930250D02*
X191350000Y-55906250D01*
X190374000Y-53828740D02*
X190374000Y-54930250D01*
X186884000Y-51292260D02*
X187558240Y-51966500D01*
X187558240Y-51966500D02*
X188511760Y-51966500D01*
%TO.N,DRIVEZ_CS*%
X189186000Y-46648500D02*
X189186000Y-49742250D01*
X181603891Y-87048215D02*
X181603891Y-86150000D01*
X192374000Y-57320250D02*
X193350000Y-58296250D01*
X183500000Y-91625000D02*
X183500000Y-88944324D01*
X192374000Y-54882250D02*
X192374000Y-57320250D01*
X188035000Y-45497500D02*
X189186000Y-46648500D01*
X193350000Y-53906250D02*
X192374000Y-54882250D01*
X183500000Y-88944324D02*
X181603891Y-87048215D01*
X189186000Y-49742250D02*
X193350000Y-53906250D01*
%TO.N,DRIVEZ_MISO*%
X188035000Y-50577500D02*
X191350000Y-53892500D01*
X191350000Y-53892500D02*
X191350000Y-53906250D01*
%TO.N,DRIVEZ_MOSI*%
X191301651Y-47857901D02*
X197350000Y-53906250D01*
X188035000Y-40417500D02*
X191301651Y-43684151D01*
X191301651Y-43684151D02*
X191301651Y-47857901D01*
%TO.N,DRIVEZ_SCK*%
X190900651Y-49456901D02*
X195350000Y-53906250D01*
X190900651Y-45823151D02*
X190900651Y-49456901D01*
X188035000Y-42957500D02*
X190900651Y-45823151D01*
%TO.N,DRIVEZ_DIAG*%
X205438064Y-60782250D02*
X205726000Y-60494314D01*
D75*
X193115000Y-34490000D02*
X191025000Y-32400000D01*
D76*
X204238500Y-60782250D02*
X205438064Y-60782250D01*
D75*
X191025000Y-32400000D02*
X189931250Y-32400000D01*
D76*
X202550000Y-33550000D02*
X201400000Y-32400000D01*
X201400000Y-32400000D02*
X191025000Y-32400000D01*
D75*
X189931250Y-32400000D02*
X188025000Y-34306250D01*
D76*
X202550000Y-55507760D02*
X202550000Y-33550000D01*
D75*
X193115000Y-37877500D02*
X193115000Y-34490000D01*
D76*
X205726000Y-58683760D02*
X202550000Y-55507760D01*
X205726000Y-60494314D02*
X205726000Y-58683760D01*
X203250000Y-59793750D02*
X204238500Y-60782250D01*
%TO.N,DRIVEE_CS*%
X208674000Y-54884750D02*
X208674000Y-57326500D01*
X206675000Y-47845000D02*
X206675000Y-50933750D01*
X206750000Y-61250000D02*
X206929000Y-61071000D01*
X206750000Y-62254514D02*
X206750000Y-61250000D01*
X206929000Y-61071000D02*
X206929000Y-60871000D01*
X205170264Y-63834250D02*
X206750000Y-62254514D01*
X206675000Y-50933750D02*
X209650000Y-53908750D01*
X206929000Y-60871000D02*
X209497500Y-58302500D01*
X189741126Y-63834250D02*
X205170264Y-63834250D01*
X209497500Y-58302500D02*
X209650000Y-58302500D01*
X178000000Y-72034200D02*
X179282200Y-70752000D01*
X204325000Y-45495000D02*
X206675000Y-47845000D01*
X209650000Y-53908750D02*
X208674000Y-54884750D01*
X182823376Y-70752000D02*
X189741126Y-63834250D01*
X178000000Y-76275000D02*
X178000000Y-72034200D01*
X208674000Y-57326500D02*
X209650000Y-58302500D01*
X179282200Y-70752000D02*
X182823376Y-70752000D01*
%TO.N,DRIVEE_MISO*%
X207650000Y-53900000D02*
X207650000Y-53908750D01*
X204325000Y-50575000D02*
X207650000Y-53900000D01*
%TO.N,DRIVEE_SCK*%
X207200651Y-45830651D02*
X207200651Y-49459401D01*
X204325000Y-42955000D02*
X207200651Y-45830651D01*
X207200651Y-49459401D02*
X211650000Y-53908750D01*
%TO.N,DRIVEE_SLP*%
X203848240Y-51964000D02*
X204801760Y-51964000D01*
X203174000Y-51289760D02*
X203848240Y-51964000D01*
X204325000Y-48035000D02*
X203174000Y-49186000D01*
X206674000Y-53836240D02*
X206674000Y-54932750D01*
X204801760Y-51964000D02*
X206674000Y-53836240D01*
X206674000Y-54932750D02*
X207650000Y-55908750D01*
X203174000Y-49186000D02*
X203174000Y-51289760D01*
%TO.N,DRIVEE_MOSI*%
X207601651Y-47860401D02*
X213650000Y-53908750D01*
X204325000Y-40415000D02*
X207601651Y-43691651D01*
X207601651Y-43691651D02*
X207601651Y-47860401D01*
D75*
%TO.N,DRIVEE_DIAG*%
X207250000Y-31950000D02*
X216166716Y-31950000D01*
X206643750Y-31950000D02*
X204325000Y-34268750D01*
X209405000Y-34105000D02*
X207250000Y-31950000D01*
X220250000Y-36033284D02*
X220250000Y-37896250D01*
X216166716Y-31950000D02*
X220250000Y-36033284D01*
X209405000Y-37875000D02*
X209405000Y-34105000D01*
X207250000Y-31950000D02*
X206643750Y-31950000D01*
D76*
%TO.N,Net-(J3-CC1)*%
X199550000Y-104135000D02*
X199550000Y-105465000D01*
X198500000Y-103085000D02*
X199550000Y-104135000D01*
%TO.N,USB_DP*%
X172399997Y-87950000D02*
X172550000Y-88100003D01*
X170825000Y-87950000D02*
X172399997Y-87950000D01*
X200550000Y-104488000D02*
X200599000Y-104439000D01*
X200550000Y-105465000D02*
X200550000Y-104488000D01*
X201501000Y-104439000D02*
X201550000Y-104488000D01*
X200599000Y-104439000D02*
X201501000Y-104439000D01*
X201550000Y-104488000D02*
X201550000Y-105465000D01*
%TO.N,USB_DM*%
X200050000Y-106442000D02*
X200050000Y-105465000D01*
X200883887Y-106608113D02*
X200216113Y-106608113D01*
X172400000Y-87450000D02*
X172550000Y-87300000D01*
X200216113Y-106608113D02*
X200050000Y-106442000D01*
X201050000Y-106442000D02*
X200883887Y-106608113D01*
X201050000Y-105465000D02*
X201050000Y-106442000D01*
X170825000Y-87450000D02*
X172400000Y-87450000D01*
%TO.N,Net-(J3-CC2)*%
X200500000Y-103085000D02*
X201147000Y-103085000D01*
X201147000Y-103085000D02*
X202550000Y-104488000D01*
X202550000Y-104488000D02*
X202550000Y-105465000D01*
D75*
%TO.N,Net-(Q1-G)*%
X209150000Y-92225000D02*
X209150000Y-92250000D01*
D77*
X205700000Y-95700000D02*
X206900000Y-94500000D01*
D75*
X209150000Y-92250000D02*
X206900000Y-94500000D01*
D77*
X205700000Y-97000000D02*
X205700000Y-95700000D01*
D76*
%TO.N,Net-(Q2-G)*%
X223275000Y-66612500D02*
X223137500Y-66750000D01*
X223275000Y-64737500D02*
X223275000Y-66612500D01*
%TO.N,Net-(Q3-G)*%
X223187500Y-57287500D02*
X223187500Y-59150000D01*
X223187500Y-59150000D02*
X223050000Y-59287500D01*
%TO.N,Net-(Q4-G)*%
X223200000Y-49825000D02*
X223200000Y-51725000D01*
X223200000Y-51725000D02*
X223087500Y-51837500D01*
%TO.N,Net-(Q5-G)*%
X220813064Y-100526000D02*
X221825000Y-99514064D01*
X219610936Y-100300000D02*
X219836936Y-100526000D01*
X219836936Y-100526000D02*
X220813064Y-100526000D01*
X209475000Y-94770000D02*
X208074000Y-96171000D01*
X221825000Y-99514064D02*
X221825000Y-99050000D01*
X208074000Y-96171000D02*
X208074000Y-99915160D01*
X208074000Y-99915160D02*
X208458840Y-100300000D01*
X208458840Y-100300000D02*
X219610936Y-100300000D01*
%TO.N,Net-(Q7-G)*%
X207274000Y-108174000D02*
X211499000Y-108174000D01*
X206400000Y-107300000D02*
X207274000Y-108174000D01*
X211499000Y-108174000D02*
X212275000Y-108950000D01*
X206400000Y-103492500D02*
X206400000Y-107300000D01*
X207800000Y-102092500D02*
X206400000Y-103492500D01*
%TO.N,BOOT*%
X181500000Y-94550000D02*
X183175000Y-96225000D01*
X185150000Y-96225000D02*
X185175000Y-96200000D01*
X181500000Y-91625000D02*
X181500000Y-94550000D01*
X183175000Y-96225000D02*
X185150000Y-96225000D01*
X185175000Y-96200000D02*
X189275000Y-96200000D01*
%TO.N,SDMMC1_D0*%
X167045000Y-94980000D02*
X167045000Y-96125000D01*
X173300000Y-88924076D02*
X168024076Y-94200000D01*
X170825000Y-84950000D02*
X171658824Y-84950000D01*
X173300000Y-86591176D02*
X173300000Y-88924076D01*
X168024076Y-94200000D02*
X167825000Y-94200000D01*
X167825000Y-94200000D02*
X167045000Y-94980000D01*
X171658824Y-84950000D02*
X173300000Y-86591176D01*
%TO.N,SDMMC1_D1*%
X165945000Y-95570000D02*
X165945000Y-96125000D01*
X165426000Y-92211936D02*
X165426000Y-93499000D01*
X170825000Y-85450000D02*
X168063840Y-85450000D01*
X168063840Y-85450000D02*
X165138064Y-88375776D01*
X165426000Y-93499000D02*
X164650000Y-94275000D01*
X164650000Y-94275000D02*
X165945000Y-95570000D01*
X165138064Y-91924000D02*
X165426000Y-92211936D01*
X165138064Y-88375776D02*
X165138064Y-91924000D01*
%TO.N,DRIVEX_EN*%
X161003651Y-43442401D02*
X161003651Y-48628651D01*
X167049000Y-54674000D02*
X167049000Y-56349000D01*
X175341342Y-60872722D02*
X173275564Y-62938500D01*
X155500000Y-37938750D02*
X161003651Y-43442401D01*
X170099000Y-62622660D02*
X170099000Y-59802340D01*
X173275564Y-62938500D02*
X170414840Y-62938500D01*
X187800000Y-76325000D02*
X186175000Y-77950000D01*
X167049000Y-56349000D02*
X168152750Y-57452750D01*
X172800000Y-60175000D02*
X172800000Y-60575000D01*
X170099000Y-59802340D02*
X170513840Y-59387500D01*
X187050000Y-71200000D02*
X187800000Y-71950000D01*
X187800000Y-71950000D02*
X187800000Y-76325000D01*
X170077750Y-57452750D02*
X172012500Y-59387500D01*
X178900476Y-60474005D02*
X178501759Y-60872722D01*
X170513840Y-59387500D02*
X172012500Y-59387500D01*
X180028935Y-60474005D02*
X178900476Y-60474005D01*
X172800000Y-60717590D02*
X172800000Y-60791250D01*
X172012500Y-59387500D02*
X172800000Y-60175000D01*
X168152750Y-57452750D02*
X170077750Y-57452750D01*
X178501759Y-60872722D02*
X175341342Y-60872722D01*
X161003651Y-48628651D02*
X167049000Y-54674000D01*
X170414840Y-62938500D02*
X170099000Y-62622660D01*
%TO.N,DRIVEY_EN*%
X183301651Y-56203010D02*
X184566391Y-57467750D01*
X183301651Y-54834977D02*
X183301651Y-56203010D01*
X170825000Y-83950000D02*
X182200000Y-83950000D01*
X182200000Y-83950000D02*
X183900000Y-82250000D01*
X171752651Y-37946250D02*
X177278651Y-43472250D01*
X184566391Y-57467750D02*
X186139151Y-57467750D01*
X188952651Y-60281250D02*
X188952651Y-60681250D01*
X177278651Y-48811977D02*
X183301651Y-54834977D01*
X186139151Y-57467750D02*
X188952651Y-60281250D01*
X177278651Y-43472250D02*
X177278651Y-48811977D01*
%TO.N,DRIVEZ_EN*%
X199584000Y-53184000D02*
X199584000Y-56325860D01*
X204950000Y-59681250D02*
X204950000Y-60081250D01*
X194000000Y-43842500D02*
X194000000Y-47600000D01*
X194000000Y-47600000D02*
X199584000Y-53184000D01*
X181567887Y-85336061D02*
X181603891Y-85336061D01*
X198349000Y-59526050D02*
X198972950Y-59526050D01*
X202661500Y-57392750D02*
X204950000Y-59681250D01*
X198972950Y-59526050D02*
X199499000Y-59000000D01*
X202661500Y-57832360D02*
X202661500Y-57392750D01*
X183000000Y-89011424D02*
X181002891Y-87014315D01*
X199584000Y-56325860D02*
X200650890Y-57392750D01*
X188035000Y-37877500D02*
X194000000Y-43842500D01*
X201493860Y-59000000D02*
X202661500Y-57832360D01*
X200650890Y-57392750D02*
X202661500Y-57392750D01*
X199499000Y-59000000D02*
X201493860Y-59000000D01*
X181002891Y-87014315D02*
X181002891Y-85901057D01*
X183000000Y-91625000D02*
X183000000Y-89011424D01*
X181002891Y-85901057D02*
X181567887Y-85336061D01*
%TO.N,DRIVEE_EN*%
X212102273Y-56884750D02*
X212674000Y-56313023D01*
X204325000Y-37875000D02*
X210400000Y-43950000D01*
X210400000Y-48350000D02*
X210600000Y-48550000D01*
X182989476Y-71153000D02*
X189907226Y-64235250D01*
X214644240Y-48550000D02*
X216548240Y-46646000D01*
X207299000Y-62296814D02*
X207299000Y-61301000D01*
X178500000Y-72101300D02*
X179448300Y-71153000D01*
X207299000Y-61301000D02*
X209200000Y-59400000D01*
X218176000Y-43532750D02*
X220050000Y-41658750D01*
X218176000Y-45971760D02*
X218176000Y-43532750D01*
X210674000Y-57510750D02*
X211300000Y-56884750D01*
X210674000Y-58658773D02*
X210674000Y-57510750D01*
X213245727Y-54932750D02*
X214006273Y-54932750D01*
X179448300Y-71153000D02*
X182989476Y-71153000D01*
X205360564Y-64235250D02*
X207299000Y-62296814D01*
X216548240Y-46646000D02*
X217501760Y-46646000D01*
X189907226Y-64235250D02*
X205360564Y-64235250D01*
X214644240Y-54294783D02*
X214644240Y-48550000D01*
X209200000Y-59400000D02*
X209932773Y-59400000D01*
X210400000Y-43950000D02*
X210400000Y-48350000D01*
X211300000Y-56884750D02*
X212102273Y-56884750D01*
X209932773Y-59400000D02*
X210674000Y-58658773D01*
X214006273Y-54932750D02*
X214644240Y-54294783D01*
X217501760Y-46646000D02*
X218176000Y-45971760D01*
X212674000Y-55504477D02*
X213245727Y-54932750D01*
X212674000Y-56313023D02*
X212674000Y-55504477D01*
X210600000Y-48550000D02*
X214644240Y-48550000D01*
X178500000Y-76275000D02*
X178500000Y-72101300D01*
%TO.N,FAN1*%
X191606310Y-89478000D02*
X196300000Y-84784310D01*
X218924000Y-65088500D02*
X219700000Y-64312500D01*
X196300000Y-74150000D02*
X200045000Y-70405000D01*
X186175000Y-86950000D02*
X187150000Y-86950000D01*
X216457460Y-70405000D02*
X218924000Y-67938460D01*
X187348000Y-87148000D02*
X187348000Y-88332310D01*
X200045000Y-70405000D02*
X216457460Y-70405000D01*
X196300000Y-84784310D02*
X196300000Y-74150000D01*
X187348000Y-88332310D02*
X188493690Y-89478000D01*
X188493690Y-89478000D02*
X191606310Y-89478000D01*
X219700000Y-64312500D02*
X221200000Y-64312500D01*
X187150000Y-86950000D02*
X187348000Y-87148000D01*
X218924000Y-67938460D02*
X218924000Y-65088500D01*
X221200000Y-64312500D02*
X221625000Y-64737500D01*
%TO.N,FAN2*%
X218250000Y-68045360D02*
X218250000Y-61064064D01*
X220388500Y-58925564D02*
X220388500Y-57638500D01*
X218250000Y-61064064D02*
X220388500Y-58925564D01*
X187749000Y-88166210D02*
X188659790Y-89077000D01*
X193726000Y-86791210D02*
X193726000Y-81827260D01*
X221112500Y-56862500D02*
X221537500Y-57287500D01*
X191440210Y-89077000D02*
X193726000Y-86791210D01*
X193726000Y-81827260D02*
X195851650Y-79701610D01*
X188659790Y-89077000D02*
X191440210Y-89077000D01*
X186175000Y-86450000D02*
X187250000Y-86450000D01*
X219612500Y-56862500D02*
X221112500Y-56862500D01*
X220388500Y-57638500D02*
X219612500Y-56862500D01*
X216291360Y-70004000D02*
X218250000Y-68045360D01*
X195851650Y-79701610D02*
X195851650Y-73966750D01*
X187749000Y-86949000D02*
X187749000Y-88166210D01*
X195851650Y-73966750D02*
X199814400Y-70004000D01*
X187250000Y-86450000D02*
X187749000Y-86949000D01*
X199814400Y-70004000D02*
X216291360Y-70004000D01*
%TO.N,FAN3*%
X221450000Y-49925000D02*
X221550000Y-49825000D01*
X192224000Y-87726110D02*
X192224000Y-82762160D01*
X195450650Y-79535510D02*
X195450650Y-73800650D01*
X186175000Y-85950000D02*
X187350000Y-85950000D01*
X221776000Y-52051000D02*
X219650000Y-49925000D01*
X219650000Y-49925000D02*
X221450000Y-49925000D01*
X199648300Y-69603000D02*
X216125260Y-69603000D01*
X217850000Y-67878260D02*
X217850000Y-59600000D01*
X218759550Y-56144918D02*
X221776000Y-53128468D01*
X188825890Y-88676000D02*
X191274110Y-88676000D01*
X195450650Y-73800650D02*
X199648300Y-69603000D01*
X221776000Y-53128468D02*
X221776000Y-52051000D01*
X217850000Y-59600000D02*
X218759550Y-58690450D01*
X191274110Y-88676000D02*
X192224000Y-87726110D01*
X188150000Y-86750000D02*
X188150000Y-88000110D01*
X192224000Y-82762160D02*
X195450650Y-79535510D01*
X216125260Y-69603000D02*
X217850000Y-67878260D01*
X218759550Y-58690450D02*
X218759550Y-56144918D01*
X187350000Y-85950000D02*
X188150000Y-86750000D01*
X188150000Y-88000110D02*
X188825890Y-88676000D01*
%TO.N,THERMO1*%
X193301000Y-75383200D02*
X193301000Y-79785160D01*
X218201000Y-51901000D02*
X218201000Y-58655360D01*
X224500000Y-43700000D02*
X218750000Y-49450000D01*
X188333200Y-80751000D02*
X188151000Y-80933200D01*
X192335160Y-80751000D02*
X188333200Y-80751000D01*
X188151000Y-80933200D02*
X188151000Y-81966100D01*
X188151000Y-81966100D02*
X187167100Y-82950000D01*
X215959160Y-69202000D02*
X199482200Y-69202000D01*
X217400000Y-59450000D02*
X217400000Y-67761160D01*
X217406360Y-59450000D02*
X217400000Y-59450000D01*
X218201000Y-58655360D02*
X217406360Y-59450000D01*
X218750000Y-49450000D02*
X218750000Y-51352000D01*
X187167100Y-82950000D02*
X186175000Y-82950000D01*
X217400000Y-67761160D02*
X215959160Y-69202000D01*
X218750000Y-51352000D02*
X218201000Y-51901000D01*
X193301000Y-79785160D02*
X192335160Y-80751000D01*
X199482200Y-69202000D02*
X193301000Y-75383200D01*
%TO.N,THERMO2*%
X214874000Y-61776960D02*
X216600000Y-60050960D01*
X199316100Y-68801000D02*
X213501760Y-68801000D01*
X214874000Y-67428760D02*
X214874000Y-61776960D01*
X187750000Y-81800000D02*
X187750000Y-80767100D01*
X218200000Y-49054860D02*
X221950000Y-45304860D01*
X216750000Y-51726000D02*
X217501760Y-51726000D01*
X221950000Y-40250000D02*
X223900000Y-38300000D01*
X215874000Y-52602000D02*
X216750000Y-51726000D01*
X188167100Y-80350000D02*
X190600000Y-80350000D01*
X186175000Y-82450000D02*
X187100000Y-82450000D01*
X190600000Y-80350000D02*
X191350000Y-79600000D01*
X217501760Y-51726000D02*
X218200000Y-51027760D01*
X187100000Y-82450000D02*
X187750000Y-81800000D01*
X191350000Y-79600000D02*
X191350000Y-76767100D01*
X216651000Y-56908760D02*
X215874000Y-56131760D01*
X216600000Y-59450000D02*
X216651000Y-59399000D01*
X223900000Y-38300000D02*
X224600000Y-38300000D01*
X216651000Y-59399000D02*
X216651000Y-56908760D01*
X187750000Y-80767100D02*
X188167100Y-80350000D01*
X191350000Y-76767100D02*
X199316100Y-68801000D01*
X215874000Y-56131760D02*
X215874000Y-52602000D01*
X218200000Y-51027760D02*
X218200000Y-49054860D01*
X213501760Y-68801000D02*
X214874000Y-67428760D01*
X221950000Y-45304860D02*
X221950000Y-40250000D01*
X216600000Y-60050960D02*
X216600000Y-59450000D01*
%TO.N,THERMO3*%
X215149000Y-60934860D02*
X215149000Y-50585240D01*
X189726000Y-78574000D02*
X189726000Y-77824000D01*
X186399000Y-81901000D02*
X187057824Y-81901000D01*
X187057824Y-81901000D02*
X187276000Y-81682824D01*
X186175000Y-81950000D02*
X186350000Y-81950000D01*
X189424110Y-79901000D02*
X189726000Y-79599110D01*
X217501760Y-49186000D02*
X221500000Y-45187760D01*
X221500000Y-34100000D02*
X223000000Y-32600000D01*
X199150000Y-68400000D02*
X211402760Y-68400000D01*
X215149000Y-50585240D02*
X216548240Y-49186000D01*
X187276000Y-81182824D02*
X187276000Y-80674000D01*
X187276000Y-81682824D02*
X187276000Y-81217176D01*
X186350000Y-81950000D02*
X186399000Y-81901000D01*
X189726000Y-77824000D02*
X199150000Y-68400000D01*
X223000000Y-32600000D02*
X226375000Y-32600000D01*
X188049000Y-79901000D02*
X189424110Y-79901000D01*
X189687555Y-78612445D02*
X189726000Y-78574000D01*
X189726000Y-79599110D02*
X189726000Y-78650890D01*
X211402760Y-68400000D02*
X212374000Y-67428760D01*
X189726000Y-78650890D02*
X189687555Y-78612445D01*
X212374000Y-67428760D02*
X212374000Y-63709860D01*
X216548240Y-49186000D02*
X217501760Y-49186000D01*
X221500000Y-45187760D02*
X221500000Y-34100000D01*
X212374000Y-63709860D02*
X215149000Y-60934860D01*
X187276000Y-80674000D02*
X188049000Y-79901000D01*
X187258824Y-81200000D02*
X187276000Y-81182824D01*
X187276000Y-81217176D02*
X187258824Y-81200000D01*
%TO.N,HEAT1*%
X175158503Y-83100000D02*
X179649753Y-83100000D01*
X171658824Y-79450000D02*
X173923546Y-81714722D01*
X173923546Y-81865043D02*
X175158503Y-83100000D01*
X208292740Y-100701000D02*
X219444836Y-100701000D01*
X170825000Y-79450000D02*
X171658824Y-79450000D01*
X220979164Y-100927000D02*
X221506164Y-100400000D01*
X219444836Y-100701000D02*
X219670836Y-100927000D01*
X205815740Y-98224000D02*
X208292740Y-100701000D01*
X195958264Y-98591736D02*
X196326000Y-98224000D01*
X220325000Y-98175000D02*
X222600000Y-98175000D01*
X219670836Y-100927000D02*
X220979164Y-100927000D01*
X173923546Y-81714722D02*
X173923546Y-81865043D01*
X221506164Y-100400000D02*
X222125000Y-100400000D01*
X222600000Y-98175000D02*
X223475000Y-99050000D01*
X222125000Y-100400000D02*
X223475000Y-99050000D01*
X196326000Y-98224000D02*
X205815740Y-98224000D01*
%TO.N,HEAT_BED*%
X210625000Y-108950000D02*
X210625000Y-110850000D01*
X175125603Y-82500000D02*
X180250000Y-82500000D01*
X171900000Y-78950000D02*
X174324546Y-81374546D01*
X174324546Y-81698943D02*
X175125603Y-82500000D01*
X174324546Y-81374546D02*
X174324546Y-81698943D01*
X170825000Y-78950000D02*
X171900000Y-78950000D01*
%TO.N,DRIVEZ_STEP*%
X182203891Y-84600000D02*
X182203891Y-87081115D01*
X185072776Y-89950000D02*
X186175000Y-89950000D01*
X182203891Y-87081115D02*
X185072776Y-89950000D01*
%TO.N,DRIVEX_STEP*%
X171341176Y-76450000D02*
X171100000Y-76450000D01*
X173841176Y-78950000D02*
X171341176Y-76450000D01*
X171100000Y-76450000D02*
X168976000Y-74326000D01*
X186175000Y-78950000D02*
X173841176Y-78950000D01*
X169722760Y-70650000D02*
X168976000Y-70650000D01*
X171600000Y-68772760D02*
X169722760Y-70650000D01*
X171600000Y-65600000D02*
X171600000Y-68772760D01*
X168976000Y-74326000D02*
X168976000Y-70650000D01*
X164793860Y-63000000D02*
X166293860Y-64500000D01*
X168976000Y-70650000D02*
X168976000Y-70626000D01*
X170500000Y-64500000D02*
X171600000Y-65600000D01*
X166293860Y-64500000D02*
X170500000Y-64500000D01*
X156651000Y-54329750D02*
X156651000Y-59558092D01*
X155500000Y-53178750D02*
X156651000Y-54329750D01*
X160092908Y-63000000D02*
X164793860Y-63000000D01*
X156651000Y-59558092D02*
X160092908Y-63000000D01*
%TO.N,DRIVEY_STEP*%
X181500000Y-76275000D02*
X181500000Y-74632900D01*
X181500000Y-74632900D02*
X180934166Y-74067066D01*
X180934166Y-74067066D02*
X179549999Y-74067066D01*
%TO.N,DRIVEY_DIR*%
X174925546Y-81450000D02*
X186175000Y-81450000D01*
%TO.N,SDMMC1_CK*%
X174500000Y-91625000D02*
X174500000Y-90791176D01*
X174500000Y-90791176D02*
X174232824Y-90524000D01*
X169245000Y-95673000D02*
X169245000Y-96125000D01*
X174232824Y-90524000D02*
X172267176Y-90524000D01*
X170074000Y-94844000D02*
X169245000Y-95673000D01*
X172267176Y-90524000D02*
X170074000Y-92717176D01*
X170074000Y-92717176D02*
X170074000Y-94844000D01*
%TO.N,DRIVEX_DIR*%
X168550000Y-74467100D02*
X168550000Y-74450000D01*
X163350000Y-69992760D02*
X163350000Y-71194760D01*
X173774076Y-79450000D02*
X186175000Y-79450000D01*
X163350000Y-71194760D02*
X163724000Y-71568760D01*
X164085936Y-74450000D02*
X168550000Y-74450000D01*
X163724000Y-74088064D02*
X164085936Y-74450000D01*
X155500000Y-60300000D02*
X158750000Y-63550000D01*
X171175076Y-76851000D02*
X170933900Y-76851000D01*
X163724000Y-71568760D02*
X163724000Y-74088064D01*
X163050000Y-69692760D02*
X163350000Y-69992760D01*
X173774076Y-79450000D02*
X171175076Y-76851000D01*
X170933900Y-76851000D02*
X168550000Y-74467100D01*
X158750000Y-63550000D02*
X162702760Y-63550000D01*
X162702760Y-63550000D02*
X163050000Y-63897240D01*
X163050000Y-63897240D02*
X163050000Y-69692760D01*
X155500000Y-55718750D02*
X155500000Y-60300000D01*
%TO.N,DRIVEE_STEP*%
X206528000Y-60826514D02*
X206528000Y-58351560D01*
X206528000Y-58351560D02*
X206349000Y-58172560D01*
X206349000Y-58172560D02*
X206349000Y-57799000D01*
X177500000Y-76275000D02*
X177500000Y-71967100D01*
X205850000Y-57300000D02*
X205850000Y-54640000D01*
X206349000Y-62088414D02*
X206349000Y-61005514D01*
X179116100Y-70351000D02*
X182657276Y-70351000D01*
X182657276Y-70351000D02*
X189575026Y-63433250D01*
X206349000Y-57799000D02*
X205850000Y-57300000D01*
X189575026Y-63433250D02*
X205004164Y-63433250D01*
X205850000Y-54640000D02*
X204325000Y-53115000D01*
X177500000Y-71967100D02*
X179116100Y-70351000D01*
X206349000Y-61005514D02*
X206528000Y-60826514D01*
X205004164Y-63433250D02*
X206349000Y-62088414D01*
%TO.N,DRIVEZ_DIR*%
X182803891Y-87114015D02*
X185139876Y-89450000D01*
X183404891Y-84000000D02*
X182803891Y-84601000D01*
X182803891Y-84601000D02*
X182803891Y-87114015D01*
X185139876Y-89450000D02*
X186175000Y-89450000D01*
%TO.N,DRIVEE_DIR*%
X205948000Y-58198000D02*
X204325000Y-56575000D01*
X189408926Y-63032250D02*
X204838064Y-63032250D01*
X177000000Y-71900000D02*
X178950000Y-69950000D01*
X177000000Y-76275000D02*
X177000000Y-71900000D01*
X178950000Y-69950000D02*
X182491176Y-69950000D01*
X182491176Y-69950000D02*
X189408926Y-63032250D01*
X204838064Y-63032250D02*
X205948000Y-61922314D01*
X205948000Y-58338660D02*
X205948000Y-58198000D01*
X204325000Y-56575000D02*
X204325000Y-55655000D01*
X205948000Y-60839414D02*
X206127000Y-60660414D01*
X206127000Y-58517660D02*
X205948000Y-58338660D01*
X206127000Y-60660414D02*
X206127000Y-58517660D01*
X205948000Y-61922314D02*
X205948000Y-60839414D01*
%TD*%
%TA.AperFunction,Conductor*%
%TO.N,Net-(D15-A)*%
G36*
X228865677Y-100794685D02*
G01*
X228886319Y-100811319D01*
X231713681Y-103638681D01*
X231747166Y-103700004D01*
X231750000Y-103726362D01*
X231750000Y-105348638D01*
X231730315Y-105415677D01*
X231713681Y-105436319D01*
X230211319Y-106938681D01*
X230149996Y-106972166D01*
X230123638Y-106975000D01*
X227076362Y-106975000D01*
X227009323Y-106955315D01*
X226988681Y-106938681D01*
X224300872Y-104250872D01*
X224267387Y-104189549D01*
X224265683Y-104178856D01*
X224265349Y-104177297D01*
X224265349Y-104177292D01*
X224212003Y-104016303D01*
X224211999Y-104016297D01*
X224211998Y-104016294D01*
X224122970Y-103871959D01*
X224122967Y-103871955D01*
X224003044Y-103752032D01*
X224003040Y-103752029D01*
X223858705Y-103663001D01*
X223858699Y-103662998D01*
X223858697Y-103662997D01*
X223785316Y-103638681D01*
X223697709Y-103609651D01*
X223598346Y-103599500D01*
X222751662Y-103599500D01*
X222751644Y-103599501D01*
X222652292Y-103609650D01*
X222652289Y-103609651D01*
X222491305Y-103662996D01*
X222491294Y-103663001D01*
X222346959Y-103752029D01*
X222346955Y-103752032D01*
X222227032Y-103871955D01*
X222227029Y-103871959D01*
X222138001Y-104016294D01*
X222137996Y-104016305D01*
X222084651Y-104177290D01*
X222074500Y-104276647D01*
X222074500Y-104374137D01*
X222054815Y-104441176D01*
X222038181Y-104461818D01*
X221561319Y-104938681D01*
X221499996Y-104972166D01*
X221473638Y-104975000D01*
X219424999Y-104975000D01*
X218601895Y-105798103D01*
X218592879Y-105806275D01*
X218411893Y-105954807D01*
X218154807Y-106211893D01*
X218006275Y-106392879D01*
X217998103Y-106401895D01*
X217536319Y-106863681D01*
X217474996Y-106897166D01*
X217448638Y-106900000D01*
X217126362Y-106900000D01*
X217096921Y-106891355D01*
X217066935Y-106884832D01*
X217061919Y-106881077D01*
X217059323Y-106880315D01*
X217038681Y-106863681D01*
X217011319Y-106836319D01*
X216977834Y-106774996D01*
X216975000Y-106748638D01*
X216975000Y-101951362D01*
X216994685Y-101884323D01*
X217011319Y-101863681D01*
X217537181Y-101337819D01*
X217598504Y-101304334D01*
X217624862Y-101301500D01*
X219144738Y-101301500D01*
X219166615Y-101307924D01*
X219189341Y-101309800D01*
X219202785Y-101318544D01*
X219211777Y-101321185D01*
X219220131Y-101327052D01*
X219226625Y-101332025D01*
X219302120Y-101407520D01*
X219388931Y-101457639D01*
X219395920Y-101461674D01*
X219395925Y-101461678D01*
X219439049Y-101486576D01*
X219439051Y-101486577D01*
X219591778Y-101527500D01*
X219591779Y-101527500D01*
X220892495Y-101527500D01*
X220892511Y-101527501D01*
X220900107Y-101527501D01*
X221058218Y-101527501D01*
X221058221Y-101527501D01*
X221210949Y-101486577D01*
X221261068Y-101457639D01*
X221347880Y-101407520D01*
X221459684Y-101295716D01*
X221459685Y-101295714D01*
X221718582Y-101036816D01*
X221745514Y-101022111D01*
X221771327Y-101005523D01*
X221777527Y-101004631D01*
X221779904Y-101003334D01*
X221806262Y-101000500D01*
X222038331Y-101000500D01*
X222038347Y-101000501D01*
X222045943Y-101000501D01*
X222204054Y-101000501D01*
X222204057Y-101000501D01*
X222356785Y-100959577D01*
X222406904Y-100930639D01*
X222493716Y-100880520D01*
X222568726Y-100805509D01*
X222575246Y-100800521D01*
X222600493Y-100790799D01*
X222624239Y-100777834D01*
X222638016Y-100776352D01*
X222640449Y-100775416D01*
X222642598Y-100775860D01*
X222650598Y-100775000D01*
X228798638Y-100775000D01*
X228865677Y-100794685D01*
G37*
%TD.AperFunction*%
%TD*%
%TA.AperFunction,Conductor*%
%TO.N,Net-(D13-A)*%
G36*
X230865677Y-91769685D02*
G01*
X230886319Y-91786319D01*
X231788681Y-92688681D01*
X231822166Y-92750004D01*
X231825000Y-92776362D01*
X231825000Y-94023638D01*
X231805315Y-94090677D01*
X231788681Y-94111319D01*
X229361319Y-96538681D01*
X229299996Y-96572166D01*
X229273638Y-96575000D01*
X223925192Y-96575000D01*
X223859297Y-96555650D01*
X223859191Y-96555823D01*
X223858562Y-96555435D01*
X223858153Y-96555315D01*
X223856793Y-96554344D01*
X223708705Y-96463001D01*
X223708699Y-96462998D01*
X223708697Y-96462997D01*
X223708694Y-96462996D01*
X223547709Y-96409651D01*
X223448346Y-96399500D01*
X222601662Y-96399500D01*
X222601644Y-96399501D01*
X222502292Y-96409650D01*
X222502289Y-96409651D01*
X222341305Y-96462996D01*
X222341294Y-96463001D01*
X222196959Y-96552029D01*
X222196955Y-96552032D01*
X222077032Y-96671955D01*
X222077029Y-96671959D01*
X221988001Y-96816294D01*
X221987996Y-96816305D01*
X221934651Y-96977290D01*
X221926270Y-97059327D01*
X221899874Y-97124018D01*
X221890594Y-97134404D01*
X221800000Y-97224999D01*
X221800000Y-97276000D01*
X221780315Y-97343039D01*
X221727511Y-97388794D01*
X221676000Y-97400000D01*
X221037450Y-97400000D01*
X220973300Y-97382117D01*
X220889606Y-97331522D01*
X220727196Y-97280914D01*
X220727194Y-97280913D01*
X220727192Y-97280913D01*
X220677778Y-97276423D01*
X220656616Y-97274500D01*
X219993384Y-97274500D01*
X219976878Y-97276000D01*
X219922807Y-97280913D01*
X219760393Y-97331522D01*
X219676700Y-97382117D01*
X219612550Y-97400000D01*
X219524999Y-97400000D01*
X219225000Y-97699999D01*
X219225000Y-99223638D01*
X219216355Y-99253078D01*
X219209832Y-99283065D01*
X219206077Y-99288080D01*
X219205315Y-99290677D01*
X219188681Y-99311319D01*
X219136681Y-99363319D01*
X219075358Y-99396804D01*
X219005666Y-99391820D01*
X218949733Y-99349948D01*
X218925316Y-99284484D01*
X218925000Y-99275638D01*
X218925000Y-94774362D01*
X218944685Y-94707323D01*
X218997489Y-94661568D01*
X219066647Y-94651624D01*
X219130203Y-94680649D01*
X219136681Y-94686681D01*
X219875000Y-95425000D01*
X220950000Y-95425000D01*
X224588681Y-91786319D01*
X224650004Y-91752834D01*
X224676362Y-91750000D01*
X230798638Y-91750000D01*
X230865677Y-91769685D01*
G37*
%TD.AperFunction*%
%TD*%
%TA.AperFunction,Conductor*%
%TO.N,Net-(D13-A)*%
G36*
X212669334Y-94433180D02*
G01*
X212725267Y-94475052D01*
X212749684Y-94540516D01*
X212750000Y-94549362D01*
X212750000Y-99550638D01*
X212730315Y-99617677D01*
X212677511Y-99663432D01*
X212608353Y-99673376D01*
X212544797Y-99644351D01*
X212538319Y-99638319D01*
X211250000Y-98350000D01*
X210768369Y-98350000D01*
X210703273Y-98331539D01*
X210644340Y-98295190D01*
X210644334Y-98295186D01*
X210477797Y-98240001D01*
X210477795Y-98240000D01*
X210375016Y-98229500D01*
X210375009Y-98229500D01*
X208880862Y-98229500D01*
X208851421Y-98220855D01*
X208821435Y-98214332D01*
X208816419Y-98210577D01*
X208813823Y-98209815D01*
X208793181Y-98193181D01*
X208710819Y-98110819D01*
X208677334Y-98049496D01*
X208674500Y-98023138D01*
X208674500Y-96471096D01*
X208694185Y-96404057D01*
X208710815Y-96383419D01*
X209187416Y-95906817D01*
X209248739Y-95873333D01*
X209275097Y-95870499D01*
X210375002Y-95870499D01*
X210375008Y-95870499D01*
X210477797Y-95859999D01*
X210644334Y-95804814D01*
X210793656Y-95712712D01*
X210820049Y-95686319D01*
X210881372Y-95652834D01*
X210907730Y-95650000D01*
X211350000Y-95650000D01*
X212538319Y-94461681D01*
X212599642Y-94428196D01*
X212669334Y-94433180D01*
G37*
%TD.AperFunction*%
%TD*%
%TA.AperFunction,Conductor*%
%TO.N,Net-(D15-A)*%
G36*
X210993334Y-101759180D02*
G01*
X211037681Y-101787681D01*
X211063681Y-101813681D01*
X211097166Y-101875004D01*
X211100000Y-101901362D01*
X211100000Y-106976000D01*
X211097449Y-106984685D01*
X211098738Y-106993647D01*
X211087759Y-107017687D01*
X211080315Y-107043039D01*
X211073474Y-107048966D01*
X211069713Y-107057203D01*
X211047478Y-107071492D01*
X211027511Y-107088794D01*
X211016996Y-107091081D01*
X211010935Y-107094977D01*
X210976000Y-107100000D01*
X210851362Y-107100000D01*
X210784323Y-107080315D01*
X210763681Y-107063681D01*
X209500000Y-105800000D01*
X209260230Y-105800000D01*
X209193191Y-105780315D01*
X209172549Y-105763681D01*
X209118657Y-105709789D01*
X209118656Y-105709788D01*
X208969334Y-105617686D01*
X208802797Y-105562501D01*
X208802795Y-105562500D01*
X208700016Y-105552000D01*
X208700009Y-105552000D01*
X207653362Y-105552000D01*
X207586323Y-105532315D01*
X207565681Y-105515681D01*
X207036819Y-104986819D01*
X207003334Y-104925496D01*
X207000500Y-104899138D01*
X207000500Y-103850862D01*
X207020185Y-103783823D01*
X207036819Y-103763181D01*
X207570682Y-103229318D01*
X207632005Y-103195833D01*
X207658363Y-103192999D01*
X208700002Y-103192999D01*
X208700008Y-103192999D01*
X208802797Y-103182499D01*
X208969334Y-103127314D01*
X209118656Y-103035212D01*
X209118662Y-103035205D01*
X209124319Y-103030734D01*
X209125361Y-103032052D01*
X209178872Y-103002834D01*
X209205230Y-103000000D01*
X209650000Y-103000000D01*
X210862319Y-101787681D01*
X210923642Y-101754196D01*
X210993334Y-101759180D01*
G37*
%TD.AperFunction*%
%TD*%
M02*
