%TF.GenerationSoftware,KiCad,Pcbnew,9.0.3-9.0.3-0~ubuntu24.04.1*%
%TF.CreationDate,2025-07-31T20:10:48-07:00*%
%TF.ProjectId,board,626f6172-642e-46b6-9963-61645f706362,rev?*%
%TF.SameCoordinates,Original*%
%TF.FileFunction,Soldermask,Bot*%
%TF.FilePolarity,Negative*%
%FSLAX46Y46*%
G04 Gerber Fmt 4.6, Leading zero omitted, Abs format (unit mm)*
G04 Created by KiCad (PCBNEW 9.0.3-9.0.3-0~ubuntu24.04.1) date 2025-07-31 20:10:48*
%MOMM*%
%LPD*%
G01*
G04 APERTURE LIST*
G04 Aperture macros list*
%AMRoundRect*
0 Rectangle with rounded corners*
0 $1 Rounding radius*
0 $2 $3 $4 $5 $6 $7 $8 $9 X,Y pos of 4 corners*
0 Add a 4 corners polygon primitive as box body*
4,1,4,$2,$3,$4,$5,$6,$7,$8,$9,$2,$3,0*
0 Add four circle primitives for the rounded corners*
1,1,$1+$1,$2,$3*
1,1,$1+$1,$4,$5*
1,1,$1+$1,$6,$7*
1,1,$1+$1,$8,$9*
0 Add four rect primitives between the rounded corners*
20,1,$1+$1,$2,$3,$4,$5,0*
20,1,$1+$1,$4,$5,$6,$7,0*
20,1,$1+$1,$6,$7,$8,$9,0*
20,1,$1+$1,$8,$9,$2,$3,0*%
G04 Aperture macros list end*
%ADD10R,1.350000X1.350000*%
%ADD11C,1.350000*%
%ADD12C,1.200000*%
%ADD13RoundRect,0.250000X-0.600000X-0.725000X0.600000X-0.725000X0.600000X0.725000X-0.600000X0.725000X0*%
%ADD14O,1.700000X1.950000*%
%ADD15C,3.600000*%
%ADD16C,6.400000*%
%ADD17R,1.700000X1.700000*%
%ADD18C,1.700000*%
%ADD19RoundRect,0.250000X-0.625000X0.350000X-0.625000X-0.350000X0.625000X-0.350000X0.625000X0.350000X0*%
%ADD20O,1.750000X1.200000*%
%ADD21RoundRect,0.250000X1.050000X-1.050000X1.050000X1.050000X-1.050000X1.050000X-1.050000X-1.050000X0*%
%ADD22C,2.600000*%
%ADD23RoundRect,0.250000X0.550000X0.550000X-0.550000X0.550000X-0.550000X-0.550000X0.550000X-0.550000X0*%
%ADD24C,1.600000*%
%ADD25RoundRect,0.250000X0.600000X0.725000X-0.600000X0.725000X-0.600000X-0.725000X0.600000X-0.725000X0*%
%ADD26O,3.800000X5.500000*%
%ADD27O,3.800000X5.300000*%
%ADD28C,0.650000*%
%ADD29O,1.000000X2.100000*%
%ADD30O,1.000000X1.600000*%
%ADD31RoundRect,0.250000X0.600000X0.600000X-0.600000X0.600000X-0.600000X-0.600000X0.600000X-0.600000X0*%
%ADD32RoundRect,0.250000X-0.600000X0.600000X-0.600000X-0.600000X0.600000X-0.600000X0.600000X0.600000X0*%
G04 APERTURE END LIST*
D10*
%TO.C,J19*%
X175027651Y-58321250D03*
D11*
X177027651Y-58321250D03*
X179027651Y-58321250D03*
X181027651Y-58321250D03*
%TD*%
D10*
%TO.C,J12*%
X175052651Y-55966250D03*
D11*
X175052651Y-53966250D03*
X177052651Y-55966250D03*
X177052651Y-53966250D03*
X179052651Y-55966250D03*
X179052651Y-53966250D03*
X181052651Y-55966250D03*
X181052651Y-53966250D03*
%TD*%
D12*
%TO.C,J4*%
X164450000Y-28850000D03*
D13*
X166050000Y-26850000D03*
D14*
X168550000Y-26850000D03*
X171050000Y-26850000D03*
X173550000Y-26850000D03*
%TD*%
D15*
%TO.C,H3*%
X158450000Y-28050000D03*
D16*
X158450000Y-28050000D03*
%TD*%
D15*
%TO.C,H4*%
X158450000Y-108700000D03*
D16*
X158450000Y-108700000D03*
%TD*%
D17*
%TO.C,J11*%
X155450000Y-34328750D03*
D18*
X157990000Y-34328750D03*
%TD*%
%TO.C,U5*%
X184452651Y-55726250D03*
X184452651Y-53186250D03*
X184452651Y-50646250D03*
X184452651Y-48106250D03*
X184452651Y-45566250D03*
X184452651Y-43026250D03*
X184452651Y-40486250D03*
D17*
X184452651Y-37946250D03*
D18*
X171752651Y-55726250D03*
X171752651Y-53186250D03*
X171752651Y-50646250D03*
X171752651Y-48106250D03*
X171752651Y-45566250D03*
X171752651Y-43026250D03*
X171752651Y-40486250D03*
D17*
X171752651Y-37946250D03*
D18*
X174292651Y-37946250D03*
X176832651Y-37946250D03*
%TD*%
D19*
%TO.C,J13*%
X233000000Y-36250000D03*
D20*
X233000000Y-38250000D03*
%TD*%
D12*
%TO.C,J28*%
X204775000Y-28850000D03*
D13*
X206375000Y-26850000D03*
D14*
X208875000Y-26850000D03*
X211375000Y-26850000D03*
X213875000Y-26850000D03*
%TD*%
D15*
%TO.C,H2*%
X220900000Y-108700000D03*
D16*
X220900000Y-108700000D03*
%TD*%
D17*
%TO.C,J30*%
X204325000Y-34268750D03*
D18*
X206865000Y-34268750D03*
%TD*%
D21*
%TO.C,J36*%
X230100000Y-109685000D03*
D22*
X230100000Y-104605000D03*
%TD*%
D23*
%TO.C,C39*%
X212202651Y-46175000D03*
D24*
X208702651Y-46175000D03*
%TD*%
D19*
%TO.C,J14*%
X233000000Y-28850000D03*
D20*
X233000000Y-30850000D03*
%TD*%
D18*
%TO.C,U7*%
X217025000Y-55655000D03*
X217025000Y-53115000D03*
X217025000Y-50575000D03*
X217025000Y-48035000D03*
X217025000Y-45495000D03*
X217025000Y-42955000D03*
X217025000Y-40415000D03*
D17*
X217025000Y-37875000D03*
D18*
X204325000Y-55655000D03*
X204325000Y-53115000D03*
X204325000Y-50575000D03*
X204325000Y-48035000D03*
X204325000Y-45495000D03*
X204325000Y-42955000D03*
X204325000Y-40415000D03*
D17*
X204325000Y-37875000D03*
D18*
X206865000Y-37875000D03*
X209405000Y-37875000D03*
%TD*%
D10*
%TO.C,J27*%
X207650000Y-55908750D03*
D11*
X207650000Y-53908750D03*
X209650000Y-55908750D03*
X209650000Y-53908750D03*
X211650000Y-55908750D03*
X211650000Y-53908750D03*
X213650000Y-55908750D03*
X213650000Y-53908750D03*
%TD*%
D10*
%TO.C,J22*%
X191350000Y-55906250D03*
D11*
X191350000Y-53906250D03*
X193350000Y-55906250D03*
X193350000Y-53906250D03*
X195350000Y-55906250D03*
X195350000Y-53906250D03*
X197350000Y-55906250D03*
X197350000Y-53906250D03*
%TD*%
D17*
%TO.C,J20*%
X171727651Y-34356250D03*
D18*
X174267651Y-34356250D03*
%TD*%
D25*
%TO.C,J26*%
X205125000Y-67025000D03*
D14*
X202625000Y-67025000D03*
X200125000Y-67025000D03*
%TD*%
D12*
%TO.C,J17*%
X233850000Y-73275000D03*
D25*
X232250000Y-75275000D03*
D14*
X229750000Y-75275000D03*
X227250000Y-75275000D03*
X224750000Y-75275000D03*
X222250000Y-75275000D03*
%TD*%
D18*
%TO.C,U4*%
X168200000Y-55718750D03*
X168200000Y-53178750D03*
X168200000Y-50638750D03*
X168200000Y-48098750D03*
X168200000Y-45558750D03*
X168200000Y-43018750D03*
X168200000Y-40478750D03*
D17*
X168200000Y-37938750D03*
D18*
X155500000Y-55718750D03*
X155500000Y-53178750D03*
X155500000Y-50638750D03*
X155500000Y-48098750D03*
X155500000Y-45558750D03*
X155500000Y-43018750D03*
X155500000Y-40478750D03*
D17*
X155500000Y-37938750D03*
D18*
X158040000Y-37938750D03*
X160580000Y-37938750D03*
%TD*%
D17*
%TO.C,J16*%
X204425000Y-74350000D03*
D18*
X206965000Y-74350000D03*
%TD*%
D25*
%TO.C,J7*%
X183300000Y-67025000D03*
D14*
X180800000Y-67025000D03*
X178300000Y-67025000D03*
%TD*%
D26*
%TO.C,F1*%
X221525000Y-81175000D03*
D27*
X221525000Y-89175000D03*
%TD*%
D19*
%TO.C,J33*%
X233000000Y-58450000D03*
D20*
X233000000Y-60450000D03*
%TD*%
D10*
%TO.C,J29*%
X207650000Y-58302500D03*
D11*
X209650000Y-58302500D03*
X211650000Y-58302500D03*
X213650000Y-58302500D03*
%TD*%
D17*
%TO.C,J15*%
X210550000Y-74350000D03*
D18*
X213090000Y-74350000D03*
X215630000Y-74350000D03*
%TD*%
D28*
%TO.C,J3*%
X197910000Y-106910000D03*
X203690000Y-106910000D03*
D29*
X196480000Y-106380000D03*
D30*
X196480000Y-110560000D03*
D29*
X205120000Y-106380000D03*
D30*
X205120000Y-110560000D03*
%TD*%
D21*
%TO.C,J37*%
X230100000Y-87300000D03*
D22*
X230100000Y-82220000D03*
%TD*%
D10*
%TO.C,J24*%
X191350000Y-58296250D03*
D11*
X193350000Y-58296250D03*
X195350000Y-58296250D03*
X197350000Y-58296250D03*
%TD*%
D19*
%TO.C,J6*%
X233000000Y-43650000D03*
D20*
X233000000Y-45650000D03*
%TD*%
D10*
%TO.C,J8*%
X158800000Y-55978750D03*
D11*
X158800000Y-53978750D03*
X160800000Y-55978750D03*
X160800000Y-53978750D03*
X162800000Y-55978750D03*
X162800000Y-53978750D03*
X164800000Y-55978750D03*
X164800000Y-53978750D03*
%TD*%
D25*
%TO.C,J31*%
X216025000Y-67025000D03*
D14*
X213525000Y-67025000D03*
X211025000Y-67025000D03*
%TD*%
D23*
%TO.C,C31*%
X179677651Y-46306250D03*
D24*
X176177651Y-46306250D03*
%TD*%
D21*
%TO.C,J35*%
X230100000Y-98485000D03*
D22*
X230100000Y-93405000D03*
%TD*%
D18*
%TO.C,U6*%
X200735000Y-55657500D03*
X200735000Y-53117500D03*
X200735000Y-50577500D03*
X200735000Y-48037500D03*
X200735000Y-45497500D03*
X200735000Y-42957500D03*
X200735000Y-40417500D03*
D17*
X200735000Y-37877500D03*
D18*
X188035000Y-55657500D03*
X188035000Y-53117500D03*
X188035000Y-50577500D03*
X188035000Y-48037500D03*
X188035000Y-45497500D03*
X188035000Y-42957500D03*
X188035000Y-40417500D03*
D17*
X188035000Y-37877500D03*
D18*
X190575000Y-37877500D03*
X193115000Y-37877500D03*
%TD*%
D19*
%TO.C,J34*%
X233000000Y-51050000D03*
D20*
X233000000Y-53050000D03*
%TD*%
D31*
%TO.C,J9*%
X159927500Y-88805000D03*
D18*
X157387500Y-88805000D03*
X159927500Y-86265000D03*
X157387500Y-86265000D03*
X159927500Y-83725000D03*
X157387500Y-83725000D03*
X159927500Y-81185000D03*
X157387500Y-81185000D03*
X159927500Y-78645000D03*
X157387500Y-78645000D03*
%TD*%
D23*
%TO.C,C17*%
X215809879Y-83005000D03*
D24*
X213309879Y-83005000D03*
%TD*%
D10*
%TO.C,J5*%
X158800000Y-58356250D03*
D11*
X160800000Y-58356250D03*
X162800000Y-58356250D03*
X164800000Y-58356250D03*
%TD*%
D12*
%TO.C,J18*%
X177900000Y-28850000D03*
D13*
X179500000Y-26850000D03*
D14*
X182000000Y-26850000D03*
X184500000Y-26850000D03*
X187000000Y-26850000D03*
%TD*%
D15*
%TO.C,H1*%
X220900000Y-28050000D03*
D16*
X220900000Y-28050000D03*
%TD*%
D19*
%TO.C,J32*%
X233000000Y-65900000D03*
D20*
X233000000Y-67900000D03*
%TD*%
D17*
%TO.C,J25*%
X188025000Y-34306250D03*
D18*
X190565000Y-34306250D03*
%TD*%
D23*
%TO.C,C35*%
X195902651Y-46706250D03*
D24*
X192402651Y-46706250D03*
%TD*%
D12*
%TO.C,J23*%
X191350000Y-28850000D03*
D13*
X192950000Y-26850000D03*
D14*
X195450000Y-26850000D03*
X197950000Y-26850000D03*
X200450000Y-26850000D03*
%TD*%
D23*
%TO.C,C26*%
X163402651Y-46428750D03*
D24*
X159902651Y-46428750D03*
%TD*%
D32*
%TO.C,J10*%
X169405000Y-66800000D03*
D18*
X169405000Y-69340000D03*
X166865000Y-66800000D03*
X166865000Y-69340000D03*
X164325000Y-66800000D03*
X164325000Y-69340000D03*
X161785000Y-66800000D03*
X161785000Y-69340000D03*
X159245000Y-66800000D03*
X159245000Y-69340000D03*
%TD*%
D25*
%TO.C,J21*%
X194200000Y-67025000D03*
D14*
X191700000Y-67025000D03*
X189200000Y-67025000D03*
%TD*%
M02*
