M48
; DRILL file {KiCad 9.0.3-9.0.3-0~ubuntu24.04.1} date 2025-07-31T20:10:44-0700
; FORMAT={-:-/ absolute / metric / decimal}
; #@! TF.CreationDate,2025-07-31T20:10:44-07:00
; #@! TF.GenerationSoftware,Kicad,Pcbnew,9.0.3-9.0.3-0~ubuntu24.04.1
; #@! TF.FileFunction,Plated,1,4,PTH
FMAT,2
METRIC
; #@! TA.AperFunction,Plated,PTH,ViaDrill
T1C0.300
; #@! TA.AperFunction,Plated,PTH,ViaDrill
T2C0.400
; #@! TA.AperFunction,Plated,PTH,ComponentDrill
T3C0.600
; #@! TA.AperFunction,Plated,PTH,ComponentDrill
T4C0.750
; #@! TA.AperFunction,Plated,PTH,ComponentDrill
T5C0.800
; #@! TA.AperFunction,Plated,PTH,ComponentDrill
T6C0.950
; #@! TA.AperFunction,Plated,PTH,ComponentDrill
T7C1.000
; #@! TA.AperFunction,Plated,PTH,ComponentDrill
T8C1.300
; #@! TA.AperFunction,Plated,PTH,ComponentDrill
T9C2.000
; #@! TA.AperFunction,Plated,PTH,ComponentDrill
T10C3.200
%
G90
G05
T1
X160.4Y-96.55
X162.3Y-96.55
X162.575Y-62.006
X164.5Y-75.325
X164.5Y-76.9
X164.5Y-78.325
X164.65Y-92.625
X164.995Y-96.125
X166.1Y-88.925
X166.175Y-94.2
X166.25Y-77.475
X166.31Y-75.375
X167.025Y-58.229
X167.05Y-71.1
X167.702Y-92.398
X168.145Y-96.125
X168.575Y-58.229
X168.798Y-91.302
X168.975Y-34.879
X169.083Y-60.567
X169.1Y-62.234
X169.2Y-88.325
X169.25Y-79.3
X169.275Y-94.2
X170.002Y-74.102
X170.345Y-96.125
X170.825Y-94.2
X171.098Y-75.198
X171.1Y-62.125
X171.55Y-92.5
X172.35Y-83.35
X172.55Y-87.3
X172.55Y-88.1
X172.75Y-74.1
X172.8Y-62.225
X173.875Y-94.2
X174.926Y-81.45
X175.65Y-87.4
X175.7Y-66.25
X175.9Y-86.55
X176.5Y-88.2
X176.6Y-67.55
X176.875Y-94.2
X177.1Y-88.85
X177.278Y-62.106
X177.947Y-70.104
X178.1Y-90.0
X178.828Y-62.106
X179.55Y-74.067
X179.55Y-74.876
X179.61Y-73.269
X179.65Y-83.1
X179.9Y-94.2
X180.029Y-60.474
X180.181Y-89.4
X180.237Y-59.247
X180.25Y-82.5
X180.4Y-73.467
X180.55Y-63.9
X180.85Y-85.05
X180.877Y-60.474
X181.54Y-72.6
X181.604Y-85.336
X181.604Y-86.15
X182.0Y-55.05
X182.204Y-84.6
X182.3Y-72.199
X183.175Y-97.875
X183.175Y-100.65
X183.3Y-80.85
X183.303Y-58.244
X183.405Y-84.0
X183.405Y-86.5
X183.9Y-82.25
X183.928Y-83.123
X184.8Y-82.05
X184.853Y-58.244
X185.075Y-108.645
X185.075Y-109.915
X185.175Y-97.8
X185.175Y-100.625
X185.228Y-34.906
X185.25Y-62.325
X185.802Y-74.048
X186.898Y-72.952
X187.05Y-71.2
X187.102Y-92.502
X187.253Y-62.219
X187.754Y-70.821
X187.95Y-63.6
X187.983Y-85.167
X188.1Y-57.75
X188.198Y-93.598
X188.953Y-60.681
X188.953Y-62.331
X188.975Y-79.125
X188.975Y-104.835
X188.975Y-107.375
X188.975Y-108.645
X188.975Y-109.915
X189.15Y-85.975
X189.275Y-87.9
X189.275Y-97.8
X189.275Y-100.625
X190.525Y-79.125
X190.85Y-83.775
X190.875Y-81.95
X191.275Y-100.6
X192.5Y-79.075
X192.575Y-107.79
X192.575Y-109.34
X192.596Y-97.446
X192.975Y-84.925
X193.2Y-96.401
X193.35Y-80.6
X194.4Y-79.075
X194.525Y-84.925
X195.7Y-60.5
X195.775Y-62.05
X195.8Y-65.236
X195.958Y-98.592
X197.1Y-60.186
X197.325Y-62.05
X197.55Y-105.465
X197.552Y-59.454
X198.349Y-59.526
X198.4Y-99.25
X198.5Y-101.435
X198.651Y-78.5
X199.55Y-58.169
X199.6Y-62.3
X200.5Y-101.435
X200.974Y-106.608
X201.1Y-58.169
X201.25Y-61.725
X201.525Y-34.806
X201.574Y-104.361
X202.95Y-58.6
X203.25Y-61.619
X204.05Y-105.465
X204.5Y-90.2
X204.95Y-61.731
X205.025Y-93.55
X205.3Y-101.335
X205.85Y-86.9
X206.065Y-71.35
X206.4Y-90.2
X207.45Y-80.95
X208.05Y-86.9
X209.15Y-90.575
X209.65Y-61.809
X209.7Y-81.125
X210.625Y-108.95
X211.5Y-61.809
X213.05Y-61.809
X213.655Y-71.35
X214.45Y-111.375
X215.9Y-58.181
X217.45Y-58.181
X217.775Y-34.819
X219.612Y-58.512
X219.65Y-51.575
X219.7Y-65.962
X220.05Y-43.309
X220.25Y-39.721
X220.325Y-99.825
X220.55Y-70.325
X220.775Y-60.237
X220.812Y-52.787
X220.862Y-67.7
X223.025Y-97.35
X223.15Y-104.55
X224.5Y-45.65
X224.6Y-36.15
X226.375Y-27.1
X227.175Y-70.225
X227.95Y-30.625
X227.95Y-37.925
X227.95Y-45.425
X228.45Y-50.825
X228.45Y-58.25
X228.5Y-65.725
X228.725Y-70.225
T2
X197.45Y-96.8
X199.75Y-90.5
X199.75Y-96.8
X200.3Y-99.25
X202.05Y-96.8
X202.9Y-99.76
X205.3Y-99.785
X206.9Y-92.6
X207.35Y-97.0
X207.8Y-106.652
X209.475Y-99.33
X209.7Y-83.025
X212.275Y-110.85
X212.477Y-88.655
X215.202Y-71.347
X216.477Y-88.655
X225.3Y-53.137
X225.35Y-68.037
X225.4Y-60.587
T4
X233.0Y-28.85
X233.0Y-30.85
X233.0Y-36.25
X233.0Y-38.25
X233.0Y-43.65
X233.0Y-45.65
X233.0Y-51.05
X233.0Y-53.05
X233.0Y-58.45
X233.0Y-60.45
X233.0Y-65.9
X233.0Y-67.9
T5
X158.8Y-53.979
X158.8Y-55.979
X158.8Y-58.356
X159.903Y-46.429
X160.8Y-53.979
X160.8Y-55.979
X160.8Y-58.356
X162.8Y-53.979
X162.8Y-55.979
X162.8Y-58.356
X163.403Y-46.429
X164.8Y-53.979
X164.8Y-55.979
X164.8Y-58.356
X175.028Y-58.321
X175.053Y-53.966
X175.053Y-55.966
X176.178Y-46.306
X177.028Y-58.321
X177.053Y-53.966
X177.053Y-55.966
X179.028Y-58.321
X179.053Y-53.966
X179.053Y-55.966
X179.678Y-46.306
X181.028Y-58.321
X181.053Y-53.966
X181.053Y-55.966
X191.35Y-53.906
X191.35Y-55.906
X191.35Y-58.296
X192.403Y-46.706
X193.35Y-53.906
X193.35Y-55.906
X193.35Y-58.296
X195.35Y-53.906
X195.35Y-55.906
X195.35Y-58.296
X195.903Y-46.706
X197.35Y-53.906
X197.35Y-55.906
X197.35Y-58.296
X207.65Y-53.909
X207.65Y-55.909
X207.65Y-58.302
X208.703Y-46.175
X209.65Y-53.909
X209.65Y-55.909
X209.65Y-58.302
X211.65Y-53.909
X211.65Y-55.909
X211.65Y-58.302
X212.203Y-46.175
X213.31Y-83.005
X213.65Y-53.909
X213.65Y-55.909
X213.65Y-58.302
X215.81Y-83.005
T6
X166.05Y-26.85
X168.55Y-26.85
X171.05Y-26.85
X173.55Y-26.85
X178.3Y-67.025
X179.5Y-26.85
X180.8Y-67.025
X182.0Y-26.85
X183.3Y-67.025
X184.5Y-26.85
X187.0Y-26.85
X189.2Y-67.025
X191.7Y-67.025
X192.95Y-26.85
X194.2Y-67.025
X195.45Y-26.85
X197.95Y-26.85
X200.125Y-67.025
X200.45Y-26.85
X202.625Y-67.025
X205.125Y-67.025
X206.375Y-26.85
X208.875Y-26.85
X211.025Y-67.025
X211.375Y-26.85
X213.525Y-67.025
X213.875Y-26.85
X216.025Y-67.025
X222.25Y-75.275
X224.75Y-75.275
X227.25Y-75.275
X229.75Y-75.275
X232.25Y-75.275
T7
X155.45Y-34.329
X155.5Y-37.939
X155.5Y-40.479
X155.5Y-43.019
X155.5Y-45.559
X155.5Y-48.099
X155.5Y-50.639
X155.5Y-53.179
X155.5Y-55.719
X157.387Y-78.645
X157.387Y-81.185
X157.387Y-83.725
X157.387Y-86.265
X157.387Y-88.805
X157.99Y-34.329
X158.04Y-37.939
X159.245Y-66.8
X159.245Y-69.34
X159.927Y-78.645
X159.927Y-81.185
X159.927Y-83.725
X159.927Y-86.265
X159.927Y-88.805
X160.58Y-37.939
X161.785Y-66.8
X161.785Y-69.34
X164.325Y-66.8
X164.325Y-69.34
X166.865Y-66.8
X166.865Y-69.34
X168.2Y-37.939
X168.2Y-40.479
X168.2Y-43.019
X168.2Y-45.559
X168.2Y-48.099
X168.2Y-50.639
X168.2Y-53.179
X168.2Y-55.719
X169.405Y-66.8
X169.405Y-69.34
X171.728Y-34.356
X171.753Y-37.946
X171.753Y-40.486
X171.753Y-43.026
X171.753Y-45.566
X171.753Y-48.106
X171.753Y-50.646
X171.753Y-53.186
X171.753Y-55.726
X174.268Y-34.356
X174.293Y-37.946
X176.833Y-37.946
X184.453Y-37.946
X184.453Y-40.486
X184.453Y-43.026
X184.453Y-45.566
X184.453Y-48.106
X184.453Y-50.646
X184.453Y-53.186
X184.453Y-55.726
X188.025Y-34.306
X188.035Y-37.877
X188.035Y-40.417
X188.035Y-42.957
X188.035Y-45.497
X188.035Y-48.037
X188.035Y-50.578
X188.035Y-53.117
X188.035Y-55.657
X190.565Y-34.306
X190.575Y-37.877
X193.115Y-37.877
X200.735Y-37.877
X200.735Y-40.417
X200.735Y-42.957
X200.735Y-45.497
X200.735Y-48.037
X200.735Y-50.578
X200.735Y-53.117
X200.735Y-55.657
X204.325Y-34.269
X204.325Y-37.875
X204.325Y-40.415
X204.325Y-42.955
X204.325Y-45.495
X204.325Y-48.035
X204.325Y-50.575
X204.325Y-53.115
X204.325Y-55.655
X204.425Y-74.35
X206.865Y-34.269
X206.865Y-37.875
X206.965Y-74.35
X209.405Y-37.875
X210.55Y-74.35
X213.09Y-74.35
X215.63Y-74.35
X217.025Y-37.875
X217.025Y-40.415
X217.025Y-42.955
X217.025Y-45.495
X217.025Y-48.035
X217.025Y-50.575
X217.025Y-53.115
X217.025Y-55.655
T8
X230.1Y-82.22
X230.1Y-87.3
X230.1Y-93.405
X230.1Y-98.485
X230.1Y-104.605
X230.1Y-109.685
T10
X158.45Y-28.05
X158.45Y-108.7
X220.9Y-28.05
X220.9Y-108.7
T3
G00X196.48Y-105.83
M15
G01X196.48Y-106.93
M16
G05
G00X196.48Y-110.26
M15
G01X196.48Y-110.86
M16
G05
G00X205.12Y-105.83
M15
G01X205.12Y-106.93
M16
G05
G00X205.12Y-110.26
M15
G01X205.12Y-110.86
M16
G05
T9
G00X221.525Y-80.425
M15
G01X221.525Y-81.925
M16
G05
G00X221.525Y-88.425
M15
G01X221.525Y-89.925
M16
G05
M30
